<svg xmlns="http://www.w3.org/2000/svg" width="2000" height="2000" viewBox="0 0 2000 2000" version="1.1"><path d="M 1433.500 296.695 C 1417.158 299.012, 1396.967 305.632, 1382 313.582 C 1380.625 314.312, 1376.575 316.456, 1373 318.347 C 1365.558 322.282, 1345.585 335.225, 1342.287 338.249 C 1341.071 339.365, 1339.202 340.778, 1338.136 341.389 C 1328.425 346.953, 1290.274 382.733, 1267.596 407.547 C 1256.455 419.738, 1227.131 455.570, 1217.843 468.343 C 1198.113 495.476, 1172 533.929, 1172 535.848 C 1172 536.482, 1171.570 537, 1171.044 537 C 1170.518 537, 1168.195 540.263, 1165.882 544.250 C 1163.568 548.237, 1159.948 554.063, 1157.837 557.195 C 1155.727 560.327, 1154 563.304, 1154 563.810 C 1154 564.316, 1153.156 565.804, 1152.123 567.116 C 1151.091 568.428, 1147.655 574.001, 1144.487 579.501 C 1132.813 599.767, 1111.739 632.375, 1101.510 646 C 1099.239 649.025, 1096.508 652.915, 1095.440 654.644 C 1094.373 656.373, 1090.222 661.998, 1086.216 667.144 C 1082.210 672.290, 1075.816 680.550, 1072.007 685.500 C 1052.638 710.675, 1001.880 774.931, 983.140 798 C 978.896 803.225, 969.954 814.250, 963.268 822.500 C 918.839 877.329, 904.505 894.937, 888.296 914.592 C 882.358 921.792, 867.390 940.017, 855.033 955.092 C 842.676 970.166, 820.176 997.296, 805.033 1015.379 C 789.890 1033.463, 775.025 1051.311, 772 1055.042 C 768.975 1058.773, 758.625 1071.145, 749 1082.536 C 739.375 1093.927, 727.225 1108.314, 722 1114.508 C 702.429 1137.707, 684.435 1158.755, 677.551 1166.500 C 673.641 1170.900, 668.434 1176.975, 665.980 1180 C 663.527 1183.025, 656.107 1191.575, 649.492 1199 C 642.876 1206.425, 632.890 1217.675, 627.301 1224 C 613.170 1239.990, 586.446 1266.319, 574.500 1276.022 C 540.261 1303.831, 505.739 1332.830, 473.935 1360.500 C 470.774 1363.250, 461.733 1371.092, 453.844 1377.926 C 445.955 1384.760, 435.225 1394.217, 430 1398.941 C 424.775 1403.665, 416.916 1410.673, 412.536 1414.515 C 408.157 1418.357, 398.707 1426.840, 391.536 1433.368 C 376.397 1447.149, 346.496 1472.245, 340.094 1476.542 C 337.670 1478.169, 334.700 1480.175, 333.493 1481 C 332.286 1481.825, 329.994 1483.358, 328.399 1484.407 C 326.805 1485.456, 322.959 1488.040, 319.852 1490.149 C 316.746 1492.259, 313.371 1494.279, 312.352 1494.640 C 311.334 1495.001, 309.150 1496.257, 307.500 1497.432 C 305.850 1498.607, 303.375 1500.112, 302 1500.777 C 300.625 1501.441, 298.825 1502.410, 298 1502.929 C 297.175 1503.448, 294.925 1504.653, 293 1505.605 C 291.075 1506.558, 284.326 1509.961, 278.002 1513.169 C 271.678 1516.376, 266.053 1519.003, 265.502 1519.006 C 264.951 1519.010, 263.150 1519.742, 261.500 1520.633 C 259.850 1521.525, 256.250 1523.130, 253.500 1524.202 C 226.345 1534.779, 213.134 1538.969, 194.272 1542.987 C 168.559 1548.464, 152.400 1564.245, 147.492 1588.673 C 145.971 1596.246, 145.970 1597.494, 147.487 1605.673 C 149.511 1616.593, 152.232 1622.703, 160.770 1635.500 C 165.353 1642.371, 171.674 1649.730, 180.970 1659.019 C 195.779 1673.817, 205.524 1680.941, 221 1688.286 C 243.781 1699.096, 251.949 1701.302, 281.278 1704.563 C 295.623 1706.158, 296.620 1706.143, 315.278 1704.051 C 325.850 1702.865, 338.775 1701.033, 344 1699.980 C 349.225 1698.927, 358.605 1697.584, 364.844 1696.996 C 371.084 1696.407, 378.716 1695.267, 381.804 1694.463 C 384.893 1693.658, 388.356 1693, 389.500 1693 C 394.903 1693, 421.605 1684.589, 433 1679.298 C 446.664 1672.954, 457.624 1667.733, 459 1666.912 C 459.825 1666.420, 462.652 1664.874, 465.283 1663.475 C 467.914 1662.077, 472.505 1659.373, 475.485 1657.466 C 478.466 1655.560, 481.201 1654, 481.565 1654 C 481.928 1654, 483.637 1652.846, 485.363 1651.436 C 487.088 1650.026, 492.100 1646.597, 496.500 1643.815 C 500.900 1641.034, 505.175 1638.132, 506 1637.367 C 507.533 1635.946, 515.234 1630.156, 526.664 1621.833 C 535.126 1615.670, 549.907 1608.086, 558 1605.756 C 567.947 1602.892, 583.969 1599.109, 602 1595.366 C 612.454 1593.196, 628.345 1589.728, 642.500 1586.527 C 653.874 1583.956, 658.514 1582.947, 681 1578.161 C 694.440 1575.300, 713.198 1570.314, 717.690 1568.409 C 760.236 1550.367, 788.371 1509.299, 786.727 1467.639 C 786.302 1456.866, 783.335 1438.451, 781.097 1432.692 C 780.497 1431.148, 779.321 1424.026, 778.484 1416.865 C 775.098 1387.889, 781.056 1372.012, 803.987 1348.906 C 814.235 1338.579, 831.097 1325.760, 848.585 1315 C 852.608 1312.525, 861.659 1306.954, 868.699 1302.620 C 875.740 1298.286, 887.350 1291.358, 894.500 1287.224 C 901.650 1283.090, 909.300 1278.483, 911.500 1276.987 C 913.700 1275.490, 918.200 1272.838, 921.500 1271.093 C 924.800 1269.347, 930.425 1266.139, 934 1263.964 C 937.575 1261.788, 943.055 1258.666, 946.177 1257.026 C 949.300 1255.387, 952.131 1253.597, 952.469 1253.051 C 952.806 1252.504, 954.977 1251.155, 957.291 1250.052 C 959.606 1248.949, 962.850 1247.238, 964.500 1246.249 C 966.150 1245.260, 970.875 1242.502, 975 1240.120 C 979.125 1237.738, 984.300 1234.561, 986.500 1233.061 C 988.700 1231.560, 993.875 1228.451, 998 1226.152 C 1002.125 1223.853, 1008.650 1219.951, 1012.500 1217.482 C 1016.350 1215.013, 1020.486 1212.566, 1021.691 1212.044 C 1022.896 1211.522, 1026.946 1209.118, 1030.691 1206.703 C 1039.446 1201.055, 1051.504 1193.506, 1061 1187.727 C 1065.125 1185.216, 1069.912 1182, 1071.637 1180.581 C 1073.363 1179.161, 1075.056 1178, 1075.399 1178 C 1075.942 1178, 1082.691 1173.787, 1092.382 1167.400 C 1093.968 1166.355, 1095.993 1165.047, 1096.882 1164.492 C 1099.964 1162.573, 1143.511 1132.976, 1146 1131.109 C 1147.375 1130.078, 1154.125 1125.265, 1161 1120.415 C 1190.287 1099.751, 1224.808 1072.601, 1258 1044.127 C 1276.179 1028.533, 1333.380 971.336, 1346.135 956 C 1366.330 931.716, 1381.339 911.525, 1392.594 893.500 C 1396.029 888, 1400.406 881.025, 1402.322 878 C 1405.492 872.996, 1409.384 865.983, 1412.802 859.116 C 1413.518 857.677, 1414.517 855.825, 1415.022 855 C 1415.912 853.546, 1419.140 846.897, 1424.973 834.500 C 1426.526 831.200, 1429.014 825.350, 1430.502 821.500 C 1431.990 817.650, 1434.025 812.475, 1435.024 810 C 1437.581 803.666, 1439.925 796.495, 1441.725 789.500 C 1444.464 778.850, 1444.582 778.679, 1448.786 779.253 C 1450.829 779.532, 1456.392 781.614, 1461.150 783.880 C 1465.907 786.146, 1470.102 788, 1470.472 788 C 1471.384 788, 1492.336 797.449, 1498.251 800.528 C 1500.863 801.887, 1503.508 803, 1504.128 803 C 1504.748 803, 1508.010 804.311, 1511.377 805.914 C 1514.745 807.516, 1523.125 811.185, 1530 814.068 C 1536.875 816.950, 1543.388 819.914, 1544.473 820.654 C 1545.557 821.394, 1547.139 822, 1547.987 822 C 1548.836 822, 1551.323 822.963, 1553.515 824.139 C 1555.707 825.315, 1558.625 826.629, 1560 827.058 C 1561.375 827.487, 1566.325 829.466, 1571 831.455 C 1575.675 833.444, 1583.550 836.652, 1588.500 838.583 C 1593.450 840.514, 1599.164 842.973, 1601.198 844.047 C 1603.232 845.121, 1605.585 846, 1606.426 846 C 1607.267 846, 1610.328 847.093, 1613.228 848.430 C 1616.128 849.766, 1621.425 851.988, 1625 853.366 C 1628.575 854.745, 1634.502 857.027, 1638.171 858.437 C 1641.839 859.846, 1645.973 861, 1647.355 861 C 1656.131 861, 1665.062 851.378, 1663.463 843.646 C 1662.179 837.443, 1658.479 833.563, 1650.735 830.300 C 1637.898 824.892, 1630.521 821.994, 1629.600 821.997 C 1629.105 821.999, 1626.405 820.917, 1623.600 819.592 C 1620.795 818.268, 1615.350 815.986, 1611.500 814.522 C 1607.650 813.057, 1602.700 811.019, 1600.500 809.991 C 1598.300 808.964, 1592.225 806.460, 1587 804.428 C 1581.775 802.395, 1576.612 800.117, 1575.527 799.366 C 1574.443 798.615, 1572.943 798, 1572.195 798 C 1570.903 798, 1561.780 794.288, 1552 789.782 C 1543.077 785.671, 1539.362 784.095, 1531 780.872 C 1526.325 779.071, 1521.825 777.094, 1521 776.479 C 1520.175 775.864, 1517.700 774.649, 1515.500 773.778 C 1513.300 772.908, 1507.900 770.627, 1503.500 768.709 C 1499.100 766.791, 1492.125 763.769, 1488 761.992 C 1479.518 758.338, 1470.236 754.086, 1468 752.830 C 1467.175 752.367, 1465.825 751.709, 1465 751.369 C 1464.175 751.029, 1458.625 748.567, 1452.667 745.898 C 1430.159 735.818, 1422.458 738.703, 1417.891 758.929 C 1413.770 777.180, 1403.944 807.387, 1400.553 812.228 C 1399.699 813.447, 1398.994 815.132, 1398.987 815.973 C 1398.980 816.813, 1397.705 820.003, 1396.153 823.062 C 1394.601 826.122, 1393.032 829.497, 1392.667 830.562 C 1391.679 833.444, 1377.902 859.038, 1374.898 863.573 C 1373.467 865.733, 1367.925 874.196, 1362.582 882.381 C 1331.005 930.750, 1283.003 982.598, 1223 1033.144 C 1201.871 1050.943, 1160.582 1083.206, 1148.957 1091 C 1146.906 1092.375, 1142.589 1095.511, 1139.364 1097.970 C 1133.340 1102.562, 1104.414 1122.372, 1084 1135.886 C 1071.901 1143.896, 1071.078 1144.431, 1064.175 1148.777 C 1061.797 1150.275, 1057.522 1153.015, 1054.675 1154.866 C 1038.954 1165.093, 1018.051 1178, 1017.212 1178 C 1016.680 1178, 1015.691 1178.668, 1015.013 1179.484 C 1014.336 1180.300, 1011.468 1182.262, 1008.641 1183.843 C 1005.813 1185.424, 993.150 1192.911, 980.500 1200.481 C 951.912 1217.589, 939.556 1224.887, 925.500 1232.965 C 919.450 1236.442, 912.215 1240.751, 909.422 1242.539 C 906.629 1244.328, 901.904 1247.023, 898.922 1248.527 C 895.940 1250.031, 893.275 1251.579, 893 1251.967 C 892.725 1252.355, 888.675 1254.801, 884 1257.402 C 874.717 1262.569, 841.314 1282.653, 836.500 1285.963 C 834.850 1287.097, 828.550 1291.233, 822.500 1295.153 C 795.161 1312.867, 766.961 1339.699, 758.550 1356 C 752.479 1367.765, 750.913 1371.753, 748.503 1381.578 C 745.291 1394.676, 744.767 1411.690, 747.275 1421.500 C 748.119 1424.800, 749.110 1429.750, 749.478 1432.500 C 749.846 1435.250, 751.127 1440.650, 752.324 1444.500 C 754.222 1450.607, 754.498 1453.796, 754.484 1469.500 C 754.468 1486.658, 754.345 1487.794, 751.838 1493.779 C 743.383 1513.971, 725.998 1531.223, 705.667 1539.599 C 701.175 1541.449, 696.840 1542.972, 696.033 1542.982 C 695.227 1542.992, 690.052 1544.082, 684.533 1545.404 C 679.015 1546.726, 668.875 1549.008, 662 1550.475 C 655.125 1551.942, 646.125 1554.005, 642 1555.059 C 637.875 1556.114, 631.350 1557.492, 627.500 1558.122 C 623.650 1558.752, 619.375 1559.695, 618 1560.217 C 616.625 1560.740, 612.125 1561.748, 608 1562.457 C 603.875 1563.167, 597.575 1564.453, 594 1565.317 C 578.562 1569.044, 565.194 1572, 563.776 1572 C 559.761 1572, 532.277 1581.745, 529.209 1584.256 C 528.499 1584.837, 525.799 1586.326, 523.209 1587.565 C 518.207 1589.957, 508.191 1596.759, 495.554 1606.346 C 485.586 1613.907, 461.914 1630, 460.759 1630 C 460.268 1630, 458.434 1631.078, 456.683 1632.395 C 452.625 1635.449, 422.950 1650.283, 414.173 1653.646 C 399.577 1659.238, 385.477 1662.594, 362.500 1665.943 C 354.250 1667.146, 343.225 1668.833, 338 1669.694 C 320.120 1672.637, 317.464 1672.831, 294.500 1672.872 C 270.250 1672.915, 268.661 1672.743, 254.707 1668.562 C 239.317 1663.950, 230.334 1659.563, 218.511 1650.887 C 207.942 1643.131, 193.786 1628.877, 188.647 1620.816 C 186.654 1617.690, 184.562 1614.847, 183.997 1614.498 C 181.336 1612.853, 178.866 1605.486, 178.304 1597.512 L 177.714 1589.154 182.383 1583.689 C 187.566 1577.622, 193.355 1574.566, 202.775 1572.926 C 208.558 1571.919, 212.930 1570.720, 232 1564.908 C 242.923 1561.579, 244.676 1560.939, 262 1553.963 C 267.775 1551.637, 273.850 1549.218, 275.500 1548.587 C 277.150 1547.956, 279.400 1546.911, 280.500 1546.264 C 281.600 1545.618, 291.942 1540.324, 303.482 1534.500 C 315.023 1528.677, 325.402 1523.032, 326.547 1521.956 C 327.692 1520.880, 329.090 1520, 329.653 1520 C 330.963 1520, 356.534 1503.235, 364.465 1497.176 C 375.773 1488.537, 393.363 1473.605, 406.444 1461.540 C 413.625 1454.917, 422.874 1446.573, 426.997 1442.999 C 431.120 1439.425, 441.041 1430.650, 449.043 1423.500 C 480.520 1395.375, 511.033 1369.058, 549 1337.290 C 580.305 1311.095, 586.789 1305.733, 598 1296.774 C 609.581 1287.518, 639.672 1257.143, 658.565 1235.637 C 676.697 1214.996, 706.280 1180.784, 715.319 1170 C 719.237 1165.325, 725.409 1158.125, 729.034 1154 C 732.659 1149.875, 741.447 1139.555, 748.562 1131.067 C 755.678 1122.579, 766.853 1109.304, 773.395 1101.567 C 796.795 1073.894, 824.108 1041.182, 844.423 1016.500 C 871.857 983.167, 877.932 975.801, 885.323 966.911 C 896.472 953.499, 911.758 934.945, 926.441 917 C 933.417 908.475, 940.818 899.475, 942.888 897 C 944.958 894.525, 952.243 885.559, 959.076 877.076 C 965.909 868.593, 974.650 857.773, 978.500 853.032 C 994.183 833.717, 1013.885 809.209, 1020 801.408 C 1023.575 796.846, 1033.670 784.201, 1042.433 773.307 C 1051.196 762.413, 1061.192 749.900, 1064.646 745.500 C 1098.250 702.695, 1125 667.518, 1125 666.132 C 1125 665.644, 1125.723 664.645, 1126.607 663.911 C 1129.953 661.135, 1157.379 618.874, 1173.925 591 C 1179.312 581.925, 1184.795 572.787, 1186.110 570.694 C 1192.494 560.529, 1197.597 552.335, 1198.500 550.797 C 1199.050 549.860, 1206.440 538.835, 1214.922 526.297 C 1230.213 503.692, 1252.203 473.892, 1264.950 458.500 C 1268.593 454.100, 1274.249 447.125, 1277.517 443 C 1285.549 432.861, 1327.867 390.055, 1341.500 378.278 C 1354.916 366.690, 1373.746 353.433, 1388.553 345.153 C 1399.880 338.818, 1403.175 337.372, 1420.500 331.130 L 1430.500 327.527 1452.043 327.580 C 1474.752 327.637, 1473.505 327.456, 1490.500 333.158 C 1492.150 333.712, 1500.025 336.340, 1508 339 C 1515.975 341.660, 1523.850 344.322, 1525.500 344.917 C 1529.985 346.535, 1556.051 355.070, 1559.500 356.051 C 1561.150 356.520, 1573.750 360.770, 1587.500 365.495 C 1601.250 370.221, 1613.850 374.482, 1615.500 374.965 C 1617.150 375.447, 1623.675 377.713, 1630 380 C 1636.325 382.287, 1643.120 384.560, 1645.100 385.051 C 1647.081 385.541, 1650.831 386.856, 1653.433 387.971 C 1656.036 389.087, 1658.848 390, 1659.682 390 C 1660.516 390, 1662.616 390.665, 1664.349 391.477 C 1667.424 392.919, 1679.504 397.192, 1685.500 398.958 C 1687.150 399.445, 1693.675 401.713, 1700 404 C 1706.325 406.287, 1712.850 408.546, 1714.500 409.021 C 1716.150 409.495, 1724.700 412.406, 1733.500 415.490 C 1742.300 418.573, 1755.350 423.050, 1762.500 425.439 C 1769.650 427.829, 1777.075 430.441, 1779 431.244 C 1783.056 432.938, 1794.134 436.801, 1798.500 438.045 C 1801.305 438.844, 1810.194 441.974, 1828 448.433 C 1832.125 449.930, 1836.850 451.520, 1838.500 451.966 C 1840.150 452.413, 1843.248 453.535, 1845.384 454.459 C 1847.520 455.383, 1852.371 456.399, 1856.163 456.717 C 1862.471 457.246, 1863.279 457.091, 1865.661 454.897 C 1868.841 451.969, 1871.948 445.482, 1871.978 441.710 C 1872.002 438.645, 1868.987 432.064, 1866.683 430.152 C 1865.070 428.814, 1854.222 424.285, 1849.500 422.978 C 1847.850 422.522, 1842 420.531, 1836.500 418.554 C 1831 416.577, 1820.425 412.888, 1813 410.357 C 1798.274 405.337, 1794.370 403.973, 1770.500 395.516 C 1761.700 392.398, 1753.150 389.471, 1751.500 389.010 C 1749.850 388.550, 1744 386.536, 1738.500 384.536 C 1733 382.536, 1727.150 380.503, 1725.500 380.018 C 1723.850 379.534, 1717.325 377.285, 1711 375.021 C 1704.675 372.757, 1698.150 370.500, 1696.500 370.005 C 1693.391 369.073, 1673.190 362.133, 1645.500 352.485 C 1636.700 349.418, 1627.475 346.298, 1625 345.552 C 1622.525 344.805, 1606.550 339.408, 1589.500 333.558 C 1572.450 327.708, 1556.475 322.301, 1554 321.542 C 1547.302 319.488, 1540.117 317.096, 1534.500 315.052 C 1531.750 314.051, 1521.400 310.663, 1511.500 307.524 C 1501.600 304.384, 1491.700 301.158, 1489.500 300.356 C 1483.416 298.135, 1460.505 294.992, 1451.500 295.143 C 1447.100 295.217, 1439 295.915, 1433.500 296.695 M 450 346.079 C 441.475 346.503, 429.854 347.783, 424.176 348.925 C 418.499 350.066, 412.955 351, 411.858 351 C 409.254 351, 389.820 355.534, 379 358.665 C 369.682 361.362, 365.661 362.736, 349 368.918 C 344.070 370.748, 334.310 375.526, 326.500 379.935 C 323.750 381.487, 319.700 383.711, 317.500 384.877 C 309.662 389.031, 292.374 402.797, 284.597 411.077 C 276.058 420.168, 269 429.057, 269 430.718 C 269 431.289, 268.369 432.279, 267.597 432.920 C 263.093 436.657, 255.477 458.066, 253.441 472.709 C 249.921 498.032, 255.387 522.394, 270.445 548.500 C 273.076 553.063, 273.917 555.683, 273.953 559.440 C 273.998 564.155, 270.797 576.248, 266.900 586.090 C 265.900 588.615, 264.646 592.440, 264.114 594.590 C 263.582 596.741, 262.257 600.975, 261.171 604 C 259.399 608.931, 255.266 621.794, 247.352 647 C 245.884 651.675, 243.902 657.750, 242.946 660.500 C 241.991 663.250, 238.632 673.600, 235.481 683.500 C 232.331 693.400, 228.945 703.750, 227.956 706.500 C 226.968 709.250, 224.952 715.550, 223.476 720.500 C 222.001 725.450, 219.793 732.425, 218.569 736 C 216.244 742.791, 215.773 744.259, 206.530 773.500 C 203.400 783.400, 200.039 793.750, 199.062 796.500 C 198.084 799.250, 196.026 805.775, 194.489 811 C 192.952 816.225, 190.685 823.200, 189.450 826.500 C 188.216 829.800, 186.883 834.075, 186.488 836 C 186.092 837.925, 185.415 839.950, 184.982 840.500 C 184.550 841.050, 183.680 843.525, 183.050 846 C 182.419 848.475, 181.044 852.750, 179.993 855.500 C 178.942 858.250, 177.127 865.877, 175.960 872.448 L 173.838 884.396 176.014 896.948 C 179.722 918.340, 186.125 930.112, 202.827 946.243 C 211.227 954.355, 212.025 955.475, 213.883 961.743 C 217.318 973.330, 220.198 985.255, 221.070 991.500 C 221.531 994.800, 222.619 1001.325, 223.487 1006 C 227.047 1025.171, 227.107 1090.129, 223.574 1101.500 C 222.720 1104.250, 221.530 1109.200, 220.930 1112.500 C 219.982 1117.717, 217.020 1126.980, 211.659 1141.500 C 210.847 1143.700, 208.341 1148.749, 206.091 1152.719 C 203.841 1156.690, 202 1160.333, 202 1160.814 C 202 1161.296, 201.079 1162.524, 199.953 1163.542 C 198.828 1164.561, 197.158 1166.993, 196.242 1168.947 C 193.822 1174.113, 166.620 1201.151, 160 1204.970 C 156.975 1206.715, 152.700 1209.446, 150.500 1211.038 C 148.300 1212.631, 144.475 1214.894, 142 1216.067 C 131.249 1221.165, 127.275 1226.679, 128.494 1234.807 C 129.541 1241.793, 130.795 1243.535, 136.848 1246.417 C 142.338 1249.030, 142.626 1249.063, 146.877 1247.553 C 152.666 1245.498, 169.268 1236.486, 172.907 1233.425 C 174.492 1232.091, 176.133 1231, 176.553 1231 C 178.372 1231, 189.442 1221.647, 201.282 1210.107 C 210.819 1200.812, 216.091 1194.659, 222.044 1185.874 C 226.433 1179.399, 230.317 1173.290, 230.675 1172.300 C 231.033 1171.310, 232.074 1169.375, 232.988 1168 C 233.903 1166.625, 235.253 1163.925, 235.990 1162 C 236.727 1160.075, 237.839 1157.825, 238.462 1157 C 241.478 1153.004, 248.569 1131.427, 252.264 1115 C 258.660 1086.566, 260.389 1054.762, 257.104 1026 C 255.941 1015.825, 254.735 1005.025, 254.424 1002 C 254.113 998.975, 253.244 994.025, 252.494 991 C 249.902 980.548, 248.610 968.859, 249.955 968.028 C 250.625 967.614, 255.972 967.029, 261.837 966.728 C 274.028 966.102, 282.146 963.880, 295 957.650 C 302.205 954.158, 305.099 951.927, 314 943.008 C 319.775 937.221, 325.449 930.689, 326.609 928.493 C 327.769 926.297, 329.430 923.150, 330.302 921.500 C 332.521 917.297, 336.288 907.091, 339.529 896.500 C 344.531 880.154, 352.189 856.580, 354.110 851.617 C 355.150 848.931, 356 845.931, 356 844.950 C 356 843.968, 356.893 841.082, 357.985 838.535 C 359.077 835.988, 360.690 831.113, 361.570 827.702 C 363.802 819.051, 366.696 814.368, 371.579 811.506 C 379.650 806.776, 388.277 795.321, 392.071 784.295 C 394.828 776.280, 394.791 759.080, 392 752 C 388.281 742.565, 389.173 739.126, 399.156 724.414 C 402.084 720.099, 418.540 703.507, 421.721 701.664 C 422.825 701.024, 425.702 699.427, 428.114 698.116 C 430.526 696.804, 432.725 695.400, 433 694.995 C 434.712 692.475, 461.038 683.536, 472.566 681.561 C 488.445 678.840, 493.038 678.638, 499.767 680.362 C 503.197 681.241, 510.165 682.444, 515.252 683.037 C 520.338 683.629, 528.100 684.779, 532.500 685.592 C 544.590 687.826, 589.470 689.111, 618.500 688.054 C 641.798 687.207, 647.675 686.573, 673 682.175 C 689.744 679.267, 725.147 668.884, 730.473 665.320 C 731.557 664.594, 733.211 664, 734.148 664 C 736.813 664, 758.494 652.758, 769 645.928 C 792.255 630.811, 809.872 612.239, 819.206 593 C 824.611 581.861, 826.138 577.282, 828.539 565.027 C 831.619 549.299, 831.622 542.551, 828.556 527.498 C 825.435 512.180, 821.040 500.456, 813 486.001 C 801.489 465.305, 767.437 431.123, 743.719 416.456 C 741.090 414.830, 737.315 412.262, 735.332 410.750 C 733.348 409.238, 731.294 408, 730.767 408 C 730.240 408, 728.394 406.988, 726.666 405.750 C 722.827 403.002, 714.592 398.563, 702 392.456 C 696.775 389.921, 691.825 387.429, 691 386.917 C 690.175 386.406, 688.825 385.720, 688 385.392 C 687.175 385.065, 682 382.988, 676.500 380.776 C 662.487 375.141, 654.235 372.048, 649 370.471 C 646.525 369.726, 641.800 368.247, 638.500 367.185 C 615.691 359.847, 592.680 354.453, 569.500 351.012 C 562.900 350.033, 554.800 348.732, 551.500 348.121 C 537.636 345.556, 482.752 344.452, 450 346.079 M 455.246 376.044 C 450.157 376.461, 443.857 377.282, 441.246 377.867 C 438.636 378.453, 432.225 379.408, 427 379.989 C 414.019 381.433, 388.828 387.402, 376.500 391.955 C 373.750 392.971, 370.600 394.036, 369.500 394.322 C 360.842 396.571, 336.678 409.016, 324.444 417.527 C 313.924 424.846, 312.732 426.080, 313.173 429.194 C 313.459 431.209, 314.251 431.588, 319.500 432.215 C 326.196 433.016, 348.731 437.103, 362.500 440.015 C 367.450 441.062, 373.750 442.193, 376.500 442.528 C 379.250 442.863, 383.975 443.763, 387 444.527 C 390.025 445.291, 396.550 446.564, 401.500 447.356 C 411.072 448.887, 421.568 450.853, 437 454.005 C 442.225 455.072, 448.525 456.209, 451 456.532 C 453.475 456.854, 459.775 457.980, 465 459.033 C 488.224 463.713, 496.960 465.332, 503.500 466.170 C 507.350 466.662, 514.100 468.024, 518.500 469.194 C 524.858 470.886, 527.270 472.086, 530.250 475.044 C 533.786 478.553, 534 479.121, 534 485.014 C 534 491.059, 533.857 491.406, 529.632 495.632 C 525.467 499.796, 524.989 500, 519.382 500.007 C 516.147 500.011, 509.450 499.146, 504.500 498.086 C 499.550 497.025, 488.750 494.953, 480.500 493.481 C 472.250 492.009, 462.125 490.150, 458 489.350 C 453.875 488.550, 445.436 487.053, 439.247 486.024 C 433.057 484.995, 426.532 483.689, 424.747 483.122 C 422.961 482.554, 417.745 481.593, 413.156 480.984 C 408.566 480.376, 403.637 479.432, 402.201 478.886 C 400.765 478.340, 394.878 477.232, 389.120 476.424 C 383.361 475.615, 376.366 474.327, 373.575 473.561 C 370.784 472.796, 366.025 471.898, 363 471.566 C 359.975 471.235, 353.450 470.088, 348.500 469.019 C 336.575 466.442, 324.611 464.216, 313 462.414 C 307.775 461.603, 301.085 460.251, 298.133 459.408 C 295.181 458.565, 292.162 458.108, 291.423 458.391 C 290.685 458.674, 288.888 461.262, 287.429 464.140 C 284.538 469.846, 283.344 478.138, 284.400 485.179 L 285.058 489.568 294.779 491.822 C 300.126 493.062, 308.921 494.728, 314.324 495.525 C 319.727 496.321, 324.504 497.193, 324.939 497.462 C 325.374 497.731, 331.078 498.838, 337.615 499.923 C 344.152 501.008, 352.875 502.550, 357 503.350 C 361.125 504.150, 371.250 505.993, 379.500 507.446 C 387.750 508.899, 398.550 510.940, 403.500 511.980 C 408.450 513.021, 414.300 514.157, 416.500 514.504 C 422.388 515.432, 427.415 519.160, 430.011 524.522 C 431.991 528.614, 432.124 529.644, 431.104 533.046 C 430.467 535.175, 428.380 538.575, 426.467 540.603 L 422.990 544.291 410.745 543.710 C 404.010 543.391, 395.939 542.439, 392.809 541.593 C 389.678 540.748, 382.928 539.394, 377.809 538.584 C 367.503 536.954, 356.600 534.951, 341.500 531.912 C 336 530.806, 327.450 529.254, 322.500 528.463 C 317.550 527.673, 310.575 526.354, 307 525.534 C 299.393 523.788, 297.047 523.681, 295 524.989 C 293.714 525.811, 293.913 526.700, 296.399 531.224 C 304.800 546.514, 322.120 565.395, 342.144 581.090 C 349.098 586.540, 355.077 591, 355.431 591 C 355.785 591, 359.278 593.250, 363.194 596 C 367.110 598.750, 370.770 601, 371.328 601 C 371.886 601, 373.067 601.656, 373.952 602.457 C 375.872 604.194, 406.935 620, 408.430 620 C 409.001 620, 411.725 621.101, 414.484 622.447 C 424.268 627.221, 454.083 637.501, 470.750 641.848 C 475.288 643.032, 482.488 644.921, 486.750 646.047 C 491.012 647.172, 497.270 648.482, 500.655 648.957 C 504.040 649.432, 510.115 650.534, 514.155 651.405 C 552.151 659.597, 620.052 660.084, 662.500 652.470 C 673.990 650.408, 686.643 647.552, 693 645.585 C 715.182 638.721, 717.955 637.677, 720.125 635.367 C 722.088 633.277, 722.219 632.750, 720.974 631.963 C 720.163 631.450, 718.825 631.020, 718 631.007 C 717.175 630.994, 712.469 630.522, 707.542 629.957 C 687.454 627.656, 671.917 620.493, 659.136 607.640 C 650.368 598.823, 648.048 595.575, 643.072 585.160 C 634.806 567.854, 634.808 542.116, 643.079 524.840 C 648.371 513.786, 650.749 510.537, 660.338 501.260 C 667.757 494.083, 671.446 491.358, 678.101 488.140 C 682.720 485.907, 688.975 483.525, 692 482.847 C 700.360 480.975, 725.887 481.196, 735.500 483.223 C 739.900 484.151, 746.200 485.201, 749.500 485.556 C 752.800 485.911, 759.492 487.069, 764.370 488.130 C 773.099 490.028, 777 489.919, 777 487.779 C 777 487.181, 769.913 479.650, 761.250 471.043 C 743.441 453.347, 731.257 444.174, 706.533 429.845 C 697.646 424.695, 688.944 420.243, 675.747 414.094 C 667.744 410.365, 662.693 408.335, 653 404.950 C 651.075 404.278, 647.475 402.900, 645 401.888 C 626.314 394.245, 576.023 382.202, 553.500 379.976 C 547.450 379.378, 540.636 378.473, 538.358 377.964 C 527.357 375.509, 476.188 374.327, 455.246 376.044 M 699.500 513.338 C 695.650 514.634, 690.589 516.707, 688.254 517.946 C 682.788 520.845, 675.605 528.858, 671.908 536.182 C 669.131 541.683, 669 542.545, 669 555.254 C 669 568.537, 669.008 568.580, 672.489 575.135 C 676.275 582.266, 683.439 589.656, 689.608 592.795 C 696.148 596.122, 706.398 598.848, 718.738 600.542 C 725.207 601.430, 733.425 602.760, 737 603.497 C 744.792 605.102, 762.376 607.401, 766.327 607.330 C 771.946 607.229, 786.665 589.719, 792.995 575.604 C 797.452 565.667, 798.469 559.770, 798.369 544.425 C 798.262 528.098, 797.265 524.669, 792.493 524.215 C 790.847 524.059, 786.472 523.268, 782.771 522.458 C 779.071 521.648, 772.546 520.521, 768.271 519.952 C 763.997 519.384, 755.550 518.064, 749.500 517.018 C 711.925 510.525, 708.589 510.280, 699.500 513.338 M 1004 527.300 C 1003.725 527.585, 991.575 528.331, 977 528.958 C 962.425 529.586, 946.900 530.511, 942.500 531.015 C 938.100 531.518, 925.050 532.433, 913.500 533.047 C 890.482 534.271, 888.077 534.870, 883.006 540.646 C 880.460 543.546, 880 544.894, 880 549.458 C 880 558.936, 886.683 564.417, 898 564.221 C 913.916 563.945, 952.815 561.822, 966.500 560.483 C 974.750 559.676, 989.313 558.613, 998.861 558.120 C 1013.486 557.366, 1016.638 556.922, 1018.861 555.304 C 1022.102 552.945, 1026 545.559, 1026 541.777 C 1026 537.512, 1022.263 530.441, 1019.293 529.088 C 1016.481 527.806, 1004.827 526.444, 1004 527.300 M 298.603 588.250 C 298.419 588.938, 296.183 595.847, 293.634 603.603 C 291.085 611.360, 289 618.258, 289 618.933 C 289 619.607, 287.956 622.936, 286.681 626.329 C 285.405 629.723, 283.152 636.325, 281.675 641 C 280.197 645.675, 277.036 655.575, 274.649 663 C 272.262 670.425, 267.720 684.600, 264.557 694.500 C 261.393 704.400, 257.948 714.698, 256.902 717.383 C 255.856 720.069, 255 723.047, 255 724 C 255 724.953, 254.142 727.931, 253.093 730.617 C 252.044 733.302, 249.763 740.225, 248.025 746 C 246.286 751.775, 244.016 758.750, 242.979 761.500 C 241.942 764.250, 240.790 767.850, 240.419 769.500 C 240.048 771.150, 238.973 774.525, 238.031 777 C 237.089 779.475, 235.083 785.550, 233.572 790.500 C 232.061 795.450, 230.381 800.850, 229.837 802.500 C 226.354 813.078, 221.319 828.682, 216.931 842.500 C 214.137 851.300, 210.757 861.650, 209.421 865.500 C 207.337 871.503, 206.991 874.324, 206.995 885.300 C 207 896.982, 207.240 898.679, 209.750 904.735 C 213.757 914.402, 225.032 926.173, 234.500 930.570 C 242.432 934.255, 252.136 937, 257.232 937 C 261.591 937, 278.618 931.927, 282.536 929.461 C 289.687 924.960, 298.730 915.340, 302.237 908.500 C 304.033 904.998, 312 881.760, 312 880.023 C 312 879.373, 313.056 876.064, 314.347 872.671 C 315.638 869.277, 317.947 862.225, 319.478 857 C 321.009 851.775, 323.084 845.250, 324.090 842.500 C 330.009 826.317, 331.356 821.134, 330.049 819.559 C 329.337 818.702, 327.971 818, 327.012 818 C 322.601 818, 311.065 810.812, 304.776 804.145 C 296.923 795.821, 293.772 789.716, 290.890 777.247 L 288.681 767.688 290.988 758.094 C 292.256 752.817, 294.673 745.862, 296.358 742.638 C 300.466 734.781, 311.251 724.991, 320.788 720.461 L 328.076 717 342.916 717 C 354.886 717, 357.996 717.290, 359 718.500 C 361.876 721.966, 365.914 718.994, 372.193 708.792 C 375.781 702.961, 388.990 688.938, 397.900 681.500 C 405.015 675.560, 406.568 674.495, 417.090 668.331 C 426.151 663.023, 427.265 662.025, 425.929 660.414 C 425.283 659.637, 423.940 659, 422.943 659 C 421.947 659, 418.290 657.828, 414.816 656.395 C 401.662 650.971, 394.450 647.842, 393 646.930 C 392.175 646.412, 390.825 645.754, 390 645.470 C 389.175 645.185, 382.456 641.926, 375.069 638.226 C 351.422 626.385, 326.820 609.897, 308.840 593.840 C 301.157 586.980, 299.225 585.925, 298.603 588.250 M 865.907 637.325 C 856.943 642.054, 854.562 652.184, 860.646 659.702 C 863.506 663.235, 869.771 667.180, 886 675.667 C 890.675 678.112, 895.175 680.500, 896 680.974 C 896.825 681.449, 899.975 683.062, 903 684.559 C 910.285 688.164, 921.125 693.824, 923 695.001 C 923.825 695.519, 928.100 697.832, 932.500 700.141 C 936.900 702.451, 941.625 704.936, 943 705.664 C 946.989 707.776, 954.203 707.338, 958.043 704.750 C 962.743 701.582, 966.432 694.114, 965.568 689.513 C 964.802 685.428, 960.084 679.612, 955.695 677.343 C 954.041 676.487, 952.196 675.382, 951.594 674.887 C 950.992 674.392, 944.200 670.779, 936.500 666.858 C 928.800 662.937, 913.106 654.800, 901.624 648.776 C 882.006 638.482, 874.399 635, 871.532 635 C 870.862 635, 868.331 636.046, 865.907 637.325 M 782.694 709.979 C 776.506 713.904, 773.792 718.282, 774.315 723.500 C 774.535 725.700, 776.100 732.450, 777.794 738.500 C 779.487 744.550, 781.407 751.525, 782.061 754 C 784.772 764.260, 787.941 775.985, 790.034 783.500 C 791.260 787.900, 792.594 793.075, 793 795 C 794.045 799.959, 797.648 812.838, 801.185 824.263 C 803.731 832.485, 804.779 834.496, 807.828 837.009 C 813.277 841.501, 817.305 841.878, 823.757 838.500 C 826.840 836.886, 829.717 834.515, 830.552 832.900 C 832.648 828.846, 832.336 821.706, 829.638 812 C 828.338 807.325, 826.751 801.475, 826.111 799 C 825.472 796.525, 823.852 790.450, 822.513 785.500 C 821.173 780.550, 819.553 774.475, 818.914 772 C 818.274 769.525, 816.716 763.675, 815.453 759 C 814.189 754.325, 812.426 747.800, 811.535 744.500 C 810.644 741.200, 808.825 734.293, 807.494 729.150 C 804.347 716.995, 801.063 711.386, 795.654 708.930 C 790.003 706.364, 788.159 706.513, 782.694 709.979 M 333.495 748.842 C 328.450 751.229, 327.052 752.489, 324.745 756.727 C 322.531 760.795, 322 763.059, 322 768.435 C 322 775.927, 323.236 778.969, 328.230 783.767 C 333.406 788.740, 340.965 790.248, 349.219 787.956 C 360.796 784.741, 366.857 770.219, 361.184 759.288 C 358.350 753.828, 355.639 751.299, 349.500 748.389 C 343.047 745.331, 340.782 745.395, 333.495 748.842 M 1477.401 906.905 C 1472.255 909.243, 1471.379 910.535, 1460.048 932.500 C 1454.941 942.400, 1449.992 951.400, 1449.051 952.500 C 1448.110 953.600, 1444.762 959, 1441.611 964.500 C 1428.070 988.133, 1402.287 1024.291, 1381.848 1048.310 C 1377.256 1053.705, 1371.540 1060.891, 1369.144 1064.279 C 1365.184 1069.878, 1364.829 1070.864, 1365.238 1075.123 C 1365.866 1081.658, 1369.108 1085.387, 1376.351 1087.904 C 1382.115 1089.907, 1382.257 1089.909, 1385.851 1088.049 C 1391.180 1085.292, 1402.842 1072.514, 1419.664 1051 C 1434.427 1032.119, 1457 1000.177, 1457 998.168 C 1457 997.660, 1457.709 996.656, 1458.576 995.937 C 1459.443 995.218, 1461.937 991.377, 1464.119 987.402 C 1466.300 983.427, 1468.741 979.630, 1469.543 978.965 C 1470.344 978.299, 1471 977.196, 1471 976.512 C 1471 975.829, 1471.856 974.182, 1472.902 972.852 C 1474.942 970.258, 1486.190 950.107, 1489.285 943.500 C 1490.316 941.300, 1491.560 938.825, 1492.050 938 C 1496.777 930.041, 1499.190 923.451, 1498.704 919.831 C 1498.016 914.701, 1494.097 909.710, 1488.711 907.102 C 1483.445 904.553, 1482.613 904.538, 1477.401 906.905 M 1292.245 1142.182 C 1289.905 1143.393, 1281.760 1149.585, 1274.145 1155.942 C 1258.187 1169.263, 1228.725 1192.324, 1218.500 1199.499 C 1214.650 1202.200, 1209.654 1205.893, 1207.397 1207.705 C 1205.140 1209.517, 1202.932 1211, 1202.489 1211 C 1202.047 1211, 1199.393 1212.754, 1196.592 1214.898 C 1191.311 1218.941, 1168.088 1234.222, 1159.711 1239.167 C 1157.077 1240.722, 1154.377 1242.461, 1153.711 1243.031 C 1152.559 1244.017, 1147.200 1247.313, 1135 1254.538 C 1116.644 1265.408, 1072.481 1289.309, 1055 1297.832 C 1020.505 1314.652, 1015.536 1317.004, 1014.516 1317.002 C 1013.975 1317.001, 1011.275 1318.083, 1008.516 1319.407 C 1003.215 1321.952, 995.354 1325.299, 985.604 1329.163 C 973.194 1334.081, 965.537 1338.444, 963.250 1341.898 C 958.570 1348.965, 961.315 1358.066, 969.530 1362.718 C 974.375 1365.463, 978.240 1365.541, 983.500 1363 C 985.700 1361.937, 987.953 1361.053, 988.507 1361.034 C 989.706 1360.994, 1003.135 1355.646, 1015 1350.485 C 1019.675 1348.451, 1024.499 1346.560, 1025.719 1346.283 C 1026.940 1346.006, 1028.458 1345.153, 1029.092 1344.389 C 1029.726 1343.625, 1030.744 1343, 1031.353 1343 C 1035.049 1343, 1131.876 1293.907, 1134 1290.957 C 1134.275 1290.575, 1136.750 1289.076, 1139.500 1287.626 C 1142.250 1286.176, 1147.281 1283.304, 1150.679 1281.245 C 1173.468 1267.434, 1181.052 1262.642, 1182.078 1261.406 C 1182.720 1260.633, 1183.752 1259.992, 1184.372 1259.982 C 1185.426 1259.965, 1192.983 1255.318, 1195.729 1252.999 C 1196.405 1252.428, 1202.705 1248.144, 1209.729 1243.480 C 1244.747 1220.225, 1306.007 1171.956, 1311.098 1163.607 C 1315.149 1156.964, 1312.591 1147.591, 1305.620 1143.534 C 1299.418 1139.925, 1297.064 1139.687, 1292.245 1142.182" stroke="none" fill="#050505" fill-rule="evenodd"/></svg>