<svg xmlns="http://www.w3.org/2000/svg" width="2000" height="2000" viewBox="0 0 2000 2000" version="1.1"><path d="M 661.500 115.591 C 659.300 115.787, 650.750 116.452, 642.500 117.067 C 616.102 119.036, 566.603 129.399, 555.300 135.323 C 553.539 136.245, 551.599 137, 550.988 137 C 549.929 137, 540.548 141.009, 536.677 143.116 C 535.674 143.662, 532.974 145.076, 530.677 146.258 C 528.379 147.440, 524.077 150.003, 521.115 151.953 C 518.153 153.904, 515.003 155.950, 514.115 156.500 C 501.737 164.164, 469.063 196.217, 460 209.586 C 443.625 233.742, 439.224 241.830, 433.656 258 C 420.356 296.622, 416.577 346.125, 423.596 389.750 C 425.529 401.759, 425.718 401.329, 416.155 406.607 C 380.754 426.143, 353.702 445.519, 323.684 472.837 C 306.540 488.438, 280.697 516.529, 268.497 532.825 C 261.418 542.280, 254.800 551.471, 250.552 557.750 C 247.854 561.737, 245.276 565, 244.823 565 C 244.371 565, 244 565.540, 244 566.201 C 244 566.861, 240.738 572.821, 236.750 579.445 C 229.526 591.444, 223.949 601.452, 219.724 610 C 218.501 612.475, 217.265 614.725, 216.978 615 C 213.056 618.757, 185.798 691.839, 183.410 705 C 183.061 706.925, 181.962 711.425, 180.968 715 C 177.960 725.819, 173.895 745.847, 172.967 754.419 C 172.486 758.864, 171.647 763.983, 171.102 765.797 C 166.983 779.521, 164.863 853.426, 167.799 881 C 171.072 911.743, 181.245 954.666, 195.056 996 C 215.635 1057.593, 219.378 1061.174, 226.409 1025.992 C 228.332 1016.371, 231.020 1005.350, 232.383 1001.500 C 235.640 992.302, 239.372 983.472, 240.699 981.822 C 241.284 981.095, 242.966 978.103, 244.437 975.173 C 251.715 960.677, 263.175 945.481, 282.198 925.103 C 297.752 908.441, 302.819 903.849, 331.412 880.500 C 339.409 873.969, 361.822 856.383, 371.603 848.964 C 376.609 845.167, 381.328 841.310, 382.088 840.394 C 383.289 838.946, 387.483 835.885, 392.900 832.500 C 393.780 831.950, 396.330 829.925, 398.567 828 C 400.805 826.075, 407.949 820.225, 414.443 815 C 475.089 766.209, 519.161 714.786, 539.570 669 C 540.429 667.075, 542.181 663.250, 543.465 660.500 C 554.515 636.827, 556.336 627.892, 551.165 622.720 C 548.196 619.752, 546.613 621.456, 540.688 634 C 527.256 662.435, 500.998 701.586, 482.574 720.646 C 468.303 735.409, 462.878 740.789, 454.893 748.095 C 442.591 759.351, 422.215 776.993, 417.351 780.600 C 415.233 782.170, 410.800 785.755, 407.500 788.567 C 404.200 791.379, 396.550 797.403, 390.500 801.954 C 384.450 806.505, 378.150 811.446, 376.500 812.934 C 374.850 814.422, 372.150 816.478, 370.500 817.502 C 368.850 818.526, 364.258 821.870, 360.296 824.932 C 356.333 827.994, 350.567 832.300, 347.482 834.500 C 344.396 836.700, 339.656 840.300, 336.949 842.500 C 334.241 844.700, 328.863 848.975, 324.997 852 C 266.965 897.414, 230.796 944.426, 217.876 991.233 C 216.773 995.230, 215.498 998.879, 215.043 999.342 C 213.316 1001.100, 194.881 945.078, 192.719 931.500 C 192.456 929.850, 191.248 924.676, 190.034 920.003 C 171.653 849.251, 180.141 753.318, 211.712 675 C 218.198 658.909, 231.546 629.955, 234.486 625.599 C 235.636 623.894, 238.413 619.088, 240.656 614.919 C 242.899 610.749, 246.820 604.173, 249.367 600.306 C 251.915 596.439, 254 592.992, 254 592.646 C 254 592.106, 255.556 589.912, 262.315 580.925 C 262.967 580.058, 264.032 578.426, 264.681 577.298 C 280.266 550.238, 335.597 494.276, 370.868 469.901 C 374.370 467.480, 378.870 464.270, 380.868 462.767 C 382.866 461.264, 385.175 459.735, 386 459.368 C 386.825 459.002, 388.400 457.944, 389.500 457.019 C 396.468 451.154, 445.722 424.890, 461.676 418.532 C 559.477 379.559, 684.090 372.542, 773.500 400.974 C 776.800 402.023, 781.075 403.185, 783 403.556 C 784.925 403.927, 786.950 404.586, 787.500 405.021 C 788.050 405.455, 791.200 406.551, 794.500 407.455 C 797.800 408.359, 801.831 409.832, 803.459 410.729 C 805.086 411.626, 808.686 412.920, 811.459 413.605 C 825.405 417.052, 878.619 444.084, 899.884 458.523 C 902.295 460.160, 905.951 462.625, 908.009 464 C 915.702 469.139, 917.686 470.559, 925.250 476.333 C 929.513 479.587, 933 482.644, 933 483.125 C 933 483.606, 933.470 484, 934.044 484 C 942.003 484, 1005.019 550.831, 1024.564 580 C 1025.853 581.925, 1029.234 586.875, 1032.075 591 C 1034.917 595.125, 1038.261 600.300, 1039.506 602.500 C 1057.513 634.322, 1066.995 653.284, 1074.257 672 C 1079.439 685.355, 1083.132 695.400, 1084.552 700 C 1110.892 785.375, 1115.081 852.234, 1099.463 938.010 C 1094.567 964.897, 1094.567 964.900, 1096.025 970.151 C 1098.455 978.898, 1103.201 975.830, 1105.909 963.760 C 1130.179 855.576, 1122.769 747.814, 1084.344 650.153 C 1077.184 631.956, 1053.592 584.221, 1049.944 580.550 C 1049.425 580.027, 1049 579.019, 1049 578.309 C 1049 577.598, 1047.365 574.876, 1045.366 572.259 C 1043.367 569.641, 1041.005 565.925, 1040.116 564 C 1039.227 562.075, 1038.253 560.275, 1037.952 560 C 1037.650 559.725, 1036.328 557.925, 1035.014 556 C 1033.700 554.075, 1030.571 549.952, 1028.062 546.838 C 1025.553 543.724, 1021.981 538.663, 1020.125 535.592 C 1018.269 532.521, 1015.263 529.090, 1013.446 527.967 C 1011.519 526.776, 1009.198 523.960, 1007.879 521.212 C 1005.203 515.641, 964.726 474.108, 950.500 462.338 C 945.550 458.242, 940.150 453.772, 938.500 452.404 C 936.850 451.036, 932.800 447.871, 929.500 445.372 C 926.200 442.872, 923.350 440.415, 923.167 439.913 C 922.983 439.411, 922.370 439, 921.804 439 C 921.238 439, 919.363 437.845, 917.637 436.433 C 914.993 434.269, 908.500 430.032, 886.720 416.258 C 883.224 414.047, 883.344 414.760, 882.070 388.500 C 875.940 262.166, 844.975 190.118, 777.500 145.188 C 772 141.525, 767.350 138.185, 767.167 137.764 C 766.983 137.344, 766.312 137, 765.676 137 C 765.039 137, 761.364 135.449, 757.509 133.553 C 748.378 129.062, 729.194 122.028, 726 122 C 724.625 121.988, 721.250 121.293, 718.500 120.455 C 709.354 117.669, 672.972 114.564, 661.500 115.591 M 657.500 159.011 C 645.144 159.817, 636.815 160.968, 616.500 164.678 C 596.240 168.379, 581.087 172.294, 562 178.760 C 555.047 181.116, 536 190.190, 536 191.147 C 536 191.616, 535.484 192, 534.854 192 C 528.535 192, 484.993 230.354, 472.969 246.510 C 470.517 249.805, 468.216 252.725, 467.855 253 C 466.980 253.666, 460 264.063, 460 264.700 C 460 264.974, 458.440 267.741, 456.533 270.849 C 444.798 289.974, 440.775 309.453, 440.244 349.721 C 439.690 391.798, 440.390 394.827, 449.611 390.240 C 455.035 387.542, 463.212 384.144, 480 377.612 C 498.395 370.456, 534.462 360.230, 547.500 358.474 C 550.250 358.104, 554.750 357.187, 557.500 356.436 C 560.250 355.686, 568.575 354.364, 576 353.499 C 583.425 352.634, 592.650 351.513, 596.500 351.007 C 619.391 347.999, 668.512 348.027, 691 351.060 C 695.125 351.616, 704.125 352.734, 711 353.544 C 717.875 354.354, 725.750 355.648, 728.500 356.420 C 731.250 357.193, 735.778 358.120, 738.562 358.480 C 746.995 359.573, 783.571 369.439, 799 374.784 C 813.499 379.806, 825.410 384.820, 844.833 394.076 C 850.516 396.784, 855.804 399, 856.583 399 C 857.362 399, 858 399.406, 858 399.902 C 858 400.888, 864.054 403.279, 864.761 402.572 C 865.430 401.904, 862.084 357.809, 860.506 346.500 C 859.739 341, 858.389 331.325, 857.505 325 C 856.622 318.675, 855.283 311.250, 854.528 308.500 C 853.774 305.750, 852.664 300.732, 852.060 297.350 C 847.994 274.560, 835.855 248.548, 819.462 227.500 C 804.130 207.813, 766.977 177, 758.572 177 C 757.707 177, 757 176.584, 757 176.076 C 757 174.773, 738.330 167.656, 727 164.639 C 708.557 159.729, 680.885 157.488, 657.500 159.011 M 719 562 C 712.957 568.043, 720.520 601.437, 730.766 613.953 C 732.177 615.676, 739.628 624.670, 742.079 627.607 C 744.828 630.904, 759.686 643.110, 766.725 647.855 C 774.127 652.845, 775.070 653.376, 799.676 666.414 C 808.929 671.317, 819.650 677.123, 823.500 679.317 C 827.350 681.510, 832.525 684.400, 835 685.739 C 837.475 687.078, 843.463 690.497, 848.306 693.337 C 860.616 700.554, 862.675 701.779, 872.949 708 C 877.944 711.025, 883.561 714.400, 885.430 715.500 C 887.298 716.600, 891.454 719.262, 894.664 721.416 C 897.874 723.570, 904.922 728.295, 910.327 731.916 C 919.930 738.350, 923.284 740.669, 929.615 745.247 C 931.328 746.486, 935.153 749.204, 938.115 751.286 C 950.269 759.831, 954.319 763.020, 967.110 774.114 C 991.071 794.896, 1029 835.392, 1029 840.194 C 1029 840.683, 1029.787 841.943, 1030.750 842.994 C 1031.713 844.044, 1033.989 847.963, 1035.810 851.702 C 1037.630 855.441, 1039.961 860.110, 1040.990 862.078 C 1042.019 864.045, 1043.779 868.266, 1044.900 871.457 C 1047.866 879.895, 1049.619 882.274, 1051.949 881.027 C 1057.071 878.286, 1056.165 852.750, 1050.512 840.500 C 1049.750 838.850, 1047.777 834.473, 1046.127 830.773 C 1044.477 827.073, 1041.073 820.871, 1038.563 816.992 C 1036.053 813.112, 1034 809.580, 1034 809.143 C 1034 808.706, 1032.875 807.292, 1031.500 806 C 1030.125 804.708, 1029 803.219, 1029 802.690 C 1029 801.818, 1025.034 797.297, 1008.652 779.500 C 1001.554 771.789, 1002.647 772.868, 991.832 762.895 C 983.352 755.076, 970.380 743.892, 964 738.898 C 950.647 728.447, 944.913 724.052, 941.302 721.500 C 938.967 719.850, 933.332 715.831, 928.778 712.570 C 919.402 705.853, 902.072 694.176, 893.945 689.098 C 890.950 687.227, 886.156 684.178, 883.290 682.322 C 875.102 677.017, 845.715 660, 844.743 660 C 844.261 660, 842.434 658.938, 840.683 657.640 C 838.932 656.342, 828.500 650.613, 817.500 644.908 C 806.500 639.203, 794.800 633.064, 791.500 631.266 C 788.200 629.468, 783.925 627.193, 782 626.211 C 754.998 612.439, 731.240 587.420, 726.939 568.228 C 725.242 560.656, 722.497 558.503, 719 562 M 650.622 570.178 C 646.654 574.146, 646.424 575.643, 645.545 603.264 C 645.252 612.485, 644.366 623.285, 643.577 627.264 C 642.788 631.244, 641.834 636.479, 641.458 638.898 C 641.082 641.317, 640.161 644.764, 639.412 646.557 C 638.662 648.350, 637.580 651.996, 637.007 654.659 C 636.434 657.321, 635.542 660.400, 635.024 661.500 C 634.507 662.600, 632.458 668, 630.472 673.500 C 623.306 693.342, 607.397 723.667, 596.656 737.958 C 573.240 769.112, 546.586 792.704, 448.042 869.500 C 387.012 917.061, 342.737 955.631, 312.919 987.213 C 299.490 1001.436, 282.820 1020.267, 280.041 1024.354 C 279.238 1025.534, 276.948 1028.525, 274.951 1031 C 272.954 1033.475, 267.786 1040.450, 263.467 1046.500 C 259.147 1052.550, 255.250 1057.650, 254.806 1057.833 C 254.363 1058.017, 254 1058.607, 254 1059.145 C 254 1059.684, 251.107 1064.997, 247.572 1070.953 C 244.037 1076.909, 239.983 1083.969, 238.563 1086.641 C 237.144 1089.314, 235.586 1092.175, 235.102 1093 C 232.992 1096.596, 225.783 1113.358, 222.200 1123 C 199.401 1184.348, 196.256 1251.802, 217.009 1234.339 C 221.631 1230.450, 222.094 1228.412, 223.111 1207.500 C 225.194 1164.662, 234.560 1133.205, 257.649 1091.500 C 263.929 1080.157, 278.920 1057.577, 285.201 1050 C 286.797 1048.075, 290.320 1043.626, 293.029 1040.113 C 317.028 1009.004, 372.610 955.951, 420.963 918 C 424.116 915.525, 431.602 909.571, 437.598 904.768 C 443.594 899.966, 452.682 892.766, 457.794 888.768 C 462.906 884.771, 471.681 877.873, 477.294 873.441 C 482.907 869.008, 492.675 861.379, 499 856.488 C 505.325 851.596, 512.300 846.122, 514.500 844.324 C 572.705 796.751, 595.882 774.010, 614.713 746 C 617.486 741.875, 621.947 734.675, 624.625 730 C 627.303 725.325, 629.833 721.350, 630.247 721.167 C 630.661 720.983, 631 720.034, 631 719.056 C 631 718.079, 632.125 715.621, 633.500 713.595 C 634.875 711.569, 636 709.564, 636 709.140 C 636 708.716, 638.652 702.548, 641.894 695.434 C 645.135 688.320, 650.045 675.975, 652.803 668 C 659.608 648.328, 658.952 649.715, 660.748 651.206 C 661.581 651.897, 664.982 656.071, 668.306 660.481 C 671.630 664.892, 679.108 673.379, 684.925 679.341 C 703.988 698.884, 725.862 717.275, 750.527 734.500 C 753.678 736.700, 758.335 739.973, 760.878 741.774 C 768.230 746.982, 789.897 760.998, 804.500 769.993 C 808.350 772.364, 811.650 774.686, 811.833 775.152 C 812.017 775.618, 812.713 776, 813.380 776 C 814.048 776, 817.688 778.032, 821.470 780.516 C 825.252 783, 830.293 786.005, 832.673 787.194 C 835.053 788.382, 837 789.725, 837 790.177 C 837 790.630, 837.514 791, 838.142 791 C 839.492 791, 857.349 802.078, 857.833 803.217 C 858.017 803.648, 858.722 804, 859.400 804 C 860.797 804, 891.600 824.615, 896.982 829.153 C 898.917 830.784, 904.100 834.770, 908.500 838.011 C 956.119 873.081, 1029.416 948.158, 1050.538 983.500 C 1053.168 987.900, 1056.020 992.318, 1056.876 993.318 C 1059.109 995.926, 1062.373 1001.522, 1066.022 1009 C 1067.766 1012.575, 1069.596 1016.175, 1070.087 1017 C 1072.122 1020.417, 1082.467 1041.940, 1084.747 1047.500 C 1098.984 1082.217, 1106.231 1107.014, 1109.505 1132.202 C 1111.475 1147.361, 1116.305 1152.481, 1123.385 1146.912 C 1130.979 1140.938, 1130.950 1127.534, 1123.277 1096.688 C 1121.155 1088.159, 1121.582 1087.770, 1132.512 1088.259 C 1143.869 1088.766, 1157.357 1096.655, 1164.475 1106.952 C 1169.490 1114.208, 1168.492 1132.607, 1162.003 1152.500 C 1159.856 1159.084, 1147.803 1194.705, 1146.101 1199.500 C 1145.515 1201.150, 1142.499 1209.925, 1139.400 1219 C 1123.427 1265.760, 1104.057 1288.635, 1073.242 1297.126 C 1057.828 1301.373, 1057.522 1300.762, 1061.405 1273.513 C 1066.779 1235.798, 1068.154 1225.174, 1069.011 1214.748 C 1069.497 1208.834, 1070.806 1196.909, 1071.919 1188.248 C 1077.608 1144.002, 1077.898 1139.727, 1075.443 1136.223 C 1071.664 1130.827, 1062.043 1138.262, 1060.203 1148 C 1058.753 1155.679, 1054.900 1187.485, 1053.966 1199.500 C 1053.538 1205, 1052.710 1212.200, 1052.127 1215.500 C 1051.543 1218.800, 1050.349 1228.250, 1049.474 1236.500 C 1042.561 1301.656, 1030.138 1358.922, 1016.499 1388.500 C 984.894 1457.041, 948.194 1498.010, 843.840 1581.238 C 812.855 1605.950, 789.278 1625.277, 781 1632.750 C 778.411 1635.087, 775.953 1637, 775.538 1637 C 775.123 1637, 772.020 1639.159, 768.642 1641.799 C 765.264 1644.438, 761.375 1647.349, 760 1648.268 C 758.625 1649.187, 755.700 1651.271, 753.500 1652.899 C 743.385 1660.386, 717.957 1674.329, 704.500 1679.768 C 676.649 1691.025, 643.647 1690.550, 616.500 1678.500 C 609.632 1675.452, 601.522 1671.523, 601 1670.990 C 600.725 1670.710, 598.708 1669.585, 596.517 1668.490 C 594.327 1667.396, 589.377 1664.488, 585.517 1662.028 C 581.658 1659.568, 577.772 1657.093, 576.882 1656.528 C 573.217 1654.199, 568.922 1651.116, 558.067 1643.024 C 551.778 1638.336, 544.909 1633.269, 542.803 1631.765 C 540.696 1630.260, 533.753 1624.635, 527.375 1619.265 C 520.997 1613.894, 514.816 1608.827, 513.639 1608.005 C 512.463 1607.183, 506.495 1602.458, 500.377 1597.505 C 465.920 1569.609, 460.074 1565.084, 458.423 1565.033 C 456.540 1564.975, 441.944 1580.697, 442.537 1582.145 C 442.842 1582.890, 449.233 1588.450, 456.739 1594.500 C 464.245 1600.550, 473.396 1607.975, 477.074 1611 C 480.751 1614.025, 488.383 1620.100, 494.033 1624.500 C 499.682 1628.900, 507.100 1634.839, 510.517 1637.698 C 513.934 1640.556, 519.859 1645.281, 523.686 1648.198 C 527.512 1651.114, 534.434 1656.425, 539.069 1660 C 606.884 1712.311, 656.469 1723.103, 711.482 1697.526 C 719.426 1693.833, 726.566 1689.966, 739.050 1682.596 C 743.336 1680.066, 754.724 1672.580, 757.500 1670.468 C 758.600 1669.631, 767.825 1662.628, 778 1654.907 C 788.175 1647.185, 800.775 1637.299, 806 1632.938 C 811.225 1628.577, 817.075 1623.771, 819 1622.258 C 820.925 1620.746, 826.703 1616.131, 831.841 1612.004 C 836.978 1607.877, 842.603 1603.388, 844.341 1602.029 C 846.078 1600.670, 851.699 1596.170, 856.832 1592.029 C 861.964 1587.888, 867.589 1583.381, 869.332 1582.013 C 877.735 1575.415, 893.682 1562.116, 904.500 1552.684 C 911.911 1546.221, 916.748 1542.656, 917.149 1543.360 C 917.506 1543.987, 918.030 1569.700, 918.315 1600.500 C 918.674 1639.360, 919.317 1662.009, 920.415 1674.500 C 921.286 1684.400, 922.446 1699.025, 922.993 1707 C 924.203 1724.645, 928.977 1762.197, 933.032 1785.964 C 938.128 1815.835, 939.002 1820.423, 940.069 1822.909 C 940.637 1824.235, 941.787 1828.930, 942.625 1833.344 C 948.019 1861.779, 966.734 1909, 972.610 1909 C 984.341 1909, 987.275 1896.492, 979.532 1879.500 C 950.753 1816.349, 934.469 1692.910, 936.179 1550.871 L 936.500 1524.242 949.545 1510.371 C 991.448 1465.817, 1013.691 1433.455, 1031.249 1391.500 C 1032.630 1388.200, 1034.544 1383.700, 1035.503 1381.500 C 1038.153 1375.420, 1048.073 1344.120, 1049.011 1338.878 C 1049.466 1336.336, 1050.777 1331.105, 1051.924 1327.254 L 1054.010 1320.252 1062.901 1320.759 C 1095.501 1322.617, 1124.161 1303.392, 1142.813 1267.153 C 1149.204 1254.737, 1153.786 1244.397, 1155.067 1239.500 C 1155.498 1237.850, 1157.469 1232, 1159.446 1226.500 C 1192.416 1134.781, 1193.636 1114.068, 1167.655 1087.162 C 1154.269 1073.300, 1141.092 1066.706, 1125.682 1066.159 L 1114.864 1065.774 1112.978 1061.637 C 1111.940 1059.362, 1108.983 1052.100, 1106.407 1045.500 C 1097.376 1022.363, 1084.894 996.787, 1073.795 978.677 C 1071.158 974.374, 1069 970.440, 1069 969.935 C 1069 969.430, 1067.400 966.921, 1065.443 964.358 C 1063.487 961.795, 1061.045 958.049, 1060.017 956.032 C 1058.988 954.016, 1057.500 951.830, 1056.709 951.174 C 1055.919 950.518, 1052.624 946.310, 1049.386 941.823 C 1027.270 911.171, 910.013 801, 899.505 801 C 899.286 801, 896.133 798.750, 892.500 796 C 888.867 793.250, 885.298 791, 884.569 791 C 883.841 791, 882.715 790.362, 882.068 789.582 C 881.420 788.802, 877.739 786.214, 873.887 783.832 C 870.034 781.449, 862.746 776.925, 857.691 773.778 C 852.636 770.631, 847.150 767.379, 845.500 766.550 C 843.850 765.722, 838.675 762.601, 834 759.614 C 829.325 756.628, 821.900 752.031, 817.500 749.398 C 813.100 746.765, 808.375 743.856, 807 742.933 C 805.625 742.011, 795.950 735.603, 785.500 728.693 C 740.908 699.208, 705.253 670.134, 690.834 651.500 C 688.706 648.750, 684.953 644.025, 682.494 641 C 677.904 635.352, 673.709 627.678, 669.920 618 C 668.132 613.433, 667.637 609.345, 666.999 593.899 C 666.091 571.933, 664.988 568.948, 657.205 567.391 C 654.509 566.852, 653.536 567.264, 650.622 570.178 M 1524.116 922.745 L 1516.732 923.093 1517.337 928.201 C 1517.979 933.617, 1521.757 940.204, 1525.427 942.307 C 1526.803 943.095, 1535.905 943.663, 1552.500 943.997 C 1583.651 944.624, 1580 940.421, 1580 975.655 C 1580 1001.858, 1580.195 1005.522, 1581.730 1008.120 C 1583.990 1011.946, 1582.635 1014.180, 1577.407 1015.246 C 1572.617 1016.224, 1571 1018.228, 1571 1023.191 C 1571 1026.587, 1570.729 1027, 1568.500 1027 C 1566.171 1027, 1566 1026.663, 1566 1022.059 C 1566 1016.170, 1565.427 1015.653, 1561.185 1017.707 C 1550.763 1022.755, 1544.384 1036.378, 1543.274 1055.958 C 1542.676 1066.513, 1542.027 1068, 1538.018 1068 C 1529.991 1068, 1516.461 1079.273, 1510.869 1090.620 L 1507.854 1096.739 1507.285 1121.620 C 1506.619 1150.803, 1506.687 1150.497, 1500.649 1151.325 C 1474.807 1154.867, 1444.062 1172.614, 1419.645 1198.084 C 1412.690 1205.339, 1407 1211.655, 1407 1212.118 C 1407 1212.582, 1404.807 1216.233, 1402.127 1220.231 C 1379.589 1253.856, 1374.082 1282.073, 1378.364 1342 C 1379.248 1354.375, 1380.429 1373.725, 1380.989 1385 C 1381.549 1396.275, 1382.511 1411.932, 1383.126 1419.794 C 1383.741 1427.656, 1383.928 1434.406, 1383.540 1434.794 C 1383.152 1435.182, 1326.509 1435.773, 1257.667 1436.106 C 1173.598 1436.513, 1130.366 1437.074, 1126 1437.817 C 1104.183 1441.526, 1091.259 1446.338, 1076.820 1456.128 C 1008.894 1502.185, 1007.276 1606.551, 1073.860 1647 C 1084.860 1653.683, 1084.838 1653.478, 1075.250 1659.538 C 1066.895 1664.819, 1045.648 1685.311, 1044.457 1689.236 C 1044.079 1690.481, 1042.980 1692.400, 1042.015 1693.500 C 1037.454 1698.696, 1031.387 1712.951, 1027.330 1728 L 1024.500 1738.500 1024.516 1780.500 C 1024.543 1852.417, 1041.008 1884.276, 1087.602 1902.568 C 1107.017 1910.190, 1068.753 1909.500, 1472 1909.500 C 1862.955 1909.500, 1839.462 1909.785, 1844 1904.988 C 1844.275 1904.697, 1845.625 1903.955, 1847 1903.340 C 1857.902 1898.457, 1871.109 1879.245, 1873.984 1864.084 C 1875.092 1858.242, 1878.786 1808.466, 1880.076 1782 C 1880.989 1763.269, 1881.430 1755.672, 1883.851 1717 C 1884.454 1707.375, 1885.435 1690.275, 1886.032 1679 C 1886.629 1667.725, 1887.766 1650.410, 1888.559 1640.523 C 1889.351 1630.635, 1890.001 1618.485, 1890.001 1613.523 C 1890.002 1608.560, 1890.892 1593.023, 1891.980 1578.995 C 1893.067 1564.967, 1894.408 1542.692, 1894.959 1529.495 C 1895.511 1516.298, 1896.410 1500.775, 1896.958 1495 C 1897.506 1489.225, 1898.651 1470.775, 1899.504 1454 C 1900.356 1437.225, 1901.707 1414.050, 1902.505 1402.500 C 1903.303 1390.950, 1904.428 1372.050, 1905.006 1360.500 C 1905.583 1348.950, 1906.755 1329.825, 1907.609 1318 C 1910.369 1279.792, 1906.750 1257.477, 1893.476 1230.861 C 1871.782 1187.359, 1831.087 1157.302, 1783.371 1149.537 L 1779.242 1148.865 1778.769 1121.183 C 1778.049 1078.996, 1773.927 1071.054, 1751.106 1067.883 C 1740.659 1066.432, 1741 1066.984, 1741 1051.514 C 1741 1022.895, 1736.200 1015.784, 1715.824 1014.217 L 1706.500 1013.500 1706.500 979 L 1706.500 944.500 1744 944.523 L 1781.500 944.546 1786.879 947.502 C 1793.501 951.142, 1798.541 957.540, 1800.601 964.923 C 1803.938 976.886, 1809.444 983.263, 1814.930 981.522 C 1829.194 976.995, 1809.295 939.493, 1785.603 926.250 L 1777.999 922 1654.750 922.199 C 1586.962 922.308, 1528.177 922.554, 1524.116 922.745 M 1598 978.010 L 1598 1012.021 1642.750 1011.760 L 1687.500 1011.500 1687.764 978.568 C 1688.081 938.966, 1694.830 944.034, 1641.750 944.015 L 1598 944 1598 978.010 M 441 989.682 C 412.856 994.293, 369.238 1011.702, 352.500 1025.004 C 351.950 1025.441, 347.900 1027.701, 343.500 1030.026 C 329.317 1037.520, 327.481 1040.375, 331.528 1048.647 C 335.617 1057.004, 342.407 1060.205, 347.894 1056.362 C 375.739 1036.859, 421.979 1016.643, 448.188 1012.514 C 451.001 1012.070, 452.582 1010.973, 454.850 1007.889 L 457.824 1003.846 461.937 1007.562 C 466.902 1012.048, 476.216 1014.417, 479.844 1012.118 C 480.893 1011.453, 480.384 1010.147, 477.525 1006.168 C 474.751 1002.307, 473.726 999.747, 473.300 995.617 C 472.840 991.163, 472.349 990.060, 470.619 989.596 C 468.274 988.967, 444.952 989.034, 441 989.682 M 839.500 991.443 C 819.470 994.475, 787.857 1004.044, 773 1011.574 C 771.075 1012.549, 768.150 1014.008, 766.500 1014.815 C 757.886 1019.030, 753.050 1027.754, 755.618 1034.446 C 757.146 1038.430, 759.714 1038.288, 770.297 1033.635 C 791.339 1024.384, 794.396 1023.302, 816.500 1017.280 L 829.500 1013.738 856.151 1013.285 C 885.991 1012.779, 890.584 1013.472, 911.354 1021.616 C 919.958 1024.989, 941.994 1035.614, 943 1036.874 C 943.275 1037.218, 946.425 1038.967, 950 1040.760 C 960.399 1045.977, 969 1051.105, 969 1052.090 C 969 1052.590, 969.651 1053, 970.447 1053 C 971.243 1053, 974.010 1054.125, 976.596 1055.500 C 984.460 1059.682, 989.996 1057.795, 993.836 1049.625 C 998.283 1040.165, 997.089 1038.454, 978.982 1028.337 C 971.267 1024.027, 962.378 1019.039, 959.227 1017.252 C 914.566 991.929, 882.277 984.968, 839.500 991.443 M 478.200 992.200 C 476.668 993.732, 476.648 998.248, 478.166 999.766 C 479.054 1000.654, 480.247 1000.106, 483.169 997.466 C 492.357 989.165, 504.363 999.662, 498.546 1010.910 C 496.801 1014.286, 497.907 1015.031, 507.551 1016.975 C 519.276 1019.339, 544.183 1028.289, 559.796 1035.749 C 569.008 1040.151, 573.829 1034.476, 569.128 1024.764 C 566.071 1018.449, 560.753 1014.977, 544.266 1008.531 C 536.145 1005.356, 528.022 1002.138, 526.216 1001.379 C 521.847 999.544, 517.824 999.639, 513.546 1001.679 C 509.500 1003.609, 507.992 1002.844, 509.880 999.821 C 512.001 996.425, 508.240 994.980, 490.858 992.509 C 478.310 990.725, 479.642 990.758, 478.200 992.200 M 1591.250 1027.662 C 1590.563 1027.940, 1589.993 1029.367, 1589.985 1030.833 C 1589.955 1036.080, 1584.605 1037.877, 1568.750 1037.967 L 1563 1038 1563 1051.955 L 1563 1065.909 1566.250 1066.490 C 1568.037 1066.809, 1604.150 1066.941, 1646.500 1066.785 L 1723.500 1066.500 1723.805 1058.500 C 1724.210 1047.891, 1723.495 1044.633, 1719.847 1040.479 L 1716.793 1037 1658.146 1036.985 C 1594.709 1036.968, 1597.104 1037.194, 1596.293 1031.144 C 1595.742 1027.043, 1594.651 1026.290, 1591.250 1027.662 M 181 1066.328 C 158.185 1072.443, 138.450 1091.825, 130.422 1116 C 127.037 1126.195, 129.082 1144.153, 136.229 1167 C 139.746 1178.243, 149.727 1208.042, 153.813 1219.500 C 155.970 1225.550, 158.990 1234.550, 160.524 1239.500 C 164.813 1253.344, 166.555 1256.350, 169.823 1255.552 C 171.295 1255.192, 174.863 1254.641, 177.750 1254.325 L 183 1253.752 183 1256.876 C 183 1259.791, 182.761 1260, 179.434 1260 C 171.220 1260, 170.208 1264.050, 175.838 1274.387 C 183.014 1287.560, 187.014 1287.960, 189.482 1275.750 C 189.864 1273.863, 190.659 1273, 192.019 1273 C 194.940 1273, 194.658 1280.044, 191.462 1286.910 L 188.944 1292.320 192.823 1296.897 C 205.753 1312.152, 235.874 1324.011, 254.156 1321.045 C 257.645 1320.478, 260.803 1320.012, 261.172 1320.008 C 262.060 1319.998, 263.665 1325.383, 264.449 1331 C 269.393 1366.410, 304.677 1449.797, 309.431 1437.305 C 310.019 1435.760, 312.442 1430.561, 314.815 1425.752 L 319.129 1417.008 315.598 1410.254 C 313.656 1406.539, 311.322 1401.925, 310.412 1400 C 309.502 1398.075, 308.366 1395.825, 307.888 1395 C 305.796 1391.388, 300.657 1380.080, 299.025 1375.500 C 298.046 1372.750, 296.552 1368.925, 295.706 1367 C 287.252 1347.771, 277.353 1298.859, 273.545 1257.500 C 272.734 1248.700, 271.395 1234.975, 270.568 1227 C 269.741 1219.025, 268.586 1207.100, 268.001 1200.500 C 265.032 1166.974, 263.946 1165.018, 253.150 1173.771 L 248.801 1177.297 249.253 1193.399 C 249.502 1202.254, 250.639 1218.500, 251.778 1229.500 C 252.918 1240.500, 254.353 1255.575, 254.969 1263 C 255.584 1270.425, 256.792 1281.377, 257.655 1287.339 C 259.540 1300.374, 259.455 1300.520, 250.882 1299.017 C 217.530 1293.172, 192.948 1267.863, 177.049 1223 C 142.556 1125.673, 140.955 1113.929, 160.020 1098.063 C 169.719 1089.992, 172.248 1089.050, 186.679 1088.141 C 200.991 1087.238, 202.524 1086.342, 205.023 1077.417 C 208.101 1066.425, 198.013 1061.769, 181 1066.328 M 1536.065 1090.023 C 1524.957 1091.243, 1525 1091.121, 1525 1121.056 L 1525 1146 1541.393 1146 C 1561.173 1146, 1559 1149.587, 1559 1116.937 L 1559 1091.038 1556.750 1090.583 C 1551.945 1089.612, 1542.211 1089.348, 1536.065 1090.023 M 1578 1118 L 1578 1146 1592.893 1146 C 1610.900 1146, 1609 1149.261, 1609 1118.352 C 1609 1087.352, 1610.544 1090, 1592.465 1090 L 1578 1090 1578 1118 M 1628.667 1090.667 C 1628.300 1091.033, 1628 1103.633, 1628 1118.667 L 1628 1146 1644 1146 L 1660 1146 1660 1119.582 C 1660 1105.052, 1659.727 1092.452, 1659.393 1091.582 C 1658.762 1089.937, 1630.245 1089.088, 1628.667 1090.667 M 1679.106 1091.373 C 1678.301 1092.342, 1678.045 1100.500, 1678.233 1119.123 L 1678.500 1145.500 1694.500 1145.500 L 1710.500 1145.500 1710.767 1119.123 C 1711.091 1087.073, 1712.726 1090, 1694.500 1090 C 1683.636 1090, 1679.974 1090.327, 1679.106 1091.373 M 1729 1117.903 L 1729 1146.051 1744.750 1145.775 L 1760.500 1145.500 1760.500 1124.919 L 1760.500 1104.337 1757.462 1099.419 C 1753.395 1092.832, 1749.032 1090.794, 1737.750 1090.209 L 1729 1089.755 1729 1117.903 M 777.219 1144.559 C 766.658 1151.957, 793.797 1179.193, 816.500 1183.981 C 818.700 1184.445, 824.100 1185.576, 828.500 1186.496 C 849.743 1190.934, 877.365 1186.589, 911.500 1173.440 C 915.350 1171.957, 920.953 1169.895, 923.952 1168.857 C 935.766 1164.767, 937.312 1154.897, 927.365 1147.073 C 921.852 1142.736, 923.127 1142.438, 888.989 1156.051 C 871.570 1162.997, 827.545 1167.190, 814.500 1163.146 C 807.730 1161.047, 798.176 1156.021, 793.107 1151.892 C 781.901 1142.765, 780.623 1142.175, 777.219 1144.559 M 396.374 1144.943 C 393.058 1146.348, 387 1157.044, 387 1161.494 C 387 1162.499, 392.610 1167.001, 394.947 1167.872 C 427.425 1179.982, 445.870 1184.904, 470.323 1187.984 C 482.268 1189.489, 507.409 1185.748, 517.223 1181.006 C 519.507 1179.903, 521.898 1179, 522.537 1179 C 524.527 1179, 539.587 1167.253, 544.260 1162.056 C 557.029 1147.854, 549.283 1136.835, 535.301 1149.311 C 512.544 1169.616, 473.337 1170.478, 423.165 1151.775 C 403.442 1144.423, 399.797 1143.494, 396.374 1144.943 M 1509 1172.002 C 1489.796 1173.600, 1475.404 1178.736, 1450.127 1193.014 C 1433.998 1202.124, 1413.093 1227.216, 1404.297 1248.024 C 1394.125 1272.088, 1393.569 1281.907, 1398.070 1358 C 1399.160 1376.425, 1400.711 1403.616, 1401.515 1418.424 C 1402.320 1433.233, 1403.648 1454.833, 1404.466 1466.424 C 1405.283 1478.016, 1406.651 1500.550, 1407.504 1516.500 C 1408.358 1532.450, 1409.719 1555.600, 1410.528 1567.943 C 1412.657 1600.400, 1412.316 1610.961, 1409.314 1605.596 C 1408.496 1604.136, 1408.136 1604.227, 1406.083 1606.412 L 1403.772 1608.871 1405.954 1611.936 C 1407.154 1613.621, 1408.567 1615, 1409.093 1615 C 1410.615 1615, 1412.108 1619.804, 1413.601 1629.500 C 1415.681 1643.020, 1415.474 1646.284, 1412.291 1650.066 C 1407.983 1655.186, 1398 1658.982, 1398 1655.500 C 1398 1654.675, 1397.550 1654, 1397 1654 C 1393.336 1654, 1396.291 1647.303, 1402.500 1641.536 C 1408.180 1636.260, 1411.109 1631, 1408.368 1631 C 1406.968 1631, 1400.915 1635.292, 1399.150 1637.537 L 1397.266 1639.931 1396.121 1629.715 C 1395.490 1624.097, 1394.689 1614.478, 1394.340 1608.339 L 1393.705 1597.178 1270.102 1596.747 C 1131.159 1596.264, 1142.097 1596.871, 1126.097 1588.750 C 1094.946 1572.937, 1101.591 1527.070, 1137.500 1510.043 L 1146.500 1505.775 1259.500 1505.358 C 1321.650 1505.128, 1375.822 1504.685, 1379.883 1504.373 L 1387.267 1503.804 1386.536 1482.652 C 1385.637 1456.666, 1406.121 1460.033, 1248.847 1460.015 L 1114.194 1460 1103.847 1463.557 C 1098.156 1465.514, 1092.281 1467.989, 1090.790 1469.057 C 1089.300 1470.126, 1087.622 1471, 1087.060 1471 C 1082.768 1471, 1064.276 1486.952, 1057.405 1496.581 C 1037.212 1524.879, 1037.767 1569.106, 1058.695 1599.359 C 1070.260 1616.077, 1093.947 1633.452, 1110 1636.993 C 1111.925 1637.418, 1116.200 1638.568, 1119.500 1639.549 C 1125.062 1641.201, 1134.853 1641.384, 1253.500 1642.052 C 1400.999 1642.881, 1394.837 1642.806, 1393.400 1643.765 C 1389.800 1646.169, 1389.010 1652.794, 1392 1655.500 C 1393.100 1656.495, 1393.993 1657.803, 1393.985 1658.405 C 1393.976 1659.007, 1393.551 1658.838, 1393.039 1658.029 C 1392.527 1657.220, 1391.747 1656.919, 1391.306 1657.361 C 1390.147 1658.519, 1393.936 1660.993, 1396.941 1661.040 L 1399.500 1661.080 1396.500 1662.790 C 1393.722 1664.374, 1382.999 1664.543, 1251.500 1665.076 C 1101.746 1665.684, 1106.021 1665.537, 1093.867 1670.476 C 1062.472 1683.233, 1044.585 1708, 1042.936 1741 C 1040.283 1794.076, 1043.546 1828.696, 1052.064 1837.838 C 1053.129 1838.981, 1054 1840.515, 1054 1841.246 C 1054 1847.750, 1088.441 1879, 1095.609 1879 C 1096.027 1879, 1098.198 1879.884, 1100.434 1880.965 C 1111.767 1886.444, 1108.450 1886.307, 1240.500 1886.752 C 1307.600 1886.978, 1373.862 1886.851, 1387.750 1886.469 L 1413 1885.774 1413 1883.449 C 1413 1882.170, 1412.321 1878.196, 1411.491 1874.618 C 1410.661 1871.040, 1409.525 1861.449, 1408.966 1853.306 C 1408.407 1845.163, 1407.619 1836.250, 1407.213 1833.500 L 1406.476 1828.500 1274.988 1827.916 C 1190.155 1827.539, 1142.258 1826.969, 1140 1826.309 C 1100.718 1814.839, 1094.188 1761.323, 1128.883 1735.209 C 1145.378 1722.795, 1133.484 1723.752, 1277.250 1723.267 L 1401 1722.849 1400.987 1716.675 C 1400.979 1713.279, 1400.307 1702.400, 1399.493 1692.500 C 1397.087 1663.244, 1397.123 1663, 1403.767 1663 C 1405.199 1663, 1407.317 1662.112, 1408.472 1661.026 C 1413.570 1656.237, 1415.477 1657.675, 1415.727 1666.500 C 1415.852 1670.900, 1416.632 1682.600, 1417.461 1692.500 C 1419.603 1718.107, 1420.845 1736.550, 1421.972 1759.500 C 1423.113 1782.715, 1423.709 1792.569, 1425.061 1810.500 C 1425.600 1817.650, 1426.448 1831.375, 1426.945 1841 C 1428.280 1866.864, 1433.535 1877.500, 1448.249 1884.113 L 1453.500 1886.473 1646.500 1886.439 L 1839.500 1886.405 1844.256 1884.089 C 1856.745 1878.010, 1857.627 1874.445, 1860.493 1818.500 C 1861.338 1802, 1862.672 1779.725, 1863.459 1769 C 1864.245 1758.275, 1865.147 1744.100, 1865.462 1737.500 C 1866.429 1717.312, 1871.972 1623.282, 1872.979 1610 C 1873.500 1603.125, 1874.407 1587.600, 1874.995 1575.500 C 1875.582 1563.400, 1876.736 1543.825, 1877.559 1532 C 1878.382 1520.175, 1879.488 1500.150, 1880.016 1487.500 C 1880.545 1474.850, 1881.189 1463.375, 1881.448 1462 C 1882.091 1458.584, 1883.733 1432.391, 1885.523 1397 C 1886.343 1380.775, 1887.726 1358.527, 1888.597 1347.560 C 1893.545 1285.221, 1887.296 1256.189, 1861.928 1223.648 C 1855.623 1215.560, 1838.451 1199, 1836.371 1199 C 1835.617 1199, 1835 1198.639, 1835 1198.197 C 1835 1195.443, 1811.973 1182.915, 1797.150 1177.604 C 1781.466 1171.985, 1778.535 1171.764, 1713.396 1171.289 L 1653.292 1170.851 1652.646 1175.565 C 1652.291 1178.158, 1652 1235.757, 1652 1303.563 C 1652 1393.859, 1651.688 1428.198, 1650.835 1431.896 C 1649.949 1435.734, 1649.948 1438.210, 1650.831 1442.222 C 1653.372 1453.760, 1653.533 1467.650, 1651.144 1469.142 C 1649.965 1469.879, 1648.997 1471.160, 1648.994 1471.991 C 1648.990 1472.821, 1648.317 1472.215, 1647.498 1470.644 C 1646.679 1469.073, 1644.237 1465.672, 1642.071 1463.085 C 1636.507 1456.440, 1636.125 1454.066, 1639.922 1449.741 C 1644.609 1444.403, 1643.035 1440.965, 1637.550 1444.559 C 1633.392 1447.284, 1633.515 1451.124, 1633.178 1307.917 L 1632.856 1171 1575.178 1171.147 C 1543.455 1171.228, 1513.675 1171.613, 1509 1172.002 M 613.289 1348.324 C 609.681 1352.433, 608.248 1357.389, 610.044 1359.553 C 610.715 1360.362, 611.993 1362.472, 612.882 1364.242 C 620.621 1379.635, 660.199 1390.290, 682.282 1382.926 C 698.681 1377.457, 713.465 1367.181, 716.005 1359.486 C 719.696 1348.300, 701.841 1339.357, 693.024 1347.976 C 681.111 1359.622, 641 1364.087, 641 1353.767 C 641 1353.345, 640.406 1353, 639.680 1353 C 638.954 1353, 636.401 1351.323, 634.006 1349.273 C 627.365 1343.589, 617.830 1343.152, 613.289 1348.324 M 761.151 1458.510 C 758.209 1459.879, 755.094 1461, 754.229 1461 C 753.365 1461, 751.947 1461.611, 751.079 1462.358 C 747.036 1465.835, 714.607 1474.165, 696 1476.507 C 670.734 1479.686, 654.987 1479.574, 622.626 1475.987 C 613.779 1475.006, 587.197 1469.203, 581.500 1467.008 C 579.850 1466.373, 575.203 1465.482, 571.173 1465.028 C 566.005 1464.446, 563.205 1463.604, 561.673 1462.168 C 556.514 1457.336, 551.053 1457.248, 546.572 1461.925 C 541.179 1467.554, 543.022 1476.335, 550.243 1479.415 C 615.697 1507.326, 706.924 1507.681, 766.099 1480.254 C 777.978 1474.749, 781.291 1468.454, 775.912 1461.615 C 771.393 1455.870, 768.244 1455.208, 761.151 1458.510 M 1633.341 1466.555 C 1631.969 1470.130, 1633.821 1482.495, 1636.478 1487.500 C 1639.539 1493.263, 1639.343 1498.306, 1635.869 1503.184 C 1633.624 1506.337, 1631.712 1648.198, 1633.675 1665.977 C 1634.937 1677.413, 1643.327 1678.124, 1649.651 1667.332 L 1652.234 1662.925 1652.766 1574.654 C 1653.367 1474.966, 1654.135 1485.040, 1645.268 1476.287 C 1642.920 1473.970, 1641 1471.586, 1641 1470.989 C 1641 1467.976, 1634.287 1464.089, 1633.341 1466.555 M 1144 1528.912 C 1118.363 1532.582, 1117.790 1557.274, 1143.046 1570.023 L 1149.005 1573.032 1269.453 1572.766 C 1353.470 1572.580, 1390.224 1572.176, 1390.972 1571.428 C 1392.007 1570.393, 1390.668 1534.912, 1389.442 1530.882 C 1388.613 1528.161, 1161.954 1526.341, 1144 1528.912 M 379 1605.257 C 379 1607.048, 378.531 1610.085, 377.958 1612.007 C 377.386 1613.928, 376.488 1630.575, 375.964 1649 C 373.014 1752.677, 362.352 1820.891, 339.702 1881 C 329.719 1907.494, 329.659 1909, 338.596 1909 C 342.512 1909, 342.992 1908.683, 345.803 1904.250 C 356.180 1887.883, 374.598 1826.696, 380.947 1787.500 C 385.242 1760.981, 389.012 1731.624, 389.941 1717.460 C 390.481 1709.232, 391.387 1696.650, 391.955 1689.500 C 393.053 1675.679, 394.997 1625.378, 394.999 1610.750 L 395 1602 387 1602 L 379 1602 379 1605.257 M 1136.391 1750.333 C 1121.402 1759.657, 1120.040 1776.485, 1132.951 1792.819 C 1135.204 1795.669, 1137.505 1798, 1138.065 1798 C 1138.625 1798, 1139.982 1798.837, 1141.081 1799.861 C 1147.033 1805.406, 1142.688 1805.221, 1278.500 1805.686 C 1355.749 1805.950, 1404.024 1805.754, 1404.872 1805.172 C 1406.297 1804.195, 1403.933 1757.136, 1402.119 1750.352 L 1401.356 1747.500 1271.428 1747.327 L 1141.500 1747.155 1136.391 1750.333" stroke="none" fill="#050505" fill-rule="evenodd"/></svg>