<svg xmlns="http://www.w3.org/2000/svg" width="2000" height="2000" viewBox="0 0 2000 2000" version="1.1"><path d="M 1023 328.666 C 1016.939 329.621, 1015.474 330.383, 1010.244 335.296 C 997.823 346.968, 997.392 362.062, 1009.131 374.254 C 1014.764 380.104, 1017.073 380.696, 1041.500 382.548 C 1169.613 392.264, 1269.546 478.476, 1294.453 600.770 C 1297.656 616.496, 1301.746 672, 1299.702 672 C 1298.641 672, 1288.906 657.816, 1276.525 638.229 C 1257.732 608.499, 1247.040 602.380, 1229.971 611.587 C 1207.890 623.498, 1210.519 638.622, 1242.995 686.500 C 1244.487 688.700, 1245.887 690.950, 1246.105 691.500 C 1246.323 692.050, 1249.468 697, 1253.094 702.500 C 1256.720 708, 1268.058 725.557, 1278.290 741.517 C 1308.390 788.468, 1309.322 789.493, 1322.992 790.733 C 1336.702 791.976, 1340.912 788.208, 1365.242 752.921 C 1374.184 739.952, 1392.300 713.757, 1405.500 694.710 C 1442.539 641.264, 1445.651 631.981, 1430.736 619.431 C 1409.508 601.569, 1399.508 607.137, 1366.754 655.056 C 1353.785 674.030, 1354.620 674.757, 1353.479 643.500 C 1347.369 476.033, 1218.589 341.704, 1052 329.032 C 1038.743 328.023, 1027.945 327.887, 1023 328.666 M 989.500 469.820 C 980.417 474.254, 979.100 475.984, 957.066 512.422 C 885.445 630.864, 837.033 730.881, 823.432 788.500 C 812.635 834.241, 826.299 892.748, 856.652 930.744 C 964.433 1065.664, 1179.610 993.039, 1180.324 821.500 C 1180.511 776.616, 1148.917 697.730, 1086.005 586 C 1080.896 576.925, 1075.592 567.475, 1074.219 565 C 1058.783 537.164, 1025.384 482.854, 1019.805 476.516 C 1011.906 467.542, 999.694 464.844, 989.500 469.820 M 999.386 548.816 C 992.552 553.407, 915.716 694.885, 904.011 724.431 C 902.471 728.319, 898.651 737.350, 895.523 744.500 C 890.696 755.532, 887.418 764.168, 881.099 782.500 C 844.934 887.415, 956.513 983.615, 1056.500 933.726 C 1109.301 907.381, 1137.479 845.835, 1121.616 791.500 C 1110.251 752.573, 1078.104 681.472, 1049.873 632.826 C 1047.743 629.155, 1046 625.887, 1046 625.564 C 1046 624.680, 1022.823 584.179, 1009.786 562.283 C 1001.495 548.358, 1001.008 547.727, 999.386 548.816 M 633.511 684.601 C 625.512 687.528, 625.114 688.070, 586.496 748.500 C 575.600 765.550, 561.047 788.275, 554.155 799 C 531.038 834.973, 529.414 842.491, 541.803 856.203 C 558.089 874.231, 574.304 867.704, 595.716 834.500 C 620.933 795.397, 618.486 795.614, 619.460 832.388 C 623.072 968.639, 717.711 1091.157, 850.500 1131.488 C 892.211 1144.157, 944.018 1149.519, 956.855 1142.497 C 975.982 1132.034, 977.340 1108.025, 959.475 1096.192 C 954.429 1092.849, 954.164 1092.803, 929 1090.994 C 787.244 1080.802, 676.989 967.720, 674.286 829.750 C 673.975 813.832, 674.144 804, 674.730 804 C 675.623 804, 684.535 815.917, 688.566 822.500 C 693.071 829.856, 707.671 849.886, 711.302 853.692 C 727.083 870.229, 754.924 860.275, 756.757 837.440 C 757.620 826.683, 758.495 828.172, 710.091 758.078 C 694.299 735.210, 678.527 712.312, 675.041 707.194 C 659.901 684.960, 648.893 678.971, 633.511 684.601 M 184.500 1089.922 L 158.500 1090.500 153.855 1093.230 C 135.100 1104.256, 136.168 1130.902, 155.756 1140.639 C 159.366 1142.434, 168.241 1142.521, 404.500 1143.076 C 706.413 1143.785, 657.690 1133.161, 706.840 1209 C 744.308 1266.814, 756.471 1284.961, 764.479 1295 C 876.016 1434.826, 1085.160 1447.365, 1211.270 1321.789 C 1234.329 1298.827, 1244.275 1285.428, 1282.006 1226.500 C 1327.143 1156.005, 1330.323 1151.652, 1339.964 1147.164 L 1347.500 1143.656 1591 1142.873 C 1851.296 1142.036, 1845.140 1142.178, 1850.687 1136.847 C 1865.317 1122.788, 1861.708 1100.173, 1843.500 1091.805 L 1838.500 1089.507 1722.500 1089.214 C 1535.416 1088.742, 1339.936 1090.344, 1332.561 1092.409 C 1304.563 1100.252, 1292.998 1109.923, 1270.875 1144 C 1200.945 1251.714, 1202.159 1249.881, 1193.373 1261 C 1177.430 1281.176, 1147.870 1307.427, 1128.243 1318.841 C 1112.884 1327.773, 1083.997 1341, 1079.851 1341 C 1078.898 1341, 1077.867 1341.406, 1077.560 1341.903 C 1077.253 1342.400, 1069.464 1344.629, 1060.251 1346.856 C 976.994 1366.987, 893.242 1345.391, 831.574 1287.891 C 811.042 1268.746, 801.466 1255.418, 738.973 1159 C 704.869 1106.382, 698.884 1100.922, 665.894 1092.333 L 655.500 1089.626 433 1089.485 C 310.625 1089.407, 198.800 1089.604, 184.500 1089.922 M 192.500 1220.969 C 153.854 1221.555, 156.036 1221.188, 148.162 1228.430 C 136.188 1239.444, 139.086 1263.305, 153.291 1270.651 C 159.231 1273.722, 190.733 1274.079, 430.500 1273.788 L 668.500 1273.500 673 1271.405 C 694.703 1261.300, 692.600 1231.087, 669.521 1221.444 C 666.001 1219.974, 283.255 1219.592, 192.500 1220.969 M 1328.054 1228.728 C 1306.202 1236.443, 1305.732 1267.443, 1327.302 1278.287 L 1332.846 1281.074 1584.673 1280.712 C 1862.220 1280.313, 1843.542 1280.803, 1850.807 1273.738 C 1864.916 1260.018, 1862.187 1239.487, 1844.882 1229.159 L 1841.264 1227 1586.882 1227.079 C 1358.419 1227.150, 1332.047 1227.318, 1328.054 1228.728 M 309.500 1373.887 C 280.971 1381.197, 279.098 1418.594, 306.838 1427.020 C 338.483 1436.631, 356.406 1390.226, 326.272 1376.703 C 319.674 1373.742, 313.871 1372.768, 309.500 1373.887 M 583.500 1373.885 C 551.982 1382.087, 556.229 1428.330, 588.500 1428.330 C 617.824 1428.330, 626.200 1387.772, 599.341 1375.835 C 594.389 1373.634, 587.650 1372.805, 583.500 1373.885 M 1403.500 1374.980 C 1376.798 1383.688, 1378.245 1420.343, 1405.573 1427.481 C 1423.225 1432.092, 1440.586 1416.837, 1438.696 1398.378 C 1436.961 1381.443, 1419.426 1369.786, 1403.500 1374.980 M 1680.500 1373.895 C 1649.035 1382.040, 1653.283 1428, 1685.500 1428 C 1715.074 1428, 1723.834 1388.848, 1697 1376.603 C 1690.712 1373.734, 1684.843 1372.771, 1680.500 1373.895 M 447.500 1507.643 C 336.428 1523.770, 348.453 1677.755, 460.221 1670.540 C 527.253 1666.213, 557.605 1578.105, 508.340 1530.859 C 493.065 1516.210, 464.243 1505.212, 447.500 1507.643 M 715.500 1508.551 C 672.330 1515.971, 644.424 1547.833, 644.603 1589.500 C 644.981 1677.683, 763.473 1702.846, 800.542 1622.615 C 826.478 1566.480, 775.589 1498.223, 715.500 1508.551 M 1259.500 1509.473 C 1159.164 1530.185, 1178.003 1676.220, 1280.277 1670.531 C 1373.145 1665.366, 1382.571 1527.229, 1291.226 1510.053 C 1275.293 1507.057, 1271.540 1506.988, 1259.500 1509.473 M 984.500 1509.497 C 931.641 1519.443, 902.710 1578.903, 927.438 1626.774 C 961.580 1692.867, 1058.944 1682.733, 1078.983 1611 C 1095.064 1553.436, 1043.782 1498.344, 984.500 1509.497 M 1537.500 1508.586 C 1536.400 1508.856, 1532.350 1509.783, 1528.500 1510.646 C 1460.046 1525.987, 1445.089 1622.588, 1505.500 1659.195 C 1575.372 1701.535, 1657.791 1626.511, 1621.614 1553.500 C 1606.428 1522.853, 1566.419 1501.489, 1537.500 1508.586 M 442.324 1563.638 C 431.154 1567.596, 423.317 1579.741, 424.402 1591.413 C 426.954 1618.870, 462.353 1626.977, 475.358 1603.083 C 487.341 1581.066, 465.784 1555.325, 442.324 1563.638 M 719.174 1563.070 C 688.542 1569.098, 694.527 1617, 725.912 1617 C 754.676 1617, 764.037 1571.322, 736.680 1564.456 C 735.195 1564.083, 733.734 1563.378, 733.432 1562.889 C 732.764 1561.809, 725.089 1561.906, 719.174 1563.070 M 991.882 1563.317 C 967.907 1572.306, 965.706 1603.203, 988.241 1614.433 C 1008.660 1624.608, 1032.948 1604.531, 1026.606 1582.718 C 1022.293 1567.882, 1005.192 1558.327, 991.882 1563.317 M 1266.396 1563.358 C 1236.550 1573.136, 1243.133 1617, 1274.448 1617 C 1309.065 1617, 1310.610 1564.763, 1276.063 1562.395 C 1273.003 1562.185, 1268.653 1562.619, 1266.396 1563.358 M 1538 1564.511 C 1506.030 1579.710, 1524.659 1626.876, 1558.128 1615.472 C 1576.796 1609.111, 1581.889 1583.846, 1567.335 1569.799 C 1559.566 1562.301, 1547.300 1560.090, 1538 1564.511" stroke="none" fill="#040404" fill-rule="evenodd"/></svg>