<svg xmlns="http://www.w3.org/2000/svg" width="2000" height="2000" viewBox="0 0 2000 2000" version="1.1"><path d="M 982.030 364.113 C 977.966 365.735, 973.104 369.899, 971.378 373.236 C 968.528 378.747, 969.074 381.285, 982.029 422.770 C 989.817 447.707, 991.595 445.499, 964.839 444.109 C 897.024 440.585, 850.567 444.518, 794.500 458.529 C 773.703 463.726, 738.501 475.833, 721.520 483.629 C 710.038 488.900, 699 493.216, 699 492.434 C 699 491.419, 702.323 485.418, 713.339 466.540 C 730.069 437.870, 728.187 424.010, 707.737 425.273 C 698.098 425.869, 700.384 422.789, 663.766 484.500 C 620.521 557.378, 613.611 547.071, 730.772 584.447 C 754.209 591.924, 764 588.645, 764 573.320 C 764 561.531, 760.999 559.257, 734 550.579 C 711.702 543.412, 694.645 537.921, 693.114 537.416 C 689.229 536.134, 698.391 530.711, 725 518.542 C 731.875 515.397, 739.300 511.989, 741.500 510.967 C 805.415 481.275, 912.663 468.014, 990.746 480.147 C 1000.348 481.639, 1000.161 481.409, 1004.830 497.500 C 1021.368 554.499, 1024.435 654.349, 1011.558 716.500 C 1010.760 720.350, 1008.921 729.575, 1007.470 737 C 999.871 775.895, 986.832 816.967, 968.261 860.500 C 959.576 880.862, 940.207 916.953, 920.767 949 C 913.927 960.275, 901.306 981.200, 892.719 995.500 C 884.132 1009.800, 875.036 1024.875, 872.505 1029 C 863.279 1044.040, 843.688 1084.141, 833.481 1108.880 C 828.303 1121.428, 828.967 1120.968, 816 1120.974 C 749.938 1121.002, 645.974 1105.987, 584 1087.466 C 577.675 1085.576, 563.950 1081.755, 553.500 1078.975 C 535.833 1074.274, 516.648 1068.844, 506 1065.531 C 503.525 1064.760, 495.425 1062.495, 488 1060.497 C 480.575 1058.498, 470.675 1055.706, 466 1054.292 C 453.081 1050.383, 423.069 1042.031, 418.048 1040.946 C 415.599 1040.418, 408.624 1038.441, 402.548 1036.555 C 396.471 1034.668, 382.454 1030.656, 371.397 1027.639 C 360.340 1024.623, 345.490 1020.349, 338.397 1018.143 C 331.304 1015.937, 315.408 1011.289, 303.073 1007.816 C 275.755 1000.123, 275.101 1005.209, 310.765 948 C 323.778 927.126, 342.934 889.491, 351.484 868 C 353.563 862.775, 356.093 856.700, 357.106 854.500 C 359.387 849.549, 365.858 832.559, 367.009 828.500 C 367.477 826.850, 370.617 816.725, 373.988 806 C 401.937 717.064, 409.347 617.670, 395.010 524 C 393.184 512.070, 388.691 495.816, 377.040 459 C 374.343 450.475, 370.723 438.550, 368.996 432.500 C 351.828 372.348, 348.670 366, 335.916 366 C 319.610 366, 316.353 375.832, 324.402 400.756 C 326.844 408.315, 332.014 425.075, 335.893 438 C 339.771 450.925, 346.609 473.425, 351.087 488 C 361.196 520.895, 360.496 517.975, 363.423 539.500 C 372.803 608.486, 369.887 684.087, 355.420 746.972 C 350.334 769.079, 343.457 795.508, 342.011 798.500 C 341.480 799.600, 337.850 809.698, 333.946 820.941 C 330.041 832.183, 325.485 844.333, 323.821 847.941 C 322.158 851.548, 319.273 858.222, 317.412 862.770 C 312.828 873.975, 294.641 909.860, 286.380 924 C 277.138 939.820, 252.475 980.472, 240.110 1000.269 C 232.320 1012.741, 220.309 1033.464, 216.388 1041.197 C 214.800 1044.331, 208.839 1056.012, 203.142 1067.154 C 192.156 1088.642, 180.858 1114.305, 175.476 1130 C 173.684 1135.225, 170.822 1143.235, 169.116 1147.800 C 157.294 1179.427, 143.961 1240.470, 139.476 1283.500 C 139.132 1286.800, 137.789 1297.375, 136.491 1307 C 131.097 1347.006, 130.820 1352.216, 131.272 1405.105 C 131.730 1458.697, 131.893 1460.695, 139.489 1505.533 C 148.890 1561.026, 175.645 1645.283, 186.602 1653.902 C 197.480 1662.458, 212.992 1654.456, 213.003 1640.282 C 213.006 1636.579, 211.646 1632.691, 203.984 1614.500 C 188.892 1578.664, 173.531 1516.420, 166.749 1463.614 C 162.588 1431.212, 164.142 1330.007, 169.082 1311.707 C 169.645 1309.620, 171.186 1299.270, 172.506 1288.707 C 173.826 1278.143, 175.391 1265.675, 175.985 1261 C 179.308 1234.813, 195.443 1168.698, 199.055 1166.466 C 199.848 1165.976, 302.020 1217.345, 313.500 1224.006 C 315.150 1224.963, 330 1232.611, 346.500 1241.002 C 374.298 1255.138, 433.553 1285.496, 528 1333.993 C 565.006 1352.995, 595.314 1368.520, 721.198 1432.963 C 790.056 1468.213, 784.144 1464.351, 785.148 1474.744 C 790.766 1532.852, 824.854 1644.949, 839.697 1654.122 C 849.490 1660.174, 865.073 1650.069, 863.747 1638.526 C 863.493 1636.312, 860.795 1628.650, 857.751 1621.500 C 824.781 1544.041, 807.204 1428.158, 815.813 1345 C 818.172 1322.209, 822.953 1282.649, 824.574 1272.500 C 831.822 1227.136, 836.798 1202.337, 841.027 1190.500 C 842.010 1187.750, 843.341 1183.174, 843.987 1180.331 C 846.502 1169.253, 821.575 1157.787, 1047 1273.710 C 1075.875 1288.559, 1119.525 1310.952, 1144 1323.472 C 1168.475 1335.992, 1204.475 1354.480, 1224 1364.556 C 1309.339 1408.594, 1423.851 1467.202, 1451.056 1480.765 L 1480.612 1495.500 1481.306 1505.906 C 1481.688 1511.629, 1482 1543.669, 1482 1577.106 C 1482 1651.512, 1481.824 1650.367, 1493.897 1654.481 C 1501.228 1656.979, 1503.291 1656.524, 1509.180 1651.109 L 1514.500 1646.217 1515.272 1574.859 C 1516.141 1494.575, 1515.960 1496.910, 1521.403 1495.779 C 1526.456 1494.729, 1539.829 1488.419, 1551.302 1481.671 C 1556.361 1478.696, 1564.325 1474.231, 1569 1471.749 C 1573.675 1469.266, 1580.425 1465.562, 1584 1463.517 C 1587.575 1461.471, 1593.875 1458.048, 1598 1455.910 C 1602.125 1453.772, 1607.525 1450.827, 1610 1449.366 C 1615.201 1446.297, 1636.870 1434.330, 1658.500 1422.582 C 1666.750 1418.101, 1674.625 1413.700, 1676 1412.801 C 1677.375 1411.903, 1683.900 1408.271, 1690.500 1404.732 C 1697.100 1401.192, 1706.775 1395.916, 1712 1393.007 C 1725.858 1385.292, 1785.901 1352.145, 1820 1333.387 C 1836.225 1324.461, 1852.875 1315.281, 1857 1312.986 C 1861.125 1310.692, 1871.171 1305.143, 1879.325 1300.657 C 1908.871 1284.400, 1915.121 1277.199, 1909.598 1265.777 C 1902.816 1251.752, 1895.340 1253.001, 1857.500 1274.482 C 1851.450 1277.917, 1841.100 1283.654, 1834.500 1287.232 C 1827.900 1290.809, 1815.075 1297.917, 1806 1303.027 C 1796.925 1308.137, 1783.875 1315.312, 1777 1318.973 C 1770.125 1322.633, 1754.825 1331.053, 1743 1337.685 C 1731.175 1344.316, 1716.100 1352.659, 1709.500 1356.224 C 1702.900 1359.789, 1690.283 1366.762, 1681.461 1371.720 C 1672.640 1376.678, 1660.940 1383.100, 1655.461 1385.992 C 1649.983 1388.884, 1641.450 1393.609, 1636.500 1396.492 C 1626.551 1402.286, 1610.565 1411.115, 1593 1420.517 C 1586.675 1423.902, 1576.004 1429.783, 1569.286 1433.586 C 1516.486 1463.474, 1513.237 1465, 1502.424 1465 L 1493.808 1465 1462.154 1449.123 C 1444.744 1440.391, 1418.350 1426.951, 1403.500 1419.257 C 1388.650 1411.562, 1340.275 1386.700, 1296 1364.009 C 1251.725 1341.317, 1200.425 1315.014, 1182 1305.558 C 1163.575 1296.101, 1143.325 1285.744, 1137 1282.542 C 1130.675 1279.341, 1120.325 1274.029, 1114 1270.738 C 1081.954 1254.067, 1032.065 1228.528, 1012.599 1218.831 C 1000.553 1212.830, 989.528 1207.113, 988.099 1206.126 C 986.669 1205.139, 968.625 1195.766, 948 1185.298 C 887.123 1154.401, 863.168 1141.958, 860.763 1139.986 L 858.500 1138.130 861.852 1128.815 C 863.695 1123.692, 865.916 1117.475, 866.787 1115 C 870.733 1103.794, 905.413 1036.676, 909.859 1031.642 C 912.101 1029.103, 918.534 1029.933, 931.500 1034.435 C 940.874 1037.691, 961.109 1043.564, 1020 1060.125 C 1033.475 1063.914, 1047.200 1067.898, 1050.500 1068.977 C 1053.800 1070.057, 1069.775 1074.522, 1086 1078.900 C 1102.225 1083.278, 1117.525 1087.588, 1120 1088.476 C 1122.475 1089.365, 1132.150 1092.129, 1141.500 1094.619 C 1150.850 1097.109, 1165.250 1101.108, 1173.500 1103.507 C 1191.504 1108.741, 1239.502 1121.871, 1253.608 1125.420 C 1406.930 1163.995, 1602.844 1161.686, 1751.500 1119.551 C 1758.100 1117.680, 1768.675 1114.724, 1775 1112.982 C 1781.325 1111.240, 1797.750 1106.292, 1811.500 1101.986 C 1838.406 1093.559, 1865.697 1085.137, 1878.411 1081.337 C 1893.909 1076.705, 1898.538 1072.507, 1898.441 1063.174 C 1898.264 1046.253, 1887.760 1042.730, 1862.904 1051.257 C 1855.427 1053.822, 1847.552 1056.364, 1845.404 1056.906 C 1840.199 1058.219, 1815.919 1065.548, 1792.500 1072.874 C 1614.727 1128.491, 1447.815 1134.852, 1261.500 1093.113 C 1256.550 1092.004, 1245.525 1089.087, 1237 1086.630 C 1228.475 1084.173, 1212.725 1079.851, 1202 1077.026 C 1191.275 1074.200, 1179.125 1070.807, 1175 1069.486 C 1170.875 1068.165, 1160.750 1065.278, 1152.500 1063.071 C 1144.250 1060.865, 1133 1057.688, 1127.500 1056.012 C 1122 1054.337, 1106.700 1050.029, 1093.500 1046.439 C 1080.300 1042.849, 1064.100 1038.306, 1057.500 1036.343 C 1050.900 1034.380, 1037.850 1030.635, 1028.500 1028.020 C 1008.420 1022.406, 938.930 1002.406, 934.250 1000.895 C 929.179 999.257, 929.597 998.117, 943.019 977 C 1010.113 871.439, 1045.741 764.848, 1051.984 651 C 1054.880 598.200, 1050.455 540.665, 1040.435 500.819 C 1039.096 495.494, 1038 490.882, 1038 490.569 C 1038 488.302, 1066.621 495.408, 1087.500 502.858 C 1113.379 512.093, 1117.476 513.671, 1123.500 516.728 C 1136.121 523.131, 1141.201 522.852, 1148.710 515.343 L 1153.216 510.836 1152.828 503.967 C 1151.975 488.859, 1105.372 468.734, 1039.567 455.055 C 1025.883 452.210, 1026.053 452.374, 1021.623 437.856 C 1015.297 417.125, 1009.883 399.785, 1007.932 394 C 1006.912 390.975, 1005.166 385.350, 1004.053 381.500 C 1000.068 367.725, 990.973 360.544, 982.030 364.113 M 1195.945 558.912 C 1190.380 561.942, 1189.774 564.316, 1189.227 585.250 L 1188.738 604 1180.619 604.017 C 1151.447 604.080, 1141.244 609.075, 1142.274 622.791 C 1143.195 635.054, 1149.116 638, 1172.841 638 L 1190.258 638 1189.591 644.250 C 1189.225 647.688, 1188.423 654.212, 1187.811 658.750 C 1186.512 668.367, 1188.180 667.718, 1170.462 665.508 C 1149.437 662.886, 1143.802 663.623, 1139.092 669.611 C 1132.397 678.122, 1135.717 691.283, 1145.500 695.009 C 1147.701 695.848, 1174.416 700, 1177.609 700 C 1179.427 700, 1172.191 727.151, 1169.109 731.895 C 1167.907 733.746, 1164.597 733.027, 1151.387 728.049 C 1132.154 720.801, 1122.513 723.725, 1120.458 737.430 C 1118.780 748.624, 1124.079 753.567, 1146.719 761.925 C 1155.831 765.289, 1155.787 764.878, 1148.633 779.563 C 1139.784 797.725, 1140.921 797.299, 1126.069 788.019 C 1116.115 781.799, 1106.955 782.511, 1100.659 789.994 C 1092.889 799.228, 1098.552 811.369, 1114.699 820.094 C 1122.779 824.460, 1122.683 825.924, 1113.424 839.596 C 1109.066 846.033, 1105.220 851.728, 1104.877 852.252 C 1103.960 853.658, 1100.607 851.574, 1093.971 845.474 C 1083.714 836.044, 1077.462 834.781, 1068.941 840.420 C 1057.974 847.678, 1059.786 858.522, 1074.372 872.920 C 1083.217 881.651, 1083.500 879.884, 1070.904 894.558 C 1060.208 907.017, 1060.270 907.005, 1050.783 898.372 C 1036.966 885.798, 1031.389 883.720, 1022.975 888.013 C 1010.849 894.199, 1011.184 905.270, 1023.897 918.500 C 1028.654 923.450, 1033.345 928.460, 1034.323 929.634 C 1036.082 931.747, 1035.926 931.930, 1018.591 947.972 C 998.053 966.980, 995.675 972.162, 1002.610 982.798 C 1010.788 995.338, 1021.961 991.286, 1048.246 966.250 C 1061.846 953.297, 1059.901 953.174, 1075.636 967.976 C 1093.192 984.491, 1100.735 986.456, 1109.683 976.845 C 1118.316 967.574, 1116.411 962.254, 1097.668 943.293 C 1085.566 931.049, 1084.724 929.954, 1086.137 928.293 C 1086.975 927.307, 1092.012 921.439, 1097.331 915.253 L 1107 904.006 1111.250 907.692 C 1113.588 909.719, 1119.100 914.842, 1123.500 919.077 C 1142.433 937.299, 1152.057 938.997, 1159.718 925.470 C 1165.381 915.473, 1162.980 910.807, 1141.658 890.366 C 1134.696 883.692, 1129 877.773, 1129 877.212 C 1129 876.053, 1147.358 848.462, 1149.981 845.679 C 1151.629 843.931, 1152.370 844.289, 1168.598 854.679 L 1185.500 865.500 1192.047 865.498 C 1211.127 865.491, 1214.861 844.258, 1197.641 833.693 C 1186.322 826.748, 1169.002 814.986, 1169.035 814.265 C 1169.054 813.844, 1172.991 805.850, 1177.785 796.500 L 1186.500 779.500 1190.500 779.611 C 1192.700 779.672, 1200.350 781.847, 1207.500 784.445 C 1225.079 790.831, 1233.686 789.504, 1238.344 779.688 C 1244.059 767.645, 1237.416 759.569, 1215.500 751.917 C 1199.713 746.405, 1199.933 746.644, 1202.873 738.226 C 1206.083 729.034, 1210.689 713.333, 1211.557 708.619 L 1212.272 704.738 1218.886 705.333 C 1251.972 708.309, 1258.228 706.448, 1260.508 692.950 C 1262.493 681.205, 1253.312 675.253, 1228.885 672.448 C 1220.398 671.473, 1220.434 671.576, 1222.389 654.116 C 1224.699 633.481, 1222.671 635.564, 1241.500 634.485 C 1261.586 633.335, 1267 630.019, 1267 618.866 C 1267 604.544, 1262.502 601.500, 1241.335 601.500 C 1223.540 601.500, 1225.013 602.360, 1223.871 591.307 C 1221.127 564.754, 1221.006 564.333, 1214.677 559.608 C 1210.773 556.693, 1200.707 556.319, 1195.945 558.912 M 1495.380 854.965 C 1490.138 855.773, 1486.516 858.151, 1484.271 862.259 C 1481.987 866.438, 1481.533 935.809, 1483.763 939.709 C 1489.665 950.029, 1505.918 950.181, 1512.792 939.980 L 1515.091 936.569 1514.796 900.356 C 1514.512 865.584, 1514.418 864.033, 1512.438 861.383 C 1508.114 855.596, 1503.224 853.755, 1495.380 854.965 M 841.686 857.017 C 832.515 859.769, 832.048 862.068, 832.022 904.563 L 832 940.626 834.750 943.199 C 841.685 949.687, 848.314 951.060, 855.570 947.510 C 864.661 943.062, 864.450 944.077, 864.817 902.915 L 865.134 867.331 861.773 862.915 C 857.096 856.771, 849.721 854.605, 841.686 857.017 M 259.054 1033.357 C 258.562 1034.653, 256.623 1038.140, 254.746 1041.107 C 244.245 1057.706, 221.298 1103.984, 213.863 1123.559 L 210.568 1132.232 212.840 1134.072 C 215.669 1136.362, 231.485 1144.666, 287.500 1173.268 C 311.700 1185.625, 347.475 1203.953, 367 1213.997 C 386.525 1224.042, 434 1248.351, 472.500 1268.018 C 511 1287.685, 556.675 1311.078, 574 1320.003 C 609.665 1338.376, 670.580 1369.589, 732.527 1401.235 C 755.641 1413.043, 775.494 1423.292, 776.644 1424.010 C 779.879 1426.030, 782.218 1424.647, 781.275 1421.272 C 780.130 1417.176, 780.574 1369.891, 781.925 1352 C 785.534 1304.213, 798.177 1217.716, 804.435 1198 C 808.229 1186.047, 815.942 1156.715, 815.485 1155.976 C 814.753 1154.792, 807.638 1154.142, 782.500 1152.963 C 719.207 1149.996, 636.762 1137.046, 582.500 1121.548 C 575.900 1119.663, 561.050 1115.592, 549.500 1112.501 C 537.950 1109.411, 522.650 1105.153, 515.500 1103.040 C 500.004 1098.460, 459.855 1087.114, 430 1078.877 C 418.175 1075.614, 402.650 1071.176, 395.500 1069.013 C 388.350 1066.850, 373.275 1062.611, 362 1059.593 C 350.725 1056.574, 339.475 1053.382, 337 1052.499 C 334.525 1051.617, 323.501 1048.398, 312.502 1045.346 C 301.504 1042.295, 286.129 1037.818, 278.337 1035.399 C 261.908 1030.298, 260.283 1030.126, 259.054 1033.357" stroke="none" fill="#050505" fill-rule="evenodd"/></svg>