<svg xmlns="http://www.w3.org/2000/svg" width="2000" height="2000" viewBox="0 0 2000 2000" version="1.1"><path d="M 682.112 142.647 C 669.372 145.917, 659.688 153.315, 656.192 162.451 C 652.459 172.205, 652.795 555.269, 656.542 561.662 C 657.940 564.048, 659.403 566.002, 659.792 566.003 C 660.181 566.005, 663.650 568.749, 667.500 572.100 C 677.548 580.848, 670.640 580.181, 759.252 580.957 C 839.004 581.655, 839.004 581.655, 841.462 583.965 C 843.921 586.274, 843.921 586.274, 844.225 759.887 C 844.567 955.359, 843.736 934.628, 851.875 950.752 C 853.608 954.185, 855.981 959.547, 857.148 962.666 C 858.315 965.785, 860.945 970.174, 862.993 972.419 C 867.454 977.309, 868.552 979.305, 871.172 987.287 C 872.274 990.644, 875.173 997.367, 877.614 1002.226 C 880.054 1007.086, 882.933 1013.411, 884.010 1016.281 C 885.088 1019.152, 887.983 1023.949, 890.444 1026.943 C 904.604 1044.169, 904.443 1041.768, 905.029 1244.500 C 905.647 1458.487, 904.096 1437.664, 920.397 1450.812 C 931.859 1460.057, 924.592 1459.334, 1000.461 1458.781 C 1076.535 1458.227, 1070.659 1458.913, 1080.950 1449.386 C 1096.849 1434.669, 1095.740 1449.671, 1096.265 1242.279 C 1096.779 1039.458, 1096.397 1047.053, 1106.867 1031.229 C 1108.588 1028.628, 1111.459 1023.575, 1113.248 1020 C 1115.037 1016.425, 1118.586 1009.675, 1121.136 1005 C 1123.687 1000.325, 1126.561 994.025, 1127.524 991 C 1129.582 984.534, 1132.416 978.679, 1135.510 974.500 C 1155.256 947.831, 1155 950.615, 1155 762.650 C 1155 551.032, 1140.375 581.782, 1241.380 581.025 C 1358.077 580.151, 1344.435 608.673, 1344.770 364.871 C 1345.039 168.627, 1345.039 168.627, 1342.856 162.064 C 1336.674 143.480, 1305.931 136.121, 1292.291 149.959 C 1278.653 163.795, 1279.240 155.527, 1278.854 339.245 C 1278.420 545.902, 1327.227 515.198, 999.773 514.816 C 672.591 514.435, 721.341 551.265, 721.121 304.303 C 721 169.106, 721 169.106, 716.250 162.625 C 713.638 159.060, 710.322 154.389, 708.882 152.244 C 704.179 145.239, 690.760 140.428, 682.112 142.647 M 922 581.842 C 905.402 583.127, 907.010 564.013, 907.005 760.085 C 906.999 929.886, 906.494 921.978, 918.536 940.473 C 921.033 944.308, 923.846 949.708, 924.788 952.473 C 925.730 955.238, 928.027 960.425, 929.894 964 C 931.761 967.575, 935.295 974.550, 937.747 979.500 C 940.199 984.450, 943.718 991.008, 945.568 994.074 C 947.418 997.140, 950.485 1003.719, 952.383 1008.694 C 954.282 1013.669, 957.853 1020.687, 960.319 1024.289 C 968.858 1036.762, 968.244 1022.882, 968.769 1215.269 C 969.233 1385.038, 969.233 1385.038, 971.747 1387.016 C 979.986 1393.496, 1022.643 1393.472, 1028.515 1386.984 C 1030.271 1385.043, 1030.377 1377.722, 1031.059 1211.729 C 1031.848 1019.635, 1031.165 1035.365, 1039.147 1025.504 C 1042.284 1021.628, 1044.748 1017.207, 1046.115 1013.004 C 1047.277 1009.427, 1050.141 1002.900, 1052.478 998.500 C 1054.815 994.100, 1057.910 987.350, 1059.356 983.500 C 1060.851 979.522, 1063.931 974.129, 1066.492 971.009 C 1069.296 967.591, 1071.811 963.059, 1073.152 959.009 C 1074.337 955.429, 1077.661 947.917, 1080.540 942.315 C 1083.418 936.713, 1086.706 929.513, 1087.846 926.315 C 1088.986 923.117, 1090.823 918.025, 1091.927 915 C 1097.069 900.915, 1094.660 586.719, 1089.390 584.159 C 1084.628 581.845, 946.631 579.935, 922 581.842 M 587 1174.632 C 548.145 1182.089, 555.897 1231.851, 597.657 1243.042 C 601.923 1244.185, 609.033 1247.086, 613.457 1249.489 C 617.881 1251.892, 624.425 1254.953, 628 1256.291 C 631.575 1257.630, 638.100 1260.538, 642.500 1262.752 C 646.900 1264.967, 655 1268.163, 660.500 1269.854 C 666 1271.545, 673.012 1274.507, 676.082 1276.436 C 679.153 1278.366, 686.610 1281.932, 692.654 1284.361 C 698.699 1286.790, 705.412 1289.676, 707.572 1290.775 C 709.732 1291.873, 716.221 1294.226, 721.990 1296.003 C 728.946 1298.146, 734.267 1300.514, 737.783 1303.031 C 740.700 1305.120, 746.554 1308.069, 750.793 1309.586 C 755.032 1311.103, 762.775 1314.238, 768 1316.553 C 773.225 1318.868, 781.098 1321.770, 785.495 1323.002 C 793.361 1325.206, 799.789 1327.892, 807.315 1332.120 C 814.400 1336.101, 837.947 1321.933, 842.103 1311.188 C 848.484 1294.689, 836.970 1273.615, 818.795 1268.526 C 815.333 1267.557, 809.362 1265.186, 805.527 1263.257 C 801.692 1261.328, 794.492 1258.197, 789.527 1256.298 C 784.562 1254.400, 777.575 1251.107, 774 1248.981 C 770.234 1246.742, 762.874 1243.772, 756.500 1241.918 C 745.806 1238.809, 742.838 1237.533, 734.500 1232.464 C 732.300 1231.126, 728.250 1229.286, 725.500 1228.375 C 722.750 1227.463, 716.180 1224.561, 710.900 1221.925 C 705.621 1219.289, 698.421 1216.409, 694.900 1215.525 C 686.377 1213.385, 678.377 1210.163, 676.789 1208.231 C 675.487 1206.646, 663.934 1201, 661.994 1201 C 661.417 1201, 656.120 1198.800, 650.222 1196.111 C 644.325 1193.422, 634.959 1189.825, 629.408 1188.117 C 623.582 1186.324, 617.484 1183.684, 614.981 1181.871 C 606.635 1175.825, 595.624 1172.976, 587 1174.632 M 1400.500 1174.973 C 1393.758 1176.069, 1390.539 1177.434, 1384.847 1181.612 C 1381.722 1183.906, 1375.868 1186.493, 1368.147 1188.993 C 1361.608 1191.109, 1353.613 1194.170, 1350.379 1195.795 C 1347.146 1197.421, 1341.178 1199.943, 1337.117 1201.401 C 1333.057 1202.860, 1328.557 1204.883, 1327.117 1205.898 C 1322.217 1209.353, 1314.193 1212.940, 1306.839 1214.962 C 1302.802 1216.072, 1295 1219.233, 1289.500 1221.986 C 1284 1224.740, 1276.807 1227.906, 1273.516 1229.023 C 1270.225 1230.140, 1264.600 1232.806, 1261.016 1234.948 C 1257.080 1237.301, 1250.145 1240.083, 1243.500 1241.974 C 1236.826 1243.874, 1229.944 1246.638, 1226 1249.002 C 1222.425 1251.145, 1215.450 1254.455, 1210.500 1256.358 C 1205.550 1258.261, 1199.025 1261.193, 1196 1262.875 C 1192.975 1264.556, 1186.808 1266.910, 1182.295 1268.105 C 1152.432 1276.017, 1146.279 1308.441, 1171.515 1324.920 C 1187.048 1335.063, 1186.355 1334.934, 1197.589 1329.764 C 1203.040 1327.254, 1212 1323.743, 1217.500 1321.961 C 1223 1320.179, 1229.631 1317.655, 1232.235 1316.351 C 1234.839 1315.048, 1241.323 1312.426, 1246.644 1310.524 C 1251.966 1308.622, 1258.835 1305.330, 1261.910 1303.208 C 1267.960 1299.033, 1270.324 1297.997, 1279.500 1295.499 C 1282.800 1294.601, 1290 1291.905, 1295.500 1289.508 C 1301 1287.111, 1308.309 1284.045, 1311.742 1282.694 C 1315.176 1281.344, 1321.026 1278.422, 1324.742 1276.202 C 1328.459 1273.982, 1336.225 1270.730, 1342 1268.976 C 1347.775 1267.222, 1355.200 1264.287, 1358.500 1262.455 C 1361.800 1260.623, 1367.875 1257.927, 1372 1256.465 C 1376.125 1255.003, 1382.200 1252.088, 1385.500 1249.987 C 1389.528 1247.422, 1395.727 1244.933, 1404.363 1242.413 C 1430.942 1234.659, 1446.767 1208.880, 1434.920 1192.636 C 1431.216 1187.557, 1420.952 1176.196, 1419.598 1175.676 C 1416.883 1174.634, 1405.227 1174.206, 1400.500 1174.973 M 769.486 1365.479 C 750.069 1366.893, 741.948 1367.803, 721 1370.917 C 704.558 1373.362, 693.127 1374.491, 664.500 1376.499 C 638.331 1378.335, 621.848 1380.252, 608.395 1383.026 C 586.734 1387.491, 582.517 1387.886, 523 1391.015 C 489.376 1392.784, 487.626 1393.285, 477.696 1404.011 C 463.633 1419.201, 464.013 1432.585, 478.953 1448.314 C 490.142 1460.093, 509.963 1461.282, 550.194 1452.589 C 572.143 1447.846, 584.014 1446.744, 643 1443.973 C 667.847 1442.807, 684.644 1441.132, 708 1437.495 C 726.142 1434.669, 736.277 1433.643, 767.500 1431.471 C 827.265 1427.314, 844 1418.625, 844 1391.752 C 844 1382.755, 844 1382.755, 837.250 1376.257 C 823.716 1363.228, 816.392 1362.063, 769.486 1365.479 M 1176.211 1365.228 C 1165.112 1369.520, 1154.452 1385.100, 1155.225 1395.899 C 1156.844 1418.533, 1176.719 1427.523, 1234 1431.532 C 1264.234 1433.648, 1282.530 1435.561, 1300.500 1438.485 C 1320.722 1441.776, 1330.967 1442.680, 1368.500 1444.486 C 1414.205 1446.685, 1425.293 1447.701, 1445 1451.499 C 1495.020 1461.139, 1508.380 1460.747, 1520.151 1449.291 C 1529.866 1439.837, 1531.206 1437.096, 1531.231 1426.626 C 1531.261 1414.187, 1530.148 1411.450, 1521.759 1403.327 C 1510.354 1392.283, 1511.032 1392.426, 1458.500 1390.005 C 1426.164 1388.515, 1414.705 1387.367, 1398.125 1383.956 C 1381.749 1380.588, 1366.356 1378.601, 1344.500 1377.035 C 1297.652 1373.677, 1297.235 1373.634, 1266 1369.077 C 1237.508 1364.920, 1183.045 1362.585, 1176.211 1365.228 M 832.783 1459.530 C 830.189 1460.361, 825.177 1463.019, 821.647 1465.436 C 818.116 1467.853, 813.894 1470.521, 812.264 1471.364 C 810.634 1472.207, 807.201 1475.026, 804.635 1477.628 C 802.069 1480.231, 797.792 1483.967, 795.129 1485.930 C 783.342 1494.624, 778.108 1498.695, 772.500 1503.531 C 769.200 1506.376, 763.564 1510.684, 759.975 1513.102 C 751.760 1518.639, 744.621 1524.047, 736.700 1530.735 C 728.379 1537.760, 701.858 1558.143, 691.933 1565.140 C 687.533 1568.242, 682.936 1571.848, 681.717 1573.153 C 680.498 1574.458, 676.726 1577.654, 673.336 1580.255 C 669.946 1582.857, 667.021 1585.390, 666.836 1585.886 C 666.651 1586.381, 663.062 1589.197, 658.859 1592.143 C 654.657 1595.089, 644.991 1602.225, 637.379 1608 C 629.767 1613.775, 622.110 1619.470, 620.363 1620.657 C 618.616 1621.843, 614.968 1624.993, 612.257 1627.657 C 607.476 1632.353, 603.163 1635.647, 587.142 1646.838 C 582.939 1649.773, 577.853 1653.762, 575.840 1655.702 C 573.827 1657.643, 569.943 1660.866, 567.209 1662.865 C 564.475 1664.864, 560.098 1668.075, 557.484 1670 C 526.916 1692.507, 521.816 1715.156, 543.458 1732.288 C 556.992 1743.001, 564.874 1743.780, 575.967 1735.501 C 580.435 1732.166, 585.267 1728.756, 602 1717.128 C 606.675 1713.880, 611.850 1709.772, 613.500 1707.999 C 616.679 1704.585, 627.575 1696.045, 636.895 1689.662 C 639.978 1687.551, 644.075 1684.359, 646 1682.568 C 647.925 1680.777, 654.225 1675.791, 660 1671.488 C 677.684 1658.309, 678.399 1657.731, 681.760 1653.888 C 683.552 1651.837, 687.152 1648.847, 689.760 1647.241 C 692.367 1645.636, 699.375 1640.538, 705.332 1635.912 C 711.290 1631.285, 719.165 1625.341, 722.832 1622.702 C 726.500 1620.063, 731.750 1615.993, 734.500 1613.657 C 737.250 1611.322, 741.075 1608.338, 743 1607.028 C 744.925 1605.717, 749.200 1602.334, 752.500 1599.510 C 755.800 1596.687, 762.775 1591.151, 768 1587.210 C 794.212 1567.437, 802.043 1561.324, 803.222 1559.711 C 803.930 1558.742, 807.516 1555.823, 811.189 1553.225 C 828.866 1540.719, 834.127 1536.741, 845.878 1527 C 852.844 1521.225, 860.855 1515.017, 863.679 1513.205 C 871.203 1508.378, 874.843 1498.092, 873.768 1484.696 C 872.262 1465.942, 851.866 1453.418, 832.783 1459.530 M 1145.860 1459.504 C 1127.038 1465.557, 1118.617 1497.723, 1132.714 1509.723 C 1139.762 1515.723, 1156.444 1528.971, 1167.682 1537.493 C 1173.833 1542.157, 1179.142 1546.421, 1179.481 1546.969 C 1179.820 1547.517, 1183.113 1549.927, 1186.798 1552.325 C 1190.484 1554.722, 1195.750 1558.699, 1198.500 1561.161 C 1201.250 1563.624, 1205.750 1567.149, 1208.500 1568.995 C 1211.250 1570.841, 1218.225 1576.243, 1224 1581 C 1229.775 1585.757, 1236.525 1591.031, 1239 1592.719 C 1241.475 1594.408, 1246.035 1597.975, 1249.134 1600.645 C 1256.487 1606.981, 1264.737 1613.447, 1272.361 1618.852 C 1275.737 1621.245, 1281.650 1625.776, 1285.500 1628.920 C 1289.350 1632.064, 1294.525 1636.088, 1297 1637.862 C 1309.735 1646.989, 1312.953 1649.498, 1318.073 1654.287 C 1321.138 1657.154, 1328.982 1663.325, 1335.505 1668 C 1342.027 1672.675, 1349.869 1678.797, 1352.932 1681.604 C 1355.994 1684.411, 1360.975 1688.356, 1364 1690.371 C 1371.724 1695.516, 1381.959 1703.746, 1386.806 1708.709 C 1389.067 1711.023, 1392.654 1713.803, 1394.778 1714.887 C 1396.901 1715.970, 1400.880 1718.628, 1403.619 1720.793 C 1408.933 1724.993, 1424.223 1735.352, 1429.384 1738.248 C 1445.610 1747.354, 1471.289 1725.769, 1468.670 1705.227 C 1467.234 1693.959, 1459.053 1682.418, 1445.168 1672.073 C 1431.382 1661.802, 1426.615 1657.939, 1422.212 1653.473 C 1419.721 1650.946, 1415.999 1648.020, 1413.941 1646.970 C 1411.883 1645.920, 1407.342 1642.884, 1403.849 1640.223 C 1400.357 1637.563, 1394.901 1633.673, 1391.724 1631.578 C 1388.547 1629.484, 1385.515 1626.963, 1384.987 1625.975 C 1384.116 1624.349, 1379.042 1620.273, 1364.976 1609.904 C 1362.293 1607.926, 1357.039 1603.823, 1353.299 1600.788 C 1349.560 1597.752, 1344.475 1594.021, 1342 1592.497 C 1339.525 1590.973, 1335.216 1587.650, 1332.425 1585.113 C 1329.633 1582.576, 1324.762 1578.475, 1321.599 1576 C 1309.595 1566.606, 1307.349 1564.827, 1302 1560.480 C 1294.433 1554.329, 1279.870 1543.641, 1271.730 1538.264 C 1268.006 1535.805, 1264.495 1532.925, 1263.928 1531.865 C 1262.948 1530.035, 1260.493 1528.073, 1238.438 1511.500 C 1233.314 1507.650, 1224.758 1501.125, 1219.423 1497 C 1214.089 1492.875, 1207.424 1487.806, 1204.612 1485.736 C 1201.800 1483.666, 1198.080 1480.320, 1196.345 1478.301 C 1193.086 1474.509, 1180.272 1465.869, 1171.500 1461.548 C 1164.966 1458.330, 1152.582 1457.343, 1145.860 1459.504 M 923.545 1523.504 C 913.811 1527.759, 914.368 1527.181, 907.654 1540 C 902.613 1549.625, 901.073 1553.810, 896.581 1570.086 C 895.733 1573.158, 893.231 1578.333, 891.022 1581.586 C 888.812 1584.839, 885.821 1591.100, 884.375 1595.500 C 882.929 1599.900, 879.835 1608.225, 877.498 1614 C 875.161 1619.775, 872.207 1628.509, 870.932 1633.408 C 869.135 1640.312, 867.622 1643.635, 864.206 1648.180 C 860.770 1652.750, 859.061 1656.519, 856.457 1665.272 C 854.619 1671.447, 851.800 1679.425, 850.191 1683 C 840.948 1703.545, 842.420 1717.542, 855.274 1731.316 C 874.089 1751.478, 898.403 1738.704, 911.072 1702 C 912.876 1696.775, 915.777 1690.238, 917.520 1687.474 C 921.464 1681.218, 924.221 1673.845, 926.485 1663.500 C 927.526 1658.745, 929.819 1652.612, 932.138 1648.378 C 934.284 1644.461, 937.352 1637.377, 938.954 1632.636 C 940.557 1627.894, 943.463 1621.424, 945.413 1618.258 C 947.777 1614.419, 949.994 1608.535, 952.063 1600.606 C 954.115 1592.742, 956.795 1585.609, 959.971 1579.556 C 979.360 1542.603, 957.344 1508.726, 923.545 1523.504 M 1055.112 1521.581 C 1047.417 1523.650, 1038.008 1528.938, 1035.925 1532.364 C 1028.604 1544.403, 1030.509 1568.225, 1039.646 1578.900 C 1042.594 1582.343, 1043.925 1585.366, 1046.230 1593.844 C 1047.819 1599.689, 1051.294 1609.653, 1053.953 1615.986 C 1056.612 1622.319, 1059.491 1629.978, 1060.351 1633.006 C 1061.210 1636.034, 1064.017 1641.798, 1066.587 1645.816 C 1070.242 1651.529, 1071.774 1655.294, 1073.619 1663.102 C 1074.917 1668.592, 1077.603 1676.553, 1079.588 1680.792 C 1081.574 1685.031, 1084.969 1693.217, 1087.133 1698.982 C 1089.297 1704.747, 1092.788 1712.172, 1094.891 1715.482 C 1096.995 1718.792, 1099.689 1723.144, 1100.880 1725.153 C 1126.071 1767.683, 1169.666 1723.146, 1148.015 1677 C 1145.305 1671.225, 1141.985 1662.994, 1140.637 1658.708 C 1139.289 1654.422, 1136.587 1648.572, 1134.632 1645.708 C 1132.111 1642.013, 1130.189 1637.159, 1128.017 1629 C 1126.334 1622.675, 1122.957 1613.450, 1120.514 1608.500 C 1118.071 1603.550, 1114.886 1596.125, 1113.438 1592 C 1111.989 1587.875, 1109.309 1581.791, 1107.482 1578.481 C 1105.655 1575.171, 1103.202 1568.708, 1102.030 1564.119 C 1096.250 1541.478, 1087.013 1527.675, 1074.307 1522.690 C 1066.637 1519.681, 1062.965 1519.469, 1055.112 1521.581 M 166.500 1835.932 C 137.208 1836.607, 134.163 1837.370, 129.714 1845.149 C 119.104 1863.699, 124.117 1885.488, 140.512 1892.089 C 148.273 1895.214, 1842.289 1896.535, 1854.289 1893.425 C 1866.918 1890.153, 1869.113 1888.131, 1873.523 1875.709 C 1877.026 1865.842, 1876.707 1859.176, 1872.295 1849.982 C 1867.144 1839.252, 1865.576 1837.900, 1856.941 1836.748 C 1848.917 1835.678, 211.841 1834.888, 166.500 1835.932" stroke="none" fill="#040404" fill-rule="evenodd"/></svg>