<svg xmlns="http://www.w3.org/2000/svg" width="2000" height="2000" viewBox="0 0 2000 2000" version="1.1"><path d="M 972.500 256.023 C 949.111 257.479, 941.815 259.368, 921 269.353 C 903.758 277.624, 892.204 288.965, 882.268 307.367 C 874.204 322.303, 876.522 354.381, 887.402 378.396 C 891.031 386.406, 894 393.143, 894 393.367 C 894 397.248, 925.512 438.186, 938.201 450.790 C 954.134 466.616, 975.341 484.431, 991.716 495.748 C 995.893 498.635, 1001.603 502.747, 1004.405 504.886 C 1007.207 507.026, 1011.975 510.013, 1015 511.525 C 1018.025 513.037, 1022.975 515.861, 1026 517.800 C 1029.025 519.740, 1034.650 522.888, 1038.500 524.795 C 1042.350 526.702, 1047.477 529.619, 1049.893 531.278 C 1059.090 537.590, 1072.257 540.610, 1076.777 537.443 C 1081.645 534.034, 1080.268 531.927, 1059.205 510.571 C 1039.818 490.913, 1012.612 459.831, 1004.326 447.873 C 1002.030 444.560, 998.538 440.283, 996.567 438.368 C 994.596 436.454, 992.129 433.214, 991.086 431.168 C 990.042 429.122, 987.179 424.760, 984.723 421.474 C 982.267 418.188, 977.923 411.450, 975.070 406.500 C 972.216 401.550, 968.810 396.011, 967.501 394.192 C 966.192 392.373, 964.356 388.773, 963.421 386.192 C 962.486 383.611, 960.163 377.675, 958.259 373 C 950.827 354.758, 950.679 354.171, 950.587 342.500 C 950.274 302.986, 1000.313 286.131, 1054.764 307.408 C 1059.607 309.300, 1067.828 312.040, 1073.034 313.496 C 1078.240 314.952, 1086.100 318.086, 1090.500 320.460 C 1094.900 322.834, 1101.875 325.982, 1106 327.456 C 1110.125 328.931, 1116.337 331.929, 1119.806 334.119 C 1123.274 336.309, 1129.450 339.623, 1133.531 341.482 C 1137.612 343.342, 1143.774 346.866, 1147.225 349.312 C 1150.676 351.759, 1155.790 354.910, 1158.588 356.315 C 1161.386 357.720, 1165.843 360.524, 1168.492 362.546 C 1171.141 364.567, 1175.812 367.824, 1178.873 369.782 C 1181.934 371.740, 1187.153 375.504, 1190.469 378.147 C 1196.542 382.986, 1204.842 389.435, 1215 397.208 C 1218.025 399.523, 1223.030 403.686, 1226.123 406.458 C 1229.216 409.231, 1236.133 415.325, 1241.495 420 C 1246.856 424.675, 1252.873 430.300, 1254.865 432.500 C 1256.858 434.700, 1266.373 444.600, 1276.010 454.500 C 1285.647 464.400, 1295.775 475.356, 1298.516 478.848 C 1310.025 493.506, 1313.523 497.882, 1319.418 505 C 1322.834 509.125, 1326.701 514.075, 1328.010 516 C 1329.319 517.925, 1332.149 521.525, 1334.298 524 C 1336.447 526.475, 1339.035 530.123, 1340.050 532.106 C 1341.064 534.090, 1343.897 538.060, 1346.346 540.928 C 1348.795 543.797, 1352.186 548.747, 1353.882 551.929 C 1355.577 555.111, 1359.036 560.366, 1361.568 563.607 C 1364.100 566.848, 1367.095 571.300, 1368.224 573.500 C 1369.353 575.700, 1372.899 581.461, 1376.103 586.301 C 1379.308 591.142, 1382.721 597.613, 1383.689 600.681 C 1384.782 604.150, 1386.685 607.427, 1388.723 609.350 C 1395.708 615.938, 1392.437 622.259, 1384.196 618.099 C 1378.012 614.977, 1361.006 602.274, 1358.806 599.134 C 1355.845 594.906, 1318.412 567.871, 1297.146 554.601 C 1294.591 553.006, 1288.900 549.331, 1284.500 546.434 C 1280.100 543.538, 1273.125 539.495, 1269 537.452 C 1264.875 535.408, 1259.609 532.439, 1257.297 530.853 C 1254.986 529.267, 1248.011 525.505, 1241.797 522.493 C 1235.584 519.482, 1228.025 515.689, 1225 514.066 C 1213.150 507.708, 1192.034 497.976, 1182.965 494.693 C 1177.722 492.796, 1170.214 489.622, 1166.281 487.641 C 1162.339 485.656, 1153.784 482.718, 1147.220 481.095 C 1139.946 479.296, 1132.622 476.717, 1128.405 474.471 C 1120.689 470.361, 1110.911 469.865, 1104.500 473.259 C 1101.556 474.817, 1106.750 478.892, 1111.790 478.978 C 1114.305 479.021, 1120.718 482.921, 1122.338 485.394 C 1125.359 490.004, 1129.438 492.993, 1136.273 495.604 C 1140.001 497.029, 1145.853 500.110, 1149.276 502.452 C 1152.699 504.793, 1158.200 508.185, 1161.500 509.988 C 1167.722 513.389, 1177.195 519.415, 1192.298 529.579 C 1197.136 532.836, 1202.704 536.463, 1204.669 537.640 C 1206.635 538.817, 1210.296 541.517, 1212.804 543.640 C 1215.313 545.763, 1220.159 549.525, 1223.573 552 C 1229.157 556.048, 1240.544 565.009, 1256 577.518 C 1269.674 588.584, 1315.348 632.844, 1324.607 644 C 1332.386 653.371, 1339.471 661.700, 1345.025 668 C 1351.681 675.550, 1363.752 691.055, 1368.074 697.606 C 1370.040 700.585, 1372.779 704.255, 1374.161 705.762 C 1377.426 709.319, 1393.106 733.184, 1396 739 C 1397.232 741.475, 1399.863 745.750, 1401.848 748.500 C 1405.633 753.744, 1412.501 766.544, 1423.437 788.742 C 1427.025 796.026, 1431.113 803.725, 1432.520 805.851 C 1433.928 807.978, 1436.667 814.169, 1438.607 819.609 C 1440.547 825.049, 1443.885 832.942, 1446.024 837.149 C 1448.163 841.355, 1451.089 849.005, 1452.526 854.149 C 1453.963 859.292, 1456.891 867.620, 1459.033 872.655 C 1461.174 877.690, 1464.544 888.265, 1466.520 896.155 C 1468.497 904.045, 1471.851 916.167, 1473.973 923.093 C 1476.466 931.225, 1478.957 942.916, 1481.005 956.093 C 1482.750 967.317, 1485.238 981.675, 1486.534 988 C 1492.018 1014.751, 1493.991 1040.426, 1493.989 1085 C 1493.987 1139.930, 1492.277 1165.272, 1486.499 1196 C 1485.206 1202.875, 1482.965 1217.030, 1481.518 1227.455 C 1478.354 1250.243, 1477.119 1256.323, 1472.640 1271.139 C 1470.750 1277.387, 1467.988 1288.553, 1466.501 1295.952 C 1465.014 1303.351, 1461.854 1314.601, 1459.479 1320.952 C 1457.103 1327.303, 1453.969 1337.225, 1452.513 1343 C 1451.057 1348.775, 1448.157 1357.550, 1446.068 1362.500 C 1443.980 1367.450, 1440.572 1376.675, 1438.495 1383 C 1436.418 1389.325, 1433.488 1396.975, 1431.984 1400 C 1430.479 1403.025, 1427.569 1409.997, 1425.517 1415.493 C 1423.464 1420.990, 1419.624 1429.765, 1416.984 1434.993 C 1414.343 1440.222, 1410.980 1447.386, 1409.510 1450.913 C 1408.040 1454.439, 1404.882 1460.739, 1402.491 1464.913 C 1400.100 1469.086, 1396.983 1476.246, 1395.565 1480.824 C 1393.604 1487.152, 1392.149 1489.937, 1389.493 1492.442 C 1385.514 1496.195, 1385.124 1498.751, 1388.014 1502.139 C 1390.029 1504.500, 1390.029 1504.500, 1394.264 1499.867 C 1396.594 1497.319, 1400.415 1494.271, 1402.755 1493.094 C 1405.533 1491.697, 1408.218 1489.140, 1410.489 1485.727 C 1412.403 1482.852, 1415.551 1479.243, 1417.484 1477.707 C 1419.418 1476.172, 1422.877 1472.347, 1425.170 1469.207 C 1427.464 1466.068, 1430.805 1461.925, 1432.593 1460 C 1437.286 1454.950, 1447.256 1441.768, 1453.393 1432.500 C 1456.307 1428.100, 1459.459 1423.863, 1460.398 1423.083 C 1461.338 1422.304, 1463.961 1418.479, 1466.228 1414.583 C 1468.495 1410.688, 1472.034 1405.250, 1474.092 1402.500 C 1476.151 1399.750, 1479.752 1393.900, 1482.094 1389.500 C 1484.436 1385.100, 1487.567 1379.700, 1489.052 1377.500 C 1490.537 1375.300, 1493.802 1369.113, 1496.307 1363.751 C 1498.813 1358.389, 1501.851 1352.614, 1503.059 1350.918 C 1504.266 1349.221, 1507.204 1342.859, 1509.586 1336.780 C 1511.969 1330.700, 1515.048 1324.095, 1516.430 1322.101 C 1517.812 1320.107, 1521.148 1311.956, 1523.843 1303.988 C 1526.539 1296.020, 1529.918 1286.754, 1531.352 1283.397 C 1532.787 1280.041, 1535.558 1271.266, 1537.510 1263.897 C 1539.462 1256.529, 1542.601 1246, 1544.484 1240.500 C 1546.368 1235, 1549.314 1222.625, 1551.032 1213 C 1552.749 1203.375, 1555.698 1188.429, 1557.584 1179.786 C 1568.080 1131.702, 1568.898 995.328, 1558.957 950.834 C 1557.810 945.700, 1554.653 928.503, 1551.941 912.617 C 1548.351 891.588, 1545.931 880.439, 1543.039 871.617 C 1540.855 864.953, 1537.969 854.272, 1536.627 847.882 C 1535.285 841.492, 1532.395 831.817, 1530.204 826.382 C 1528.014 820.947, 1524.819 811.645, 1523.106 805.711 C 1521.392 799.777, 1518.707 792.352, 1517.139 789.211 C 1515.571 786.070, 1512.378 778.413, 1510.045 772.196 C 1505.110 759.048, 1492.252 733.512, 1485.619 723.685 C 1483.088 719.937, 1480.306 714.312, 1479.436 711.185 C 1478.566 708.058, 1476.096 700.100, 1473.948 693.500 C 1471.800 686.900, 1468.701 675.512, 1467.061 668.193 C 1465.120 659.527, 1462.545 651.505, 1459.677 645.193 C 1457.256 639.862, 1454.274 632.125, 1453.052 628 C 1451.830 623.875, 1448.681 616.225, 1446.054 611 C 1443.427 605.775, 1440.534 599.229, 1439.626 596.453 C 1438.717 593.677, 1435.919 587.827, 1433.406 583.453 C 1430.894 579.079, 1427.015 571.900, 1424.786 567.500 C 1422.557 563.100, 1419.219 557.130, 1417.368 554.233 C 1415.517 551.336, 1411.974 545.036, 1409.495 540.233 C 1401.400 524.550, 1381.889 493.568, 1375.311 485.950 C 1373.672 484.053, 1370.512 479.800, 1368.287 476.500 C 1366.063 473.200, 1363.231 469.600, 1361.993 468.500 C 1360.756 467.400, 1357.707 463.420, 1355.218 459.655 C 1352.730 455.890, 1347.257 449.140, 1343.058 444.655 C 1338.858 440.170, 1331.342 431.775, 1326.356 426 C 1316.206 414.245, 1292.296 390.746, 1281.250 381.671 C 1277.263 378.395, 1274 375.367, 1274 374.942 C 1274 374.518, 1271.647 372.445, 1268.770 370.335 C 1265.894 368.226, 1260.624 363.913, 1257.059 360.750 C 1253.494 357.587, 1250.160 355, 1249.650 355 C 1249.140 355, 1245.748 352.580, 1242.111 349.622 C 1238.475 346.664, 1232.800 342.550, 1229.500 340.480 C 1226.200 338.410, 1221.700 335.281, 1219.500 333.527 C 1217.300 331.773, 1212.586 328.642, 1209.025 326.569 C 1205.464 324.495, 1201.229 321.687, 1199.614 320.329 C 1198 318.970, 1192.709 315.865, 1187.857 313.428 C 1183.005 310.991, 1176.660 307.478, 1173.757 305.621 C 1170.855 303.765, 1164.578 300.630, 1159.810 298.657 C 1155.041 296.683, 1148.867 293.669, 1146.088 291.959 C 1143.310 290.250, 1136.450 287.276, 1130.845 285.351 C 1125.240 283.426, 1117.627 280.326, 1113.928 278.464 C 1110.228 276.601, 1100.969 273.499, 1093.351 271.572 C 1085.733 269.644, 1074.100 266.239, 1067.500 264.006 C 1051.143 258.470, 1041.245 257.341, 994 255.621 C 988.775 255.431, 979.100 255.612, 972.500 256.023 M 861.220 272.470 C 858.866 273.205, 853.916 275.630, 850.220 277.859 C 846.524 280.088, 840.350 283.327, 836.500 285.056 C 832.650 286.785, 827.234 289.896, 824.465 291.970 C 821.695 294.044, 816.745 297.222, 813.465 299.032 C 810.184 300.842, 805.250 303.984, 802.500 306.013 C 799.750 308.042, 794.125 312.175, 790 315.197 C 775.709 325.668, 748.536 351.882, 738.870 364.523 C 735.917 368.386, 731.786 373.786, 729.691 376.523 C 716.207 394.139, 699.140 426.300, 694.412 443 C 692.933 448.225, 690.265 456.550, 688.482 461.500 C 678.239 489.952, 678.345 552.373, 688.691 583.999 C 690.580 589.773, 693.263 599.448, 694.654 605.499 C 696.079 611.696, 698.711 619.557, 700.683 623.500 C 702.608 627.350, 706.174 635.448, 708.607 641.496 C 711.041 647.544, 715.275 656.150, 718.016 660.620 C 720.757 665.090, 723 669.174, 723 669.695 C 723 670.217, 725.505 674.211, 728.566 678.572 C 731.628 682.932, 735.060 688.300, 736.192 690.500 C 738.772 695.513, 752.007 713.629, 758.038 720.403 C 760.533 723.206, 764.462 728.005, 766.768 731.067 C 775.323 742.425, 828.434 794.561, 841.500 804.426 C 844.250 806.502, 848.189 809.940, 850.254 812.066 C 852.318 814.192, 856.678 817.744, 859.942 819.960 C 863.206 822.177, 866.158 824.446, 866.502 825.003 C 866.846 825.560, 870.587 828.557, 874.814 831.662 C 879.041 834.767, 884.213 838.836, 886.307 840.703 C 888.401 842.570, 892.496 845.622, 895.409 847.485 C 898.321 849.347, 902.628 852.721, 904.980 854.981 C 907.333 857.241, 911.020 859.990, 913.174 861.089 C 915.328 862.188, 918.757 864.575, 920.795 866.393 C 927.087 872.009, 948.165 886.594, 954.787 889.914 C 961.783 893.421, 962.706 894.890, 963.661 904.034 C 964.352 910.639, 961.443 912, 946.638 912 C 922.751 912, 878.725 918, 862.500 923.467 C 855.350 925.876, 845.227 929.032, 840.003 930.481 C 834.780 931.930, 826.455 934.948, 821.503 937.187 C 816.552 939.427, 808.900 942.564, 804.500 944.160 C 800.100 945.755, 794.201 948.584, 791.391 950.447 C 788.581 952.310, 782.992 955.233, 778.971 956.944 C 774.951 958.655, 768.475 962.216, 764.581 964.856 C 760.686 967.497, 754.767 971.105, 751.428 972.874 C 748.088 974.642, 743.138 977.929, 740.428 980.177 C 737.717 982.425, 733.700 985.404, 731.500 986.797 C 722.890 992.249, 688.366 1024.991, 682.256 1033.500 C 680.282 1036.250, 676.960 1040.300, 674.874 1042.500 C 671.262 1046.311, 665.074 1054.594, 657.692 1065.500 C 646.414 1082.163, 631.063 1112.938, 625.021 1131 C 622.353 1138.975, 618.811 1149.325, 617.150 1154 C 614.310 1161.994, 609.191 1189.333, 604.323 1222.500 C 598.846 1259.827, 606.430 1337.128, 619.483 1377 C 621.373 1382.775, 624.269 1392.913, 625.919 1399.528 C 627.568 1406.143, 630.897 1416.043, 633.316 1421.528 C 635.735 1427.013, 638.741 1434.650, 639.997 1438.500 C 641.253 1442.350, 643.733 1448.425, 645.508 1452 C 647.283 1455.575, 650.432 1462.761, 652.506 1467.970 C 656.365 1477.661, 671.209 1507.293, 673.566 1510.010 C 674.286 1510.841, 676.766 1515.341, 679.077 1520.010 C 681.388 1524.680, 684.946 1530.980, 686.984 1534.012 C 689.023 1537.044, 692.838 1543.344, 695.462 1548.012 C 698.087 1552.680, 701.247 1557.625, 702.484 1559 C 703.722 1560.375, 705.997 1563.750, 707.539 1566.500 C 709.081 1569.250, 711.866 1573.406, 713.727 1575.736 C 719.781 1583.315, 734.916 1608.228, 736.625 1613.430 C 737.541 1616.218, 740.540 1623.675, 743.289 1630 C 746.953 1638.432, 748.927 1644.835, 750.687 1654 C 752.007 1660.875, 754.655 1674.600, 756.572 1684.500 C 765.746 1731.886, 765.537 1779.746, 755.942 1828.725 C 749.472 1861.749, 749.477 1866.298, 755.987 1868.995 C 759.552 1870.471, 761.497 1869.222, 765.222 1863.066 C 766.409 1861.105, 769.512 1857.137, 772.118 1854.248 C 775.475 1850.527, 777.761 1846.592, 779.961 1840.748 C 781.669 1836.212, 784.824 1828.675, 786.972 1824 C 796.509 1803.243, 806.325 1749.261, 805.806 1720.429 C 805.362 1695.763, 810.017 1692.519, 825.845 1706.464 C 829.335 1709.539, 834.960 1713.910, 838.345 1716.177 C 841.730 1718.445, 846.300 1721.725, 848.500 1723.468 C 850.700 1725.211, 855.015 1728.060, 858.089 1729.799 C 861.163 1731.539, 865.438 1734.376, 867.589 1736.105 C 869.740 1737.833, 875.579 1741.152, 880.565 1743.480 C 885.551 1745.807, 891.971 1749.322, 894.832 1751.291 C 897.693 1753.259, 902.614 1755.832, 905.767 1757.008 C 908.920 1758.185, 915.550 1761.317, 920.500 1763.969 C 925.450 1766.621, 933.535 1770.007, 938.467 1771.494 C 943.399 1772.980, 951.274 1775.915, 955.967 1778.014 C 986.178 1791.531, 1037.747 1791.331, 1068 1777.581 C 1073.225 1775.206, 1079.975 1772.476, 1083 1771.513 C 1086.025 1770.551, 1093.450 1767.152, 1099.500 1763.961 C 1105.550 1760.770, 1112.525 1757.379, 1115 1756.424 C 1117.475 1755.470, 1122.425 1752.787, 1126 1750.463 C 1129.575 1748.138, 1134.975 1744.997, 1138 1743.482 C 1141.025 1741.967, 1146.200 1738.830, 1149.500 1736.512 C 1152.800 1734.194, 1157.909 1731.008, 1160.854 1729.433 C 1163.799 1727.858, 1168.074 1724.945, 1170.354 1722.961 C 1172.634 1720.977, 1177.650 1717.305, 1181.500 1714.802 C 1185.350 1712.298, 1192.946 1706.379, 1198.380 1701.648 C 1205.119 1695.781, 1209.980 1692.403, 1213.668 1691.023 C 1224.382 1687.014, 1224.164 1686.487, 1224.522 1717.240 C 1224.794 1740.646, 1226.426 1763.775, 1229.091 1782 C 1229.694 1786.125, 1232.351 1796.250, 1234.995 1804.500 C 1237.639 1812.750, 1240.799 1823.224, 1242.018 1827.775 C 1243.335 1832.696, 1245.738 1838.379, 1247.947 1841.796 C 1249.990 1844.957, 1253.605 1851.280, 1255.981 1855.847 C 1261.423 1866.308, 1263.239 1867.609, 1270.711 1866.403 C 1276.837 1865.414, 1279.918 1862.701, 1276.881 1860.970 C 1274.451 1859.585, 1273.377 1856.216, 1268.917 1836 C 1266.673 1825.825, 1264.218 1814.800, 1263.461 1811.500 C 1259.211 1792.959, 1258.864 1733.800, 1262.857 1708.500 C 1265.203 1693.631, 1269.050 1667.256, 1271.526 1649.063 C 1274.109 1630.083, 1281.225 1613.258, 1291.471 1601.904 C 1293.256 1599.927, 1296.643 1595.427, 1298.998 1591.904 C 1301.353 1588.382, 1304.314 1584.375, 1305.577 1583 C 1311.221 1576.855, 1336.724 1537.342, 1342.689 1525.500 C 1344.628 1521.650, 1347.086 1517.551, 1348.150 1516.390 C 1349.215 1515.230, 1352.112 1509.612, 1354.588 1503.906 C 1357.065 1498.201, 1360.390 1491.500, 1361.977 1489.016 C 1363.564 1486.532, 1366.862 1479.325, 1369.307 1473 C 1371.752 1466.675, 1375.119 1458.800, 1376.789 1455.500 C 1378.459 1452.200, 1381.047 1445.450, 1382.541 1440.500 C 1384.034 1435.550, 1387.256 1426.145, 1389.699 1419.600 C 1392.143 1413.054, 1395.871 1400.229, 1397.984 1391.100 C 1400.097 1381.970, 1402.750 1372.025, 1403.880 1369 C 1406.830 1361.100, 1408.605 1352.619, 1410.996 1335 C 1412.152 1326.475, 1414.627 1310.275, 1416.494 1299 C 1428.982 1223.590, 1421.254 1174.894, 1387.774 1118.046 C 1385.036 1113.397, 1382.434 1108.641, 1381.992 1107.479 C 1381.550 1106.316, 1378.990 1102.471, 1376.303 1098.933 C 1373.615 1095.395, 1370.505 1090.925, 1369.390 1089 C 1363.739 1079.244, 1338.202 1049.357, 1316.543 1027.153 C 1299.604 1009.787, 1267.195 981.998, 1251.264 971.179 C 1247.836 968.852, 1244.012 965.886, 1242.766 964.589 C 1241.520 963.292, 1238.475 960.989, 1236 959.471 C 1233.525 957.954, 1229.780 955.174, 1227.678 953.294 C 1225.577 951.414, 1219.502 946.958, 1214.178 943.392 C 1208.855 939.827, 1201.575 934.899, 1198 932.443 C 1179.393 919.658, 1156.278 904.463, 1149.500 900.561 C 1146.750 898.977, 1143.249 896.646, 1141.721 895.381 C 1140.192 894.115, 1134.567 890.549, 1129.221 887.457 C 1114.841 879.139, 1109.783 876.091, 1100.179 869.957 C 1095.406 866.908, 1088.350 862.702, 1084.500 860.610 C 1080.650 858.517, 1075.250 855.099, 1072.500 853.014 C 1069.750 850.929, 1065.025 847.994, 1062 846.492 C 1058.975 844.990, 1053.800 841.873, 1050.500 839.566 C 1047.200 837.259, 1041.800 833.881, 1038.500 832.060 C 1035.200 830.238, 1030.440 827.248, 1027.922 825.415 C 1025.405 823.582, 1019.999 820.152, 1015.909 817.791 C 1011.820 815.431, 1005.780 811.556, 1002.487 809.180 C 999.194 806.804, 989.075 799.917, 980 793.875 C 955.842 777.791, 944.630 769.185, 901.500 733.622 C 890.963 724.934, 856.670 690.344, 849.472 681.145 C 846.738 677.649, 841.029 670.449, 836.786 665.145 C 832.544 659.840, 826.919 652.352, 824.286 648.505 C 821.654 644.658, 817.457 638.792, 814.960 635.470 C 812.463 632.147, 809.805 627.870, 809.053 625.964 C 808.302 624.059, 805.236 618.333, 802.241 613.241 C 797.287 604.819, 794.702 599.187, 784.458 574.500 C 782.632 570.100, 779.960 560.875, 778.521 554 C 777.082 547.125, 774.785 537.081, 773.417 531.680 C 768.350 511.678, 767.884 475.379, 772.483 459 C 773.333 455.975, 775.795 445.754, 777.955 436.286 C 781.071 422.629, 783.107 416.325, 787.807 405.786 C 791.066 398.479, 794.265 390.849, 794.917 388.832 C 795.568 386.815, 798.378 381.415, 801.162 376.832 C 803.946 372.249, 807.477 366.025, 809.009 363 C 810.542 359.975, 813.248 355.700, 815.023 353.500 C 816.797 351.300, 820.648 345.900, 823.580 341.500 C 832.377 328.298, 840.572 318.085, 851.318 306.934 C 856.918 301.122, 863.788 293.922, 866.585 290.934 C 869.381 287.945, 873.319 284.101, 875.335 282.391 C 884.066 274.986, 874.561 268.304, 861.220 272.470 M 656.250 428.934 C 654.022 430.548, 651.912 432.333, 651.561 432.901 C 651.210 433.469, 647.565 436.255, 643.462 439.092 C 639.358 441.929, 636 444.606, 636 445.042 C 636 445.478, 632.063 448.882, 627.250 452.607 C 615.546 461.666, 562.912 514.410, 555.505 524.500 C 552.275 528.900, 548.092 534.031, 546.209 535.902 C 544.326 537.774, 541.946 540.699, 540.920 542.402 C 539.894 544.106, 536.777 548.425, 533.993 552 C 529.122 558.256, 524.509 564.879, 516.335 577.352 C 514.226 580.571, 509.238 588.148, 505.250 594.189 C 501.263 600.231, 498 605.607, 498 606.135 C 498 606.664, 496.510 609.437, 494.690 612.298 C 486.944 624.471, 461.707 676.213, 458.011 687.500 C 456.750 691.350, 453.780 698.839, 451.410 704.143 C 449.041 709.446, 445.480 719.543, 443.497 726.580 C 441.514 733.618, 438.340 743.124, 436.443 747.705 C 434.176 753.183, 431.637 762.792, 429.029 775.767 C 426.847 786.620, 423.736 799.775, 422.115 805 C 417.457 820.015, 416.153 829.465, 411.424 882.500 C 408.765 912.316, 409.194 965.798, 412.418 1006.500 C 416.584 1059.101, 417.549 1066.718, 423 1090 C 424.609 1096.875, 427.337 1110.600, 429.062 1120.500 C 430.825 1130.625, 433.890 1143.750, 436.066 1150.500 C 438.193 1157.100, 441.343 1168.800, 443.065 1176.500 C 444.787 1184.200, 447.904 1194.550, 449.993 1199.500 C 452.082 1204.450, 455.207 1213.834, 456.937 1220.354 C 458.667 1226.874, 461.821 1235.667, 463.947 1239.895 C 466.072 1244.122, 469.265 1252.288, 471.043 1258.040 C 472.820 1263.793, 476.242 1272.439, 478.649 1277.253 C 481.055 1282.068, 484.376 1289.718, 486.028 1294.253 C 487.681 1298.789, 490.358 1304.349, 491.978 1306.609 C 493.597 1308.869, 497.115 1315.169, 499.796 1320.609 C 506.157 1333.519, 518.990 1357.548, 521.901 1362 C 523.160 1363.925, 526.060 1368.714, 528.345 1372.642 C 534.052 1382.452, 545.631 1399.773, 549.260 1403.930 C 550.908 1405.817, 553.811 1409.793, 555.713 1412.766 C 557.615 1415.738, 560.145 1419.114, 561.335 1420.268 C 562.526 1421.421, 566.200 1425.835, 569.500 1430.076 C 588.883 1454.988, 602.883 1467.853, 618.186 1474.812 C 621.552 1476.343, 621.985 1469.801, 618.768 1466.042 C 616.591 1463.499, 614.717 1459.743, 613.639 1455.767 C 612.706 1452.320, 608.607 1442.750, 604.532 1434.500 C 594.766 1414.732, 584.807 1392.203, 581.986 1383.500 C 580.739 1379.650, 578.030 1373.120, 575.968 1368.989 C 573.906 1364.858, 570.811 1356.607, 569.090 1350.652 C 567.369 1344.698, 564.381 1336.449, 562.449 1332.322 C 560.517 1328.196, 557.356 1318.987, 555.424 1311.859 C 553.493 1304.731, 550.398 1295.434, 548.545 1291.200 C 546.693 1286.965, 543.740 1276.975, 541.983 1269 C 540.226 1261.025, 537.008 1249.775, 534.831 1244 C 532.450 1237.681, 529.483 1226.566, 527.381 1216.088 C 525.460 1206.511, 522.602 1194.586, 521.031 1189.588 C 517.106 1177.110, 515.553 1169.512, 512.528 1148 C 511.097 1137.825, 508.832 1124.775, 507.495 1119 C 493.439 1058.298, 492.857 893.727, 506.477 831.500 C 508.404 822.700, 511.600 805.846, 513.580 794.046 C 515.945 779.952, 518.481 768.631, 520.973 761.046 C 523.060 754.696, 525.925 744.314, 527.341 737.974 C 530.013 726.014, 531.755 720.241, 536.925 706.206 C 538.605 701.644, 540.906 694.284, 542.038 689.850 C 543.170 685.416, 545.827 677.898, 547.942 673.144 C 550.056 668.390, 553.420 659.380, 555.416 653.122 C 557.412 646.864, 560.626 638.917, 562.559 635.462 C 564.491 632.006, 567.567 624.740, 569.394 619.314 C 572.835 609.096, 575.288 603.592, 577.564 600.984 C 578.292 600.150, 580.456 595.425, 582.372 590.484 C 586.778 579.128, 615.799 522.236, 620.633 515.481 C 621.806 513.841, 624.130 509.484, 625.799 505.797 C 627.467 502.110, 630.841 496.260, 633.297 492.797 C 635.752 489.334, 638.979 484.025, 640.467 481 C 641.955 477.975, 645.609 471.788, 648.586 467.250 C 651.564 462.712, 656.435 455.288, 659.411 450.750 C 669.241 435.764, 670.623 431.623, 667 428 C 664.220 425.220, 660.990 425.501, 656.250 428.934 M 728 1098.069 C 713.575 1098.947, 703.094 1101.432, 693.364 1106.280 C 689.589 1108.161, 683.258 1110.924, 679.296 1112.420 C 666.407 1117.286, 665.301 1119.462, 671.551 1127.655 C 673.964 1130.820, 673.964 1130.820, 679.232 1129.450 C 701.185 1123.743, 762.738 1120.482, 785.500 1123.820 C 809.353 1127.318, 818.850 1129.357, 827 1132.732 C 831.675 1134.668, 840.615 1137.983, 846.868 1140.097 C 853.120 1142.212, 860.320 1145.241, 862.868 1146.829 C 865.415 1148.416, 871.048 1151.593, 875.386 1153.889 C 883.991 1158.444, 899.262 1169.433, 908.104 1177.431 C 911.186 1180.219, 914.786 1183.450, 916.104 1184.612 C 920.099 1188.133, 931.585 1201.334, 932.973 1204 C 933.688 1205.375, 936.726 1210.248, 939.723 1214.829 C 942.720 1219.409, 946.196 1226.159, 947.448 1229.829 C 948.699 1233.498, 951.778 1241, 954.290 1246.500 C 959.287 1257.441, 960.812 1262.697, 964.009 1280 C 965.178 1286.325, 967.438 1298.268, 969.031 1306.540 C 974.448 1334.662, 974.042 1358.985, 967.517 1397.251 C 965.618 1408.388, 962.898 1425.375, 961.472 1435 C 959.803 1446.267, 957.809 1455.528, 955.875 1461 C 944.281 1493.795, 955.784 1501.344, 1017.500 1501.443 C 1057.156 1501.508, 1054.465 1501.997, 1064.415 1492.903 C 1078.931 1479.637, 1076.972 1478.847, 1027.344 1477.957 C 972.933 1476.981, 973.016 1477.038, 982.913 1447.759 C 989.285 1428.906, 995.009 1366.379, 993.510 1332 C 991.433 1284.386, 988.555 1263.954, 981.672 1247.960 C 980.834 1246.012, 978.956 1240.162, 977.498 1234.960 C 976.040 1229.757, 973.246 1222.575, 971.289 1219 C 969.332 1215.425, 965.406 1208.225, 962.564 1203 C 952.961 1185.345, 936.694 1164.800, 925 1155.556 C 921.975 1153.165, 918.150 1149.781, 916.500 1148.036 C 912.306 1143.600, 892.849 1130.872, 882.312 1125.670 C 877.465 1123.278, 870.575 1119.717, 867 1117.757 C 863.425 1115.797, 856.926 1113.202, 852.557 1111.990 C 848.188 1110.778, 840.659 1108.278, 835.825 1106.433 C 815.759 1098.776, 772.057 1095.386, 728 1098.069 M 1220 1097.689 C 1197.925 1099.355, 1157.010 1111.259, 1143.518 1119.940 C 1140.208 1122.069, 1134.153 1125.446, 1130.063 1127.444 C 1125.973 1129.442, 1120.348 1132.988, 1117.563 1135.324 C 1114.778 1137.660, 1111.150 1140.394, 1109.500 1141.400 C 1107.850 1142.405, 1104.475 1145.314, 1102 1147.864 C 1099.525 1150.414, 1095.871 1153.921, 1093.879 1155.657 C 1091.888 1157.393, 1088.817 1160.820, 1087.056 1163.273 C 1085.294 1165.726, 1082.615 1168.648, 1081.101 1169.767 C 1065.922 1180.990, 1061.024 1217.097, 1075.043 1214.426 C 1083.787 1212.760, 1083.297 1213.098, 1088.470 1205.146 C 1097.486 1191.285, 1129.910 1162.455, 1146.862 1153.225 C 1150.513 1151.237, 1155.629 1148.164, 1158.232 1146.395 C 1160.835 1144.626, 1165.110 1142.403, 1167.732 1141.454 C 1170.354 1140.505, 1177.675 1137.561, 1184 1134.911 C 1219.317 1120.114, 1301.576 1118.689, 1326.594 1132.441 C 1351.590 1146.181, 1373.314 1143.929, 1357.530 1129.235 C 1330.028 1103.632, 1283.292 1092.911, 1220 1097.689 M 1288.872 1263.662 C 1288.118 1264.576, 1285.183 1266.350, 1282.352 1267.604 C 1278.695 1269.224, 1275.843 1271.567, 1272.507 1275.692 C 1261.018 1289.900, 1235.297 1304.767, 1217.424 1307.531 C 1184.417 1312.636, 1144.787 1309.698, 1122.561 1300.497 C 1117.773 1298.515, 1110.175 1295.824, 1105.678 1294.517 C 1101.180 1293.211, 1096.733 1291.844, 1095.794 1291.481 C 1087.170 1288.139, 1087.586 1304.149, 1096.240 1308.624 C 1097.925 1309.495, 1101.396 1312.299, 1103.954 1314.854 C 1106.512 1317.409, 1111.957 1321.247, 1116.053 1323.382 C 1120.149 1325.518, 1125.407 1328.628, 1127.738 1330.293 C 1131.703 1333.127, 1153.660 1341.524, 1169.500 1346.265 C 1232.309 1365.063, 1313.982 1310.951, 1292.839 1264.547 C 1291.481 1261.565, 1290.741 1261.400, 1288.872 1263.662 M 716.540 1266.935 C 714.706 1269.903, 714.891 1278.086, 716.982 1286.548 C 725.158 1319.620, 737.352 1332.402, 773.500 1345.794 C 781.835 1348.882, 811.790 1350.147, 827.397 1348.070 C 841.592 1346.181, 877.877 1334.438, 884.250 1329.671 C 886.037 1328.333, 890.875 1325.358, 895 1323.060 C 899.125 1320.761, 903.850 1317.437, 905.500 1315.672 C 907.150 1313.907, 910.682 1310.901, 913.349 1308.991 C 920.320 1303.999, 922.741 1298.122, 919.965 1292.934 C 917.944 1289.159, 914.654 1289.955, 879 1302.843 C 831.021 1320.186, 755.510 1305.403, 735.889 1274.827 C 732.295 1269.226, 731.198 1268.492, 725 1267.543 C 722.525 1267.164, 719.750 1266.643, 718.834 1266.386 C 717.918 1266.129, 716.886 1266.376, 716.540 1266.935 M 983.765 1576.035 C 971.959 1577.023, 957.739 1579.283, 948.576 1581.628 C 939.293 1584.005, 922.490 1585.958, 911 1585.996 C 898.657 1586.037, 898.398 1586.152, 897.522 1592 C 896.849 1596.500, 896.849 1596.500, 905.500 1603.500 C 924.707 1619.041, 938.794 1628.665, 947.214 1631.999 C 951.771 1633.803, 957.999 1636.528, 961.052 1638.054 C 983.114 1649.080, 1027.289 1647.787, 1057 1635.247 C 1073.315 1628.360, 1089.788 1618.203, 1099.080 1609.299 C 1101.599 1606.885, 1105.874 1603.465, 1108.580 1601.698 C 1121.301 1593.393, 1115.193 1585.351, 1096.178 1585.368 C 1083.119 1585.379, 1079.529 1584.973, 1063.632 1581.688 C 1035.999 1575.977, 1008.082 1574.001, 983.765 1576.035" stroke="none" fill="#040404" fill-rule="evenodd"/></svg>