<svg xmlns="http://www.w3.org/2000/svg" width="2000" height="2000" viewBox="0 0 2000 2000" version="1.1"><path d="M 559.500 450.997 C 493.333 458.137, 440.101 495.223, 325.526 614 C 293.353 647.354, 266.525 673.373, 247 690.159 C 227.815 706.652, 189.968 735.672, 177 743.832 C 154.983 757.686, 123.144 776, 121.076 776 C 120.536 776, 115.236 777.985, 109.297 780.410 C 99.297 784.495, 94.246 786.158, 83.295 788.972 C 67.769 792.962, 69.930 804.113, 87.255 809.397 C 127.283 821.606, 176.870 852.470, 237.253 902.760 C 289.489 946.265, 383.711 1013.653, 400.707 1019.664 C 401.693 1020.013, 403.400 1021.054, 404.500 1021.979 C 408.384 1025.243, 447.362 1046, 449.607 1046 C 450.027 1046, 451.300 1046.827, 452.436 1047.838 C 460.421 1054.946, 532.274 1077.863, 559.500 1081.985 C 563.350 1082.568, 569.875 1083.706, 574 1084.515 C 604.807 1090.552, 660.316 1093.013, 698 1090.014 C 716.400 1088.549, 760.307 1089.119, 780 1091.078 C 801.999 1093.266, 851.171 1090.508, 882 1085.356 C 887.225 1084.483, 895.227 1083.180, 899.782 1082.460 C 915.872 1079.918, 953.190 1069.769, 975 1062.004 C 1004.626 1051.455, 1001.497 1051.840, 1007.322 1058.026 C 1012.137 1063.139, 1069.716 1131.028, 1111.776 1181.182 C 1130.770 1203.832, 1131.635 1204.600, 1141.500 1207.572 C 1144.800 1208.566, 1148.175 1209.922, 1149 1210.586 C 1149.825 1211.249, 1181.550 1227.355, 1219.500 1246.376 C 1428.442 1351.102, 1410.995 1341.411, 1411.017 1352.763 C 1411.053 1370.702, 1414.518 1379.792, 1425.403 1390.500 C 1434.086 1399.041, 1429.191 1396.455, 1589 1476.933 C 1653.075 1509.200, 1706.850 1536.294, 1708.500 1537.141 C 1787.670 1577.798, 1799 1581.925, 1799 1570.100 C 1799 1563.741, 1797.861 1563.033, 1744.715 1536.315 C 1682.980 1505.279, 1676.868 1501.373, 1651.117 1476.500 C 1562.276 1390.689, 1569.180 1269.611, 1664.956 1233.800 C 1710.536 1216.757, 1760.563 1214.498, 1804.500 1227.499 C 1808.900 1228.801, 1815.733 1230.800, 1819.684 1231.942 C 1825.673 1233.672, 1878.929 1259.534, 1903 1272.400 C 1906.575 1274.311, 1911.075 1276.569, 1913 1277.417 C 1914.925 1278.266, 1917.175 1279.386, 1918 1279.908 C 1932.623 1289.148, 1945.960 1289.197, 1944.728 1280.005 C 1943.837 1273.367, 1948.409 1275.804, 1759.500 1181.266 C 1735.850 1169.430, 1715.375 1159.112, 1714 1158.337 C 1712.625 1157.562, 1693.725 1148.099, 1672 1137.309 C 1650.275 1126.519, 1631.375 1117.088, 1630 1116.351 C 1573.304 1085.968, 1561.397 1084.334, 1536.303 1103.495 C 1528.543 1109.420, 1528.637 1109.435, 1508.500 1099.188 C 1498.600 1094.150, 1441.450 1065.329, 1381.500 1035.139 C 1321.550 1004.950, 1269.350 978.458, 1265.500 976.267 C 1261.650 974.076, 1256.312 971.028, 1253.638 969.494 C 1248.832 966.736, 1248.459 966.689, 1221.138 965.398 C 1180.339 963.469, 1155 960.899, 1155 958.688 C 1155 958.017, 1160.063 953.677, 1166.250 949.045 C 1184.588 935.317, 1197.811 924.779, 1226.538 901 C 1285.651 852.069, 1335.346 820.247, 1369.226 809.628 C 1389.943 803.135, 1389.194 793.567, 1367.500 787.590 C 1309.170 771.519, 1231.738 716.870, 1151.500 635.142 C 1048.198 529.923, 1029.074 512.337, 992.674 489.088 C 973.192 476.644, 948.812 464.195, 936 460.146 C 888.311 445.079, 837.626 446.410, 786 464.086 C 747.113 477.400, 751.377 476.506, 727 476.455 C 705.500 476.411, 705.500 476.411, 695 472.664 C 637.528 452.155, 601.760 446.436, 559.500 450.997 M 558.500 467.657 C 544.547 469.823, 520.065 477.506, 508 483.505 C 504.425 485.283, 500.405 487.078, 499.067 487.494 C 474.029 495.280, 415.737 544.116, 350.454 612 C 294.504 670.179, 266.148 697.219, 236 721.142 C 229.125 726.597, 222.600 731.868, 221.500 732.855 C 216.589 737.261, 182.716 760.225, 164.500 771.498 C 153.625 778.228, 122.699 794, 120.378 794 C 110.571 794, 114.573 800.638, 128.850 808.052 C 151.962 820.053, 191.350 844.103, 194.902 848.381 C 195.640 849.272, 196.673 850, 197.196 850 C 198.808 850, 232.844 876.922, 251.500 892.954 C 269.496 908.418, 315.821 943.950, 333 955.464 C 369.407 979.867, 388.592 992.517, 395.993 997 C 400.987 1000.025, 406.744 1003.595, 408.787 1004.934 C 416.027 1009.679, 436.687 1021.102, 450.062 1027.754 C 479.621 1042.457, 488.663 1045.890, 528.500 1057.529 C 539.557 1060.760, 557.121 1064.787, 565.500 1066.013 C 569.350 1066.576, 575.425 1067.669, 579 1068.442 C 582.575 1069.215, 588.650 1070.139, 592.500 1070.495 C 596.350 1070.852, 604.675 1071.775, 611 1072.546 C 641.120 1076.221, 666.787 1076.319, 696.500 1072.871 C 708.535 1071.475, 764.110 1072.324, 777 1074.102 C 797.184 1076.885, 858.143 1073.272, 889 1067.463 C 932.435 1059.286, 989 1042.031, 989 1036.959 C 989 1032.186, 975.990 1021.148, 955.500 1008.537 C 946.700 1003.121, 937.250 997.239, 934.500 995.467 C 931.750 993.695, 925.225 989.633, 920 986.440 C 914.775 983.248, 905.325 977.390, 899 973.424 C 884.337 964.229, 840.955 937.453, 826.130 928.448 C 813.124 920.548, 806 914.691, 806 911.900 C 806 909.545, 817.262 886.763, 820.657 882.250 C 824.306 877.400, 822.059 876.887, 855.500 890.198 C 866.500 894.576, 878.200 899.182, 881.500 900.433 C 884.800 901.683, 891.775 904.414, 897 906.500 C 902.225 908.587, 913.250 912.964, 921.500 916.227 C 929.750 919.490, 938.525 922.970, 941 923.962 C 943.475 924.953, 950.675 927.782, 957 930.249 C 971.411 935.870, 983.174 940.536, 989 942.944 C 991.475 943.966, 996.200 945.917, 999.500 947.279 C 1010.062 951.639, 1021.879 953.077, 1067 955.497 C 1082.675 956.337, 1100.148 957.513, 1105.828 958.109 C 1117.136 959.296, 1121.418 958.848, 1127.270 955.862 C 1133.671 952.597, 1181.199 916.913, 1198.707 902.229 C 1203.119 898.528, 1213.203 890.072, 1221.115 883.439 C 1244.383 863.929, 1280.435 837.057, 1287 834.330 C 1287.825 833.987, 1289.625 832.733, 1291 831.543 C 1295.146 827.955, 1319.214 813.889, 1333.709 806.583 C 1346.704 800.033, 1346.558 799.515, 1329.500 791.583 C 1265.718 761.922, 1205.626 715.053, 1125.954 632.824 C 1024.351 527.961, 983.349 494.933, 932.617 477.087 C 891.854 462.748, 835.741 463.310, 795.500 478.460 C 788.564 481.071, 770.992 486.895, 757.500 491.053 C 736.671 497.473, 695.289 492.930, 668 481.228 C 642.594 470.333, 586.252 463.351, 558.500 467.657 M 505 723.024 C 493.175 724.062, 481.025 725.353, 478 725.892 C 433.335 733.851, 408.324 740.548, 354 759.092 C 341.075 763.504, 328.475 767.962, 326 768.999 C 318.075 772.318, 280.916 783.833, 268.179 786.916 C 250.270 791.252, 245.233 795.128, 249.347 801.407 C 254.088 808.643, 277.478 803.813, 333.500 784.031 C 496.188 726.584, 561.069 723.991, 666 770.745 C 703.581 787.490, 715.643 789.829, 736.545 784.427 C 745.934 782.001, 761.016 776.279, 774.500 770.027 C 873.953 723.917, 945.153 727.224, 1110 785.611 C 1166.173 805.507, 1183.773 809.208, 1187.542 801.919 C 1191.242 794.764, 1186.746 790.232, 1173.319 787.579 C 1160.315 785.010, 1113.873 770.385, 1100 764.490 C 1094.784 762.274, 1087.016 759.559, 1077 756.452 C 1074.525 755.685, 1067.100 753.281, 1060.500 751.110 C 1035.724 742.961, 1018.425 738.053, 995.500 732.669 C 971.254 726.975, 963.508 725.903, 916 721.664 C 912.975 721.394, 899.025 722.028, 885 723.072 C 839.800 726.439, 816.198 732.800, 767.500 754.740 C 756.500 759.696, 745.925 764.244, 744 764.847 C 742.075 765.450, 737.417 766.908, 733.650 768.087 C 728.089 769.826, 725.077 770.147, 717.650 769.789 C 704.374 769.150, 700.630 767.923, 668.500 753.684 C 658.050 749.053, 646.575 744.133, 643 742.751 C 639.425 741.369, 633.538 739.094, 629.918 737.696 C 613.440 731.332, 585.834 725.673, 561 723.566 C 531.974 721.105, 527.359 721.060, 505 723.024 M 829.556 901.353 C 824.349 906.560, 826.184 908.781, 845.500 920.644 C 869.833 935.588, 869.440 935.426, 872.257 931.709 C 880.781 920.459, 879.120 916.935, 862.243 910.467 C 856.884 908.414, 848.675 905.188, 844 903.300 C 831.962 898.437, 832.411 898.498, 829.556 901.353 M 894.769 927.750 C 892.230 930.634, 888 939.760, 888 942.356 C 888 946.418, 890.401 948.205, 923 968.409 C 940.325 979.147, 955.095 988.446, 955.823 989.074 C 961.052 993.585, 977.850 1001.329, 979.796 1000.126 C 981.285 999.206, 996 968.941, 996 966.799 C 996 964.407, 993.265 962.801, 981 957.987 C 975.225 955.721, 967.125 952.367, 963 950.535 C 958.875 948.702, 953.483 946.662, 951.019 946.001 C 948.554 945.339, 941.651 942.594, 935.679 939.899 C 929.707 937.205, 924.396 935, 923.876 935 C 923.356 935, 917.811 932.975, 911.553 930.500 C 898.949 925.515, 897.016 925.198, 894.769 927.750 M 1015.107 971.115 C 1012.154 974.285, 994 1009.828, 994 1012.439 C 994 1015.692, 1007.128 1032.370, 1033.462 1062.572 C 1043.465 1074.044, 1092.057 1131.521, 1101 1142.459 C 1119.702 1165.332, 1131.853 1177.846, 1133.417 1175.841 C 1134.031 1175.054, 1170.603 1103.133, 1184.695 1075 C 1193.098 1058.225, 1200.361 1043.825, 1200.837 1043 C 1208.868 1029.066, 1229.264 984.784, 1228.009 984.007 C 1226.311 982.956, 1220.843 982.319, 1206.500 981.504 C 1201 981.191, 1188.850 980.290, 1179.500 979.502 C 1170.150 978.713, 1152.375 977.588, 1140 977.001 C 1127.625 976.414, 1110.975 975.285, 1103 974.492 C 1095.025 973.698, 1073.425 972.356, 1055 971.510 C 1036.575 970.663, 1020.508 969.748, 1019.296 969.477 C 1017.866 969.158, 1016.394 969.734, 1015.107 971.115 M 1246.263 990.393 C 1241.851 996.002, 1146.822 1187.155, 1147.367 1189.326 C 1148.092 1192.214, 1411.782 1326, 1416.751 1326 C 1419.382 1326, 1421.096 1323.886, 1426.075 1314.500 C 1428.409 1310.100, 1430.877 1305.825, 1431.560 1305 C 1432.242 1304.175, 1434.015 1300.575, 1435.499 1297 C 1436.983 1293.425, 1456.266 1254.747, 1478.349 1211.050 C 1526.112 1116.537, 1523.820 1122.990, 1511.085 1118.893 C 1509.113 1118.258, 1507.050 1117.405, 1506.500 1116.997 C 1505.950 1116.589, 1457.800 1092.294, 1399.500 1063.008 C 1341.200 1033.722, 1284.500 1005.146, 1273.500 999.507 C 1250.042 987.479, 1248.865 987.085, 1246.263 990.393 M 1559 1109.490 C 1551.786 1111.847, 1545.212 1117.614, 1540.750 1125.500 C 1535.411 1134.935, 1516.761 1171.032, 1513.366 1178.500 C 1510.616 1184.550, 1461.300 1282.706, 1440.507 1323.518 C 1421.391 1361.035, 1423.384 1373.219, 1451.112 1388.374 C 1456.825 1391.497, 1462.175 1394.431, 1463 1394.893 C 1463.825 1395.356, 1468.752 1397.706, 1473.948 1400.117 C 1479.144 1402.528, 1487.919 1406.931, 1493.448 1409.902 C 1498.977 1412.873, 1504.620 1415.798, 1505.989 1416.402 C 1507.358 1417.006, 1518.189 1422.338, 1530.058 1428.250 C 1541.927 1434.162, 1552.362 1439, 1553.248 1439 C 1554.133 1439, 1555.586 1439.729, 1556.476 1440.619 C 1563.027 1447.170, 1556.379 1435.291, 1545.922 1421.760 C 1542.115 1416.834, 1539 1412.402, 1539 1411.910 C 1539 1411.419, 1537.480 1409.026, 1535.621 1406.591 C 1475.060 1327.251, 1511.397 1207.120, 1603.833 1181.083 C 1607.500 1180.050, 1611.633 1178.760, 1613.017 1178.216 C 1622.929 1174.320, 1640.020 1172.031, 1666.410 1171.065 C 1689.952 1170.203, 1696.922 1169.371, 1694.933 1167.661 C 1694.695 1167.456, 1668.400 1154.157, 1636.500 1138.108 C 1571.922 1105.618, 1571.421 1105.433, 1559 1109.490 M 1642 1188.669 C 1542.724 1207.770, 1499.272 1279.902, 1534.137 1367.727 C 1545.824 1397.166, 1573.718 1433.630, 1601 1455.132 C 1605.125 1458.383, 1609.044 1461.483, 1609.708 1462.022 C 1613.667 1465.229, 1612.572 1459.132, 1608.074 1452.921 C 1578.152 1411.607, 1564.223 1354.682, 1574.325 1315 C 1575.795 1309.225, 1576.998 1303.876, 1576.999 1303.113 C 1577.005 1295.192, 1596.187 1264.593, 1609.396 1251.434 C 1639.359 1221.584, 1675.648 1206.981, 1730.937 1202.526 C 1741.627 1201.664, 1750.552 1200.782, 1750.768 1200.565 C 1751.458 1199.875, 1733.983 1194.870, 1720 1191.751 C 1706.937 1188.838, 1652.336 1186.680, 1642 1188.669" stroke="none" fill="#060606" fill-rule="evenodd"/></svg>