<svg xmlns="http://www.w3.org/2000/svg" width="2000" height="2000" viewBox="0 0 2000 2000" version="1.1"><path d="M 951.204 211.036 C 947.191 211.542, 939.091 213.041, 933.204 214.367 C 927.317 215.694, 918 218.447, 912.500 220.485 C 907 222.524, 898.704 226.191, 894.065 228.634 C 889.427 231.077, 882.902 234.921, 879.565 237.176 C 876.229 239.430, 870.437 243.760, 866.694 246.797 C 862.951 249.834, 856.123 256.319, 851.520 261.208 C 846.918 266.097, 840.499 274.013, 837.256 278.799 C 834.013 283.584, 829.907 290.119, 828.132 293.320 C 826.356 296.521, 822.936 303.946, 820.530 309.820 C 818.124 315.694, 814.702 326.125, 812.925 333 L 809.695 345.500 809.728 368.500 L 809.760 391.500 811.400 399 C 812.302 403.125, 814.427 411, 816.121 416.500 C 817.816 422, 821.401 431.165, 824.087 436.867 C 826.773 442.569, 831.538 451.092, 834.676 455.808 C 837.814 460.524, 843.605 468.255, 847.545 472.989 C 851.485 477.723, 858.936 485.147, 864.104 489.486 C 869.272 493.826, 876.875 499.550, 881 502.206 C 885.125 504.862, 892.579 509.040, 897.564 511.490 C 902.550 513.940, 912 517.732, 918.564 519.916 C 925.129 522.100, 934.775 524.667, 940 525.619 L 949.500 527.351 967 527.426 L 984.500 527.500 994.500 525.635 C 1000 524.609, 1009.718 522.066, 1016.095 519.985 C 1022.473 517.904, 1032.333 513.881, 1038.007 511.045 C 1043.681 508.209, 1052.407 503.101, 1057.397 499.694 C 1062.388 496.287, 1071.361 488.784, 1077.338 483.020 C 1083.315 477.256, 1091.238 468.481, 1094.946 463.520 C 1098.653 458.559, 1103.516 451.341, 1105.753 447.481 C 1107.989 443.620, 1111.389 436.645, 1113.307 431.981 C 1115.226 427.316, 1117.942 419.844, 1119.342 415.375 C 1120.743 410.906, 1122.698 403.481, 1123.687 398.875 L 1125.485 390.500 1125.472 369 L 1125.459 347.500 1123.241 337.396 C 1122.020 331.839, 1119.847 323.739, 1118.411 319.396 C 1116.975 315.053, 1113.795 307.226, 1111.345 302.001 C 1108.896 296.777, 1103.445 287.327, 1099.232 281.001 L 1091.574 269.500 1080.037 257.919 C 1073.692 251.549, 1065.374 244.041, 1061.554 241.234 C 1057.734 238.427, 1050.309 233.687, 1045.054 230.701 C 1039.799 227.714, 1031.450 223.697, 1026.500 221.774 C 1021.550 219.850, 1013.799 217.295, 1009.275 216.096 C 1004.751 214.897, 997.326 213.247, 992.775 212.431 C 988.224 211.615, 978.650 210.760, 971.500 210.531 C 964.350 210.303, 955.217 210.530, 951.204 211.036 M 954.708 236.119 C 949.872 236.645, 940.719 238.388, 934.369 239.991 C 927.047 241.840, 918.701 244.889, 911.559 248.324 C 905.364 251.302, 896.754 256.129, 892.427 259.049 C 888.099 261.970, 880.555 268.216, 875.662 272.930 C 870.769 277.643, 863.878 285.325, 860.348 290 C 856.817 294.675, 851.266 303.900, 848.012 310.500 C 844.758 317.100, 840.921 326.550, 839.486 331.500 C 838.051 336.450, 836.238 345.225, 835.458 351 C 834.677 356.775, 834.030 365.267, 834.020 369.872 C 834.009 374.476, 834.702 383.026, 835.561 388.872 C 836.420 394.717, 838.640 404.062, 840.496 409.639 C 842.352 415.215, 846.107 424.215, 848.842 429.639 C 851.576 435.062, 856.183 442.875, 859.078 447 C 861.974 451.125, 868.448 458.550, 873.465 463.500 C 878.482 468.450, 886.617 475.254, 891.543 478.621 C 896.469 481.987, 903.296 486.147, 906.712 487.866 C 910.129 489.585, 916.204 492.289, 920.212 493.876 C 924.221 495.464, 931.550 497.826, 936.500 499.125 L 945.500 501.488 967.500 501.450 L 989.500 501.411 1001.500 498.161 C 1008.100 496.373, 1018.117 492.706, 1023.761 490.012 C 1029.404 487.317, 1037.264 482.950, 1041.228 480.306 C 1045.192 477.663, 1053.104 471.015, 1058.811 465.534 C 1064.517 460.052, 1071.832 452.013, 1075.067 447.668 C 1078.301 443.324, 1083.385 434.984, 1086.365 429.135 C 1089.345 423.286, 1093.176 414.127, 1094.878 408.782 C 1096.580 403.437, 1098.467 395.871, 1099.073 391.970 C 1099.726 387.758, 1100.007 376.476, 1099.764 364.189 L 1099.355 343.500 1096.136 333 C 1094.366 327.225, 1090.260 317.047, 1087.012 310.382 C 1083.764 303.717, 1078.430 294.717, 1075.160 290.382 C 1071.890 286.047, 1064.553 277.985, 1058.857 272.467 C 1053.161 266.948, 1045.575 260.526, 1042 258.196 C 1038.425 255.866, 1031.450 251.971, 1026.500 249.542 C 1021.550 247.112, 1013.357 243.737, 1008.293 242.042 C 1003.229 240.347, 994.679 238.318, 989.293 237.534 C 983.907 236.749, 975.900 235.895, 971.500 235.635 C 967.100 235.375, 959.543 235.593, 954.708 236.119 M 791 507.080 C 786.875 507.527, 778.322 509.209, 771.993 510.817 C 765.664 512.425, 756.992 515.194, 752.722 516.972 C 748.452 518.749, 741.141 522.520, 736.474 525.352 C 731.807 528.183, 724.678 533.275, 720.631 536.667 C 716.585 540.059, 710.377 546.454, 706.837 550.879 C 703.297 555.303, 698.465 562.307, 696.098 566.443 C 693.732 570.578, 690.275 577.481, 688.415 581.783 C 686.555 586.085, 683.677 594.756, 682.018 601.052 C 680.360 607.348, 676.772 623.750, 674.044 637.500 C 671.317 651.250, 667.505 671.950, 665.574 683.500 C 663.642 695.050, 660.717 713.950, 659.072 725.500 C 657.427 737.050, 655.176 754.150, 654.068 763.500 C 652.961 772.850, 650.936 791.525, 649.568 805 C 648.200 818.475, 646.407 838.500, 645.583 849.500 C 644.759 860.500, 643.603 877.600, 643.013 887.500 C 642.424 897.400, 641.694 906.738, 641.391 908.251 C 641.041 910.002, 640.052 911.179, 638.670 911.489 C 637.477 911.757, 627.385 912.911, 616.245 914.053 C 605.105 915.195, 594.123 916.670, 591.841 917.331 C 589.418 918.033, 586.820 919.699, 585.596 921.337 L 583.500 924.142 583 947.609 L 582.500 971.075 581.156 971.905 C 580.416 972.361, 577.266 972.999, 574.156 973.322 C 571.045 973.645, 514.725 978.887, 449 984.971 C 383.275 991.055, 324.454 996.713, 318.287 997.546 C 312.120 998.378, 303.589 1000.197, 299.328 1001.588 C 295.068 1002.978, 287.978 1005.991, 283.574 1008.282 C 279.171 1010.573, 272.332 1015.019, 268.377 1018.162 C 264.422 1021.305, 258.736 1026.941, 255.741 1030.688 C 252.745 1034.435, 248.746 1040.200, 246.853 1043.500 C 244.961 1046.800, 242.470 1051.750, 241.319 1054.500 C 240.167 1057.250, 238.206 1063.775, 236.960 1069 L 234.696 1078.500 234.651 1089 C 234.627 1094.775, 235.174 1102.200, 235.868 1105.500 C 236.561 1108.800, 238.063 1114.425, 239.205 1118 C 240.347 1121.575, 242.757 1127.425, 244.561 1131 C 246.365 1134.575, 249.901 1140.399, 252.419 1143.942 L 256.996 1150.385 255.748 1151.177 C 255.062 1151.613, 246.175 1151.991, 236 1152.017 C 225.825 1152.044, 214.395 1152.465, 210.601 1152.954 C 206.003 1153.547, 201.168 1155.095, 196.101 1157.597 C 191.263 1159.986, 186.452 1163.396, 182.866 1166.979 C 179.768 1170.074, 175.996 1175.048, 174.484 1178.031 C 172.973 1181.014, 170.895 1185.898, 169.868 1188.884 L 168 1194.313 168 1262 L 168 1329.687 169.868 1335.116 C 170.895 1338.102, 172.966 1342.972, 174.469 1345.939 C 175.972 1348.905, 179.519 1353.639, 182.351 1356.457 C 185.183 1359.276, 189.634 1362.767, 192.242 1364.216 C 194.850 1365.665, 199.575 1367.883, 202.742 1369.145 L 208.500 1371.440 247.087 1371.792 L 285.674 1372.144 286.336 1432.822 C 286.700 1466.195, 286.999 1558.987, 286.999 1639.027 L 287 1784.555 288.651 1787.027 C 289.559 1788.387, 291.697 1791.001, 293.401 1792.835 C 295.106 1794.670, 297.850 1796.907, 299.500 1797.807 L 302.500 1799.444 343.607 1799.821 L 384.715 1800.199 387.917 1798.543 C 389.678 1797.632, 392.961 1795.225, 395.213 1793.193 C 397.464 1791.162, 400.024 1787.925, 400.903 1786 L 402.500 1782.500 402.790 1577.205 L 403.081 1371.910 523.457 1372.205 C 589.665 1372.367, 644.209 1372.875, 644.667 1373.333 C 645.125 1373.791, 645.729 1453.441, 646.010 1550.333 L 646.520 1726.500 649.348 1735 C 650.904 1739.675, 653.936 1746.796, 656.087 1750.824 C 658.237 1754.852, 661.969 1760.702, 664.378 1763.824 C 666.788 1766.946, 671.439 1772.049, 674.715 1775.163 C 677.990 1778.278, 683.861 1782.891, 687.761 1785.414 C 691.661 1787.937, 698.210 1791.346, 702.313 1792.989 C 706.417 1794.632, 712.638 1796.620, 716.137 1797.406 C 719.637 1798.192, 726.100 1799.125, 730.500 1799.478 C 734.900 1799.831, 742.775 1799.626, 748 1799.022 C 753.225 1798.419, 761.244 1796.634, 765.820 1795.057 C 770.396 1793.480, 777.718 1790.027, 782.092 1787.383 C 786.465 1784.739, 793.136 1779.754, 796.915 1776.305 C 800.694 1772.855, 806.031 1766.988, 808.776 1763.267 C 811.520 1759.545, 815.456 1753.125, 817.522 1749 C 819.588 1744.875, 822.107 1739.094, 823.119 1736.153 C 824.131 1733.211, 825.639 1727.514, 826.470 1723.492 C 827.301 1719.469, 834.303 1644.701, 842.030 1557.339 C 849.757 1469.978, 856.607 1392.537, 857.254 1385.250 L 858.429 1372 1222.714 1372 L 1587 1372 1587 1577.294 L 1587 1782.588 1590.250 1788.008 C 1592.439 1791.658, 1595.106 1794.420, 1598.420 1796.464 L 1603.339 1799.500 1641.658 1799.823 C 1667.244 1800.039, 1681.765 1799.775, 1685.360 1799.029 L 1690.743 1797.911 1695.002 1794.266 C 1697.344 1792.262, 1699.958 1789.019, 1700.811 1787.061 L 1702.361 1783.500 1702.974 1578.790 C 1703.311 1466.199, 1703.927 1373.739, 1704.343 1373.323 C 1704.759 1372.907, 1724.765 1372.284, 1748.800 1371.937 L 1792.500 1371.308 1798.236 1369.087 C 1801.390 1367.866, 1806.718 1365.033, 1810.075 1362.791 C 1813.432 1360.549, 1818.006 1356.417, 1820.240 1353.608 C 1822.474 1350.798, 1825.582 1345.783, 1827.146 1342.463 C 1828.710 1339.143, 1830.460 1333.880, 1831.035 1330.767 C 1831.715 1327.088, 1831.980 1302.092, 1831.791 1259.304 L 1831.500 1193.500 1829.356 1188.275 C 1828.176 1185.401, 1825.177 1180.199, 1822.691 1176.715 C 1820.205 1173.231, 1816.130 1168.708, 1813.635 1166.664 C 1811.140 1164.620, 1806.338 1161.578, 1802.964 1159.903 L 1796.829 1156.859 1788.164 1155.947 C 1783.399 1155.446, 1760.825 1154.972, 1738 1154.894 C 1715.175 1154.815, 1693.444 1154.470, 1689.709 1154.126 L 1682.917 1153.500 1691.709 1147.294 C 1696.544 1143.881, 1704.410 1137.457, 1709.189 1133.019 C 1713.968 1128.581, 1720.681 1121.474, 1724.108 1117.225 C 1727.534 1112.976, 1732.286 1106.496, 1734.668 1102.826 C 1737.050 1099.155, 1741.076 1091.978, 1743.615 1086.877 C 1746.153 1081.776, 1749.926 1072.405, 1752 1066.052 C 1754.073 1059.698, 1756.609 1050, 1757.635 1044.500 L 1759.500 1034.500 1759.429 1016 L 1759.358 997.500 1757.123 987 C 1755.893 981.225, 1753.367 971.938, 1751.508 966.361 C 1749.650 960.785, 1745.889 951.785, 1743.149 946.361 C 1740.409 940.938, 1735.768 933.046, 1732.834 928.826 C 1729.900 924.605, 1724.350 917.451, 1720.500 912.929 C 1716.650 908.407, 1709.688 901.358, 1705.030 897.266 C 1700.371 893.174, 1693.171 887.580, 1689.030 884.836 C 1684.888 882.092, 1676.550 877.466, 1670.500 874.555 C 1664.450 871.645, 1655.900 868.090, 1651.500 866.654 C 1647.100 865.218, 1639.675 863.158, 1635 862.076 C 1630.325 860.994, 1621.775 859.573, 1616 858.918 C 1609.813 858.217, 1600.943 857.987, 1594.407 858.359 C 1588.306 858.707, 1579.306 859.676, 1574.407 860.514 C 1569.508 861.351, 1560.425 863.620, 1554.222 865.556 C 1548.020 867.492, 1539.470 870.658, 1535.222 872.593 C 1530.975 874.527, 1524.125 878.188, 1520 880.729 C 1515.875 883.269, 1508.900 888.146, 1504.500 891.565 C 1500.100 894.985, 1492.423 901.995, 1487.439 907.142 C 1482.456 912.289, 1476.342 919.200, 1473.854 922.500 C 1471.366 925.800, 1467.015 932.325, 1464.185 937 C 1461.355 941.675, 1457.260 949.779, 1455.086 955.008 C 1452.911 960.237, 1449.960 968.557, 1448.529 973.496 C 1447.098 978.435, 1445.191 986.757, 1444.291 991.988 C 1443.239 998.110, 1442.647 1007.381, 1442.630 1018 L 1442.605 1034.500 1444.848 1044.880 C 1446.081 1050.588, 1448.474 1059.576, 1450.164 1064.852 C 1451.854 1070.129, 1454.947 1078.389, 1457.038 1083.209 C 1459.128 1088.029, 1462.526 1094.791, 1464.589 1098.236 C 1466.652 1101.681, 1470.596 1107.425, 1473.355 1111 C 1476.114 1114.575, 1481.191 1120.650, 1484.637 1124.500 C 1488.084 1128.350, 1494.076 1134.186, 1497.952 1137.468 C 1501.828 1140.751, 1505 1143.858, 1505 1144.374 C 1505 1144.943, 1499.213 1145.059, 1490.250 1144.670 C 1482.138 1144.317, 1473.753 1143.729, 1471.618 1143.362 L 1467.735 1142.695 1462.433 1131.598 C 1459.517 1125.494, 1448.326 1101.873, 1437.565 1079.107 L 1418 1037.715 1418 1019.818 C 1418 1009.975, 1417.526 997.551, 1416.947 992.211 C 1416.368 986.870, 1415.020 978.762, 1413.952 974.193 C 1412.884 969.624, 1410.576 962.424, 1408.823 958.193 C 1407.069 953.962, 1403.454 946.796, 1400.790 942.269 C 1398.125 937.741, 1393.606 931.216, 1390.747 927.769 C 1387.888 924.321, 1383.288 919.304, 1380.525 916.619 C 1377.761 913.935, 1372.350 909.365, 1368.500 906.464 C 1364.650 903.564, 1358.575 899.603, 1355 897.664 C 1351.425 895.724, 1344.931 892.728, 1340.568 891.007 C 1336.205 889.285, 1328.780 886.954, 1324.068 885.826 L 1315.500 883.777 1298.282 883.087 C 1288.812 882.708, 1280.765 882.098, 1280.399 881.732 C 1280.033 881.366, 1280.307 876.740, 1281.007 871.450 C 1281.722 866.041, 1282.008 858.698, 1281.660 854.667 C 1281.319 850.725, 1280.102 844.137, 1278.955 840.027 C 1277.808 835.917, 1275.050 829.056, 1272.825 824.781 C 1270.508 820.327, 1265.983 813.985, 1262.231 809.932 C 1258.629 806.042, 1252.982 801.025, 1249.682 798.784 C 1246.382 796.543, 1240.266 793.239, 1236.091 791.441 C 1231.916 789.643, 1208.700 782.279, 1184.500 775.077 C 1160.300 767.875, 1112.171 753.547, 1077.546 743.236 L 1014.592 724.490 1010.453 718.995 C 1008.176 715.973, 992.810 692.757, 976.306 667.405 L 946.298 621.310 945.737 610.405 L 945.176 599.500 942.583 590.718 C 941.157 585.888, 938.242 578.463, 936.105 574.218 C 933.967 569.973, 930.148 563.691, 927.617 560.258 C 925.086 556.825, 920.324 551.324, 917.035 548.035 C 913.746 544.746, 907.780 539.655, 903.777 536.721 C 899.775 533.787, 894.925 530.437, 893 529.276 C 891.075 528.115, 885.900 525.373, 881.500 523.183 C 877.100 520.992, 868.959 517.620, 863.408 515.689 C 857.858 513.758, 849.083 511.263, 843.908 510.145 C 838.734 509.028, 829.840 507.638, 824.144 507.057 C 818.448 506.475, 810.348 506.060, 806.144 506.133 C 801.940 506.206, 795.125 506.632, 791 507.080 M 791 532.640 C 785.775 533.427, 778.125 534.975, 774 536.081 C 769.875 537.186, 762.450 540.055, 757.500 542.456 C 752.550 544.857, 745.575 549.042, 742 551.756 C 738.425 554.470, 733.007 559.384, 729.960 562.675 C 726.913 565.967, 722.709 571.238, 720.618 574.388 C 718.527 577.538, 715.301 583.397, 713.448 587.407 C 711.595 591.418, 708.953 598.581, 707.579 603.325 C 706.204 608.070, 703.016 621.975, 700.495 634.226 C 697.973 646.477, 693.473 671.125, 690.494 689 C 687.515 706.875, 683.953 729.825, 682.579 740 C 681.204 750.175, 678.948 768.625, 677.566 781 C 676.183 793.375, 674.150 813.400, 673.048 825.500 C 671.945 837.600, 670.133 860.921, 669.021 877.324 C 667.910 893.727, 667 907.623, 667 908.203 C 667 908.895, 668.978 909.038, 672.750 908.618 C 675.913 908.266, 718.325 904.157, 767 899.486 C 815.675 894.816, 859.059 890.550, 863.408 890.006 C 867.758 889.462, 871.535 888.798, 871.802 888.532 C 872.068 888.265, 871.434 887.740, 870.393 887.365 C 869.352 886.990, 866.333 885.850, 863.684 884.831 C 861.036 883.811, 856.410 881.405, 853.405 879.483 C 850.401 877.560, 845.877 874.084, 843.353 871.758 C 840.829 869.431, 836.846 864.822, 834.502 861.514 C 832.157 858.206, 829.017 853.067, 827.524 850.094 C 826.030 847.121, 813.410 810.572, 799.478 768.875 C 785.546 727.177, 773.390 689.947, 772.465 686.142 L 770.784 679.223 772.142 676.399 C 772.889 674.846, 775.075 672.506, 777 671.199 L 780.500 668.823 784.868 669.302 C 787.736 669.617, 790.090 670.635, 791.724 672.270 L 794.213 674.759 818.937 748.129 C 832.535 788.483, 845.536 826.248, 847.828 832.051 C 850.121 837.854, 853.283 844.632, 854.856 847.112 C 856.429 849.592, 859.985 853.287, 862.759 855.323 C 865.532 857.359, 869.759 859.886, 872.151 860.939 C 874.543 861.992, 894.050 867.581, 915.500 873.361 C 936.950 879.140, 990.904 893.598, 1035.398 905.489 C 1079.892 917.380, 1121.967 928.492, 1128.898 930.182 L 1141.500 933.255 1150.756 932.654 L 1160.012 932.053 1165.504 929.455 C 1168.524 928.026, 1173.467 924.598, 1176.488 921.837 L 1181.982 916.816 1185.741 909.203 L 1189.500 901.589 1189.474 891.045 L 1189.447 880.500 1186.246 873.685 C 1184.202 869.335, 1181.118 864.994, 1177.719 861.685 C 1174.791 858.833, 1170.124 855.272, 1167.349 853.770 C 1164.574 852.269, 1158.072 849.656, 1152.901 847.964 C 1147.731 846.273, 1102.273 832.334, 1051.885 816.990 C 1001.496 801.646, 958.296 788.326, 955.885 787.391 C 953.473 786.455, 950.654 784.972, 949.620 784.095 C 948.587 783.218, 946.863 780.475, 945.791 778 C 944.719 775.525, 936.869 752.800, 928.348 727.500 L 912.854 681.500 913.495 674.500 C 913.847 670.650, 915.455 656.971, 917.068 644.102 C 918.680 631.232, 920 617.231, 920 612.988 C 920 608.745, 919.556 602.849, 919.014 599.886 C 918.472 596.924, 916.204 590.900, 913.976 586.500 C 911.747 582.100, 907.672 575.678, 904.920 572.229 C 902.168 568.780, 896.544 563.277, 892.421 560.001 C 888.298 556.725, 881.687 552.153, 877.729 549.842 C 873.772 547.531, 866.449 543.971, 861.457 541.932 C 856.464 539.893, 848.582 537.279, 843.940 536.124 C 839.298 534.968, 832.125 533.602, 828 533.086 C 823.875 532.571, 816 531.938, 810.500 531.679 C 804.427 531.393, 796.769 531.770, 791 532.640 M 940.584 662.750 C 940.281 663.712, 939.635 667.421, 939.149 670.991 L 938.265 677.482 950.022 712.491 C 956.488 731.746, 963.220 751.435, 964.981 756.243 L 968.184 764.987 982.342 769.435 C 990.129 771.881, 1019.675 780.917, 1048 789.516 C 1076.325 798.114, 1113.225 809.369, 1130 814.528 C 1146.775 819.686, 1163.784 825.033, 1167.798 826.410 C 1171.812 827.787, 1177.848 830.585, 1181.211 832.628 C 1184.574 834.671, 1190.448 839.288, 1194.263 842.887 C 1198.079 846.487, 1202.537 851.374, 1204.170 853.747 C 1205.803 856.121, 1208.466 861.279, 1210.086 865.209 C 1211.707 869.140, 1213.307 874.067, 1213.641 876.159 C 1213.976 878.251, 1214.937 880.533, 1215.776 881.231 C 1216.811 882.091, 1222.008 882.606, 1231.902 882.829 C 1240.718 883.028, 1247.608 882.733, 1249.298 882.085 C 1251.041 881.417, 1252.726 879.596, 1253.765 877.256 L 1255.434 873.500 1255.467 860.500 L 1255.500 847.500 1251.778 839.705 C 1249.402 834.730, 1245.983 829.737, 1242.327 825.904 L 1236.598 819.898 1228.549 815.964 L 1220.500 812.030 1129.500 784.972 C 1079.450 770.090, 1029.566 755.150, 1018.646 751.772 L 998.791 745.629 994.925 741.065 C 992.799 738.554, 981.687 722.100, 970.231 704.500 C 958.776 686.900, 947.674 669.913, 945.560 666.750 C 943.446 663.587, 941.586 661, 941.426 661 C 941.266 661, 940.887 661.788, 940.584 662.750 M 1575.500 885.974 C 1570.550 886.967, 1563.001 888.955, 1558.726 890.391 C 1554.450 891.827, 1547.250 894.862, 1542.726 897.136 C 1538.201 899.410, 1531.800 903.083, 1528.500 905.300 C 1525.200 907.517, 1519.064 912.208, 1514.864 915.726 C 1510.664 919.243, 1504.139 925.731, 1500.364 930.143 C 1496.589 934.555, 1491.549 941.165, 1489.165 944.833 C 1486.780 948.500, 1483.520 954.071, 1481.919 957.212 C 1480.319 960.354, 1477.713 966.204, 1476.130 970.212 C 1474.546 974.221, 1472.181 982, 1470.875 987.500 L 1468.500 997.500 1468.537 1017.500 L 1468.574 1037.500 1471.309 1048.132 C 1472.813 1053.979, 1475.205 1061.620, 1476.623 1065.110 C 1478.041 1068.601, 1480.472 1073.973, 1482.025 1077.049 C 1483.577 1080.125, 1487.680 1086.884, 1491.142 1092.071 C 1494.649 1097.324, 1501.658 1105.721, 1506.969 1111.031 C 1512.286 1116.349, 1520.676 1123.351, 1525.947 1126.869 C 1531.142 1130.338, 1538.792 1134.873, 1542.947 1136.947 C 1547.101 1139.021, 1553.382 1141.705, 1556.904 1142.911 C 1560.426 1144.117, 1566.951 1146.025, 1571.404 1147.150 L 1579.500 1149.197 1597 1149.706 L 1614.500 1150.215 1623.724 1148.612 C 1628.797 1147.731, 1637.122 1145.670, 1642.224 1144.033 C 1647.326 1142.396, 1655.325 1139.129, 1660 1136.773 C 1664.675 1134.417, 1671.875 1130.246, 1676 1127.504 C 1680.125 1124.762, 1688.498 1117.565, 1694.607 1111.510 C 1700.716 1105.454, 1708.087 1096.946, 1710.987 1092.602 C 1713.887 1088.259, 1718.654 1079.709, 1721.579 1073.602 C 1724.505 1067.496, 1728.064 1058.452, 1729.488 1053.504 C 1730.912 1048.556, 1732.501 1041.581, 1733.019 1038.004 C 1733.537 1034.427, 1733.969 1024.394, 1733.980 1015.708 C 1733.993 1005.214, 1733.473 997.329, 1732.429 992.208 C 1731.564 987.969, 1729.556 980.587, 1727.966 975.804 C 1726.375 971.021, 1722.975 962.928, 1720.409 957.819 C 1717.843 952.710, 1713.487 945.149, 1710.729 941.015 C 1707.971 936.882, 1700.716 928.531, 1694.607 922.457 C 1688.498 916.384, 1680.265 909.280, 1676.311 906.671 C 1672.357 904.062, 1665.157 899.904, 1660.311 897.431 C 1655.465 894.958, 1647.450 891.643, 1642.500 890.064 C 1637.550 888.485, 1628.946 886.475, 1623.381 885.597 C 1617.257 884.630, 1607.584 884.033, 1598.881 884.084 C 1589.318 884.140, 1581.485 884.774, 1575.500 885.974 M 934.500 908.674 C 932.300 908.908, 907.325 911.339, 879 914.077 C 850.675 916.814, 778.708 923.767, 719.074 929.527 C 659.440 935.287, 610.052 940, 609.324 940 L 608 940 608 1088.547 L 608 1237.093 812.417 1236.797 C 924.846 1236.634, 1017.209 1236.125, 1017.667 1235.667 C 1018.125 1235.209, 1018.647 1172.434, 1018.826 1096.167 C 1019.006 1019.900, 1018.848 950.678, 1018.475 942.340 L 1017.798 927.180 1016.149 926.676 C 1015.242 926.399, 1000.309 922.355, 982.963 917.689 C 965.618 913.023, 948.518 908.990, 944.963 908.727 C 941.409 908.464, 936.700 908.440, 934.500 908.674 M 1211.100 914.199 C 1209.907 917.784, 1207.540 922.918, 1205.841 925.609 C 1204.141 928.299, 1201.134 932.300, 1199.157 934.500 C 1197.181 936.700, 1193.300 940.446, 1190.532 942.824 C 1187.764 945.202, 1182.800 948.662, 1179.500 950.513 C 1176.200 952.365, 1169.900 954.874, 1165.500 956.088 L 1157.500 958.297 1147.500 958.234 L 1137.500 958.170 1113 952.051 C 1099.525 948.685, 1079.275 943.442, 1068 940.400 C 1056.725 937.357, 1046.644 934.620, 1045.598 934.318 L 1043.696 933.769 1044.237 1041.940 C 1044.535 1101.434, 1045.067 1150.400, 1045.420 1150.754 C 1045.773 1151.107, 1097.985 1151.419, 1161.447 1151.448 C 1224.908 1151.477, 1277.151 1151.181, 1277.541 1150.792 C 1277.931 1150.402, 1277.383 1148.377, 1276.323 1146.292 C 1275.264 1144.206, 1271.105 1136.288, 1267.083 1128.697 L 1259.769 1114.893 1261.500 1110.362 C 1262.592 1107.501, 1264.386 1105.105, 1266.365 1103.861 L 1269.500 1101.890 1273.864 1102.335 C 1276.265 1102.580, 1279.360 1103.625, 1280.743 1104.658 C 1282.126 1105.690, 1285.284 1110.127, 1287.761 1114.518 C 1290.238 1118.908, 1298.340 1132.850, 1305.765 1145.500 C 1313.191 1158.150, 1323.167 1174.800, 1327.935 1182.500 C 1332.702 1190.200, 1343.555 1207.703, 1352.052 1221.395 C 1360.548 1235.088, 1369.696 1248.715, 1372.380 1251.678 C 1375.064 1254.641, 1380.239 1258.820, 1383.880 1260.965 C 1387.521 1263.110, 1393.298 1265.795, 1396.718 1266.932 L 1402.937 1269 1450.686 1269 C 1476.948 1269, 1525 1268.548, 1557.468 1267.995 C 1589.935 1267.443, 1630 1266.548, 1646.500 1266.008 C 1666.681 1265.346, 1678.338 1264.545, 1682.115 1263.560 C 1685.203 1262.755, 1690.443 1260.505, 1693.760 1258.562 C 1697.077 1256.618, 1701.842 1252.745, 1704.350 1249.956 C 1706.858 1247.166, 1710.076 1242.500, 1711.502 1239.586 C 1712.927 1236.672, 1714.580 1231.352, 1715.175 1227.764 L 1716.256 1221.240 1715.190 1215.189 C 1714.604 1211.862, 1712.984 1206.729, 1711.590 1203.782 C 1710.196 1200.836, 1707.491 1196.598, 1705.579 1194.363 C 1703.666 1192.128, 1699.019 1188.681, 1695.246 1186.699 C 1691.475 1184.717, 1686.390 1182.648, 1683.945 1182.101 C 1681.500 1181.554, 1673.650 1180.627, 1666.500 1180.040 C 1659.350 1179.454, 1632.125 1177.848, 1606 1176.470 C 1579.875 1175.092, 1537.575 1172.857, 1512 1171.504 C 1486.425 1170.151, 1463.481 1168.765, 1461.013 1168.425 C 1458.545 1168.085, 1455.394 1167.221, 1454.011 1166.506 C 1452.627 1165.790, 1450.774 1164.371, 1449.893 1163.352 C 1449.011 1162.334, 1446.011 1156.550, 1443.225 1150.500 C 1440.439 1144.450, 1429.303 1120.825, 1418.477 1098 C 1407.651 1075.175, 1397.403 1053.350, 1395.703 1049.500 L 1392.613 1042.500 1391.910 1014.500 L 1391.208 986.500 1389.178 978.879 C 1388.061 974.688, 1384.894 966.766, 1382.138 961.276 C 1379.383 955.785, 1374.469 947.946, 1371.218 943.855 C 1367.968 939.765, 1362.876 934.371, 1359.904 931.870 C 1356.932 929.369, 1352.330 925.856, 1349.678 924.064 C 1347.026 922.272, 1340.705 918.839, 1335.632 916.435 C 1330.558 914.032, 1323.501 911.392, 1319.950 910.568 L 1313.493 909.071 1263.381 908.376 L 1213.269 907.681 1211.100 914.199 M 569.500 999.159 C 564 999.638, 523.725 1003.389, 480 1007.496 C 436.275 1011.602, 385.650 1016.313, 367.500 1017.965 C 349.350 1019.616, 330.450 1021.460, 325.500 1022.062 C 320.550 1022.664, 313.800 1023.826, 310.500 1024.644 C 307.200 1025.462, 300.700 1027.957, 296.056 1030.188 L 287.612 1034.245 279.532 1042.372 C 274.083 1047.853, 270.243 1052.817, 267.743 1057.613 C 265.703 1061.526, 263.370 1067.601, 262.558 1071.113 C 261.745 1074.626, 260.784 1081.100, 260.421 1085.500 C 260.037 1090.156, 260.244 1096.635, 260.917 1101 L 262.073 1108.500 266.527 1117.685 L 270.982 1126.870 277.515 1133.404 L 284.048 1139.937 293.274 1144.497 C 298.657 1147.157, 305 1149.459, 308.500 1150.023 C 312.142 1150.609, 367.071 1150.991, 448.256 1150.994 L 582.012 1151 581.756 1074.833 C 581.589 1025.051, 581.154 998.601, 580.500 998.478 C 579.950 998.374, 575 998.681, 569.500 999.159 M 220.412 1177.842 L 209.323 1178.500 205.331 1181.269 C 203.135 1182.792, 200.082 1185.349, 198.547 1186.951 C 196.926 1188.643, 195.407 1191.673, 194.922 1194.182 C 194.463 1196.557, 194.070 1228.200, 194.049 1264.500 L 194.010 1330.500 197.755 1335.500 L 201.500 1340.500 207.500 1343.500 L 213.500 1346.500 1000 1346.500 L 1786.500 1346.500 1792.500 1343.500 L 1798.500 1340.500 1802.245 1335.500 L 1805.990 1330.500 1805.995 1263.328 L 1806 1196.155 1802.719 1191.853 C 1800.914 1189.487, 1797.547 1186.222, 1795.236 1184.598 C 1792.609 1182.752, 1789.062 1181.365, 1785.768 1180.896 C 1782.870 1180.484, 1769.700 1180.158, 1756.500 1180.173 C 1743.300 1180.187, 1731.488 1180.492, 1730.252 1180.850 L 1728.003 1181.500 1731.633 1187.500 C 1733.629 1190.800, 1736.118 1195.975, 1737.164 1199 C 1738.210 1202.025, 1739.588 1208.626, 1740.225 1213.668 L 1741.384 1222.836 1740.227 1230.282 C 1739.590 1234.376, 1738.333 1239.926, 1737.434 1242.613 C 1736.535 1245.301, 1734.684 1249.750, 1733.321 1252.500 C 1731.958 1255.250, 1728.966 1259.942, 1726.671 1262.927 C 1724.377 1265.912, 1719.612 1270.740, 1716.083 1273.655 C 1712.553 1276.570, 1706.028 1280.750, 1701.583 1282.944 C 1697.137 1285.138, 1690.575 1287.623, 1687 1288.467 C 1683.074 1289.394, 1671.195 1290.389, 1657 1290.978 C 1644.075 1291.515, 1608.075 1292.411, 1577 1292.968 C 1545.925 1293.526, 1495.525 1294.276, 1465 1294.636 L 1409.500 1295.290 1402 1294.026 C 1397.875 1293.331, 1390.262 1291.254, 1385.082 1289.411 C 1379.902 1287.568, 1373.152 1284.400, 1370.082 1282.371 C 1367.012 1280.343, 1362.567 1277.108, 1360.204 1275.183 C 1357.841 1273.258, 1353.341 1268.483, 1350.204 1264.572 C 1347.067 1260.661, 1333.280 1239.289, 1319.568 1217.079 L 1294.635 1176.698 1170.261 1177.239 C 1101.855 1177.537, 1045.585 1178.082, 1045.216 1178.451 C 1044.847 1178.819, 1044.270 1195.856, 1043.933 1216.310 L 1043.321 1253.500 1042.001 1256.247 C 1041.188 1257.939, 1039.303 1259.462, 1037.091 1260.215 L 1033.500 1261.435 812.077 1261.751 L 590.654 1262.068 586.917 1258.419 L 583.181 1254.771 582.841 1216.968 C 582.653 1196.177, 582.212 1178.877, 581.859 1178.525 C 581.507 1178.173, 502.532 1177.727, 406.359 1177.535 C 310.187 1177.342, 226.510 1177.481, 220.412 1177.842 M 262.133 1202.930 L 256.767 1203.578 253.904 1206.781 C 252.330 1208.543, 250.752 1211.141, 250.397 1212.554 C 250.003 1214.124, 250.423 1216.611, 251.477 1218.948 C 252.425 1221.052, 254.488 1223.724, 256.060 1224.886 L 258.919 1227 394.710 1226.937 C 469.394 1226.902, 534.295 1226.512, 538.934 1226.069 L 547.368 1225.264 549.152 1223.061 C 550.133 1221.849, 551.225 1219.317, 551.578 1217.435 C 551.931 1215.553, 551.939 1212.893, 551.596 1211.525 C 551.252 1210.156, 549.581 1207.453, 547.882 1205.518 L 544.793 1202 406.146 1202.141 C 329.891 1202.218, 265.085 1202.573, 262.133 1202.930 M 1086.507 1202.723 C 1083.742 1202.948, 1080.685 1203.880, 1079.655 1204.812 C 1078.632 1205.738, 1077.166 1207.711, 1076.398 1209.198 C 1075.629 1210.684, 1075 1213.398, 1075 1215.228 C 1075 1217.058, 1075.774 1219.668, 1076.719 1221.027 C 1077.665 1222.387, 1079.352 1224.273, 1080.469 1225.217 L 1082.500 1226.933 1180.054 1226.967 L 1277.608 1227 1280.995 1223.505 L 1284.382 1220.011 1284.307 1215.006 C 1284.263 1212.136, 1283.520 1208.916, 1282.563 1207.456 C 1281.646 1206.056, 1279.681 1204.368, 1278.198 1203.705 L 1275.500 1202.500 1183.500 1202.409 C 1132.900 1202.358, 1089.253 1202.500, 1086.507 1202.723 M 312 1573.500 L 312 1775 333.250 1774.995 C 344.938 1774.993, 359.563 1774.699, 365.750 1774.343 L 377 1773.694 377 1573.500 L 377 1373.306 365.750 1372.657 C 359.563 1372.301, 344.938 1372.007, 333.250 1372.005 L 312 1372 312 1573.500 M 675.398 1372.725 L 671.295 1373.101 670.653 1382.800 C 670.299 1388.135, 670.020 1457.750, 670.032 1537.500 C 670.044 1617.250, 670.468 1691.500, 670.974 1702.500 C 671.511 1714.166, 672.477 1724.375, 673.293 1727 C 674.063 1729.475, 676.141 1734.451, 677.911 1738.058 C 679.682 1741.664, 683.108 1747.108, 685.525 1750.155 C 687.943 1753.202, 692.301 1757.525, 695.210 1759.761 C 698.120 1761.998, 703.650 1765.401, 707.500 1767.325 C 711.350 1769.249, 717.425 1771.631, 721 1772.620 L 727.500 1774.417 738 1774.360 L 748.500 1774.302 755 1772.075 C 758.575 1770.850, 764.366 1768.256, 767.868 1766.309 C 771.370 1764.363, 777.445 1759.714, 781.368 1755.980 C 785.291 1752.245, 790.010 1746.685, 791.855 1743.623 C 793.700 1740.562, 796.312 1735.327, 797.660 1731.989 C 799.009 1728.651, 800.757 1722.549, 801.545 1718.428 C 802.334 1714.307, 806.368 1672.587, 810.510 1625.717 C 814.653 1578.848, 820.513 1512.375, 823.534 1478 C 826.554 1443.625, 829.695 1408.558, 830.513 1400.073 C 831.331 1391.587, 832 1382.097, 832 1378.984 L 832 1373.322 803.337 1372.661 C 787.573 1372.297, 753.260 1372.079, 727.087 1372.175 C 700.914 1372.271, 677.654 1372.518, 675.398 1372.725 M 1615.283 1372.701 L 1613.066 1373.130 1612.381 1376.783 C 1612.004 1378.793, 1611.941 1468.790, 1612.241 1576.778 C 1612.540 1684.765, 1613.043 1773.377, 1613.358 1773.692 C 1613.673 1774.007, 1628.346 1774.495, 1645.965 1774.777 L 1678 1775.289 1678 1573.644 L 1678 1372 1647.750 1372.136 C 1631.112 1372.211, 1616.502 1372.465, 1615.283 1372.701" stroke="none" fill="#050505" fill-rule="evenodd"/></svg>