<svg xmlns="http://www.w3.org/2000/svg" width="3000" height="1164" viewBox="0 0 3000 1164" version="1.1"><path d="M 956 52.054 C 944.725 52.448, 931 53.524, 925.500 54.444 C 857.772 65.778, 792.669 87.186, 724.500 120.543 C 649.002 157.485, 570.909 210.789, 494.866 277.284 C 472.346 296.976, 464.353 304.467, 437.131 331.389 C 392.034 375.987, 358.494 413.762, 322.630 460.348 C 291.790 500.407, 254.265 557.464, 245.392 577.787 C 242.171 585.165, 241.089 592.090, 242.765 594.600 C 243.864 596.246, 247.588 598, 249.984 598 C 256.425 598, 260.304 593.284, 277.949 564 C 309.558 511.540, 342.491 466.365, 382.331 420.817 C 440.326 354.512, 516.652 281.638, 575 236.861 C 628.027 196.167, 672.128 168.489, 732.500 138.014 C 790.929 108.521, 832.122 92.452, 880 80.480 C 921.550 70.090, 927.867 69.500, 997.500 69.500 C 1060.856 69.500, 1060.393 69.461, 1081.681 76.584 C 1105.118 84.425, 1126.485 95.180, 1143.500 107.699 C 1155.358 116.424, 1174.812 136.149, 1183.257 148.010 C 1197.722 168.325, 1212.080 202.255, 1218.375 231 C 1232.317 294.657, 1225.351 369.966, 1197.903 452.328 C 1187.414 483.802, 1179.741 501.813, 1175.694 504.465 C 1174.431 505.293, 1158.149 509.354, 1139.513 513.490 C 1095.922 523.164, 1062.879 531.398, 1031 540.530 C 981.051 554.840, 909.716 580.005, 878.394 594.367 C 872.836 596.915, 867.598 599, 866.754 599 C 865.771 599, 864.968 597.651, 864.520 595.250 C 864.136 593.188, 863.455 496.100, 863.006 379.500 C 862.557 262.900, 861.869 165.700, 861.477 163.500 C 861.084 161.300, 860.311 158.938, 859.759 158.250 C 858.304 156.438, 853.138 156.754, 848.298 158.951 C 844.552 160.652, 843.935 161.435, 842.604 166.179 C 841.783 169.106, 840.601 177.800, 839.977 185.500 C 838.164 207.890, 837.251 329.640, 837.794 476.536 L 838.297 612.573 818.398 623.867 C 754.326 660.233, 716.663 693.844, 697.720 731.563 C 691.494 743.959, 689.958 749.699, 689.309 763 C 688.278 784.143, 691.665 795.851, 701.369 804.690 C 708.199 810.912, 722.700 818.494, 732.621 821.031 C 750.251 825.540, 802.197 826.116, 828.748 822.098 C 884.996 813.584, 956.914 784.102, 1009 748.204 C 1033.174 731.543, 1051.706 716.208, 1073.875 694.520 C 1123.023 646.439, 1154.229 603.906, 1188.695 538.022 L 1201.500 513.544 1217 510.868 C 1253.342 504.592, 1295.658 500.500, 1324.215 500.500 C 1341.346 500.500, 1341.076 500.153, 1335.496 515 C 1326.666 538.492, 1326.012 549.981, 1332.724 563.690 C 1338.456 575.396, 1352.436 583, 1368.226 583 C 1374.140 583, 1386.222 580.232, 1393.838 577.133 C 1407.870 571.422, 1441.468 550.645, 1463.379 534.127 C 1469.363 529.616, 1474.538 526.205, 1474.879 526.546 C 1475.221 526.887, 1475.517 599.692, 1475.538 688.333 C 1475.578 860.752, 1475.394 854.386, 1480.563 862.250 C 1483.685 866.999, 1486.480 867.191, 1487.841 862.750 C 1489.491 857.369, 1489.934 852.086, 1492.010 813 C 1496.204 734.008, 1502.654 662.849, 1509.049 625 C 1511.909 608.071, 1512.584 606.118, 1515.795 605.469 C 1530.777 602.439, 1539.837 598.127, 1554.218 587.182 C 1568.617 576.223, 1582.522 567.102, 1604 554.529 C 1614.175 548.573, 1626.901 540.847, 1632.280 537.360 C 1642.878 530.490, 1647.313 528, 1648.950 528 C 1649.528 528, 1650 529.767, 1650 531.928 C 1650 544.314, 1655.967 570.014, 1661.511 581.500 C 1667.219 593.327, 1673.348 599, 1680.419 599 C 1686.606 599, 1693.334 596.693, 1697.120 593.273 C 1717.018 575.296, 1746.758 486.339, 1779.956 345.500 C 1795.577 279.229, 1797.467 271.988, 1797.799 277.119 C 1797.964 279.660, 1796.738 295.410, 1795.074 312.119 C 1790.182 361.253, 1785.573 423.738, 1782.837 478 C 1781.217 510.122, 1781.198 605.121, 1782.807 628 C 1788.064 702.792, 1797.655 744.165, 1813.929 762.266 C 1819.247 768.181, 1824.709 770.948, 1831.128 770.978 C 1839.769 771.019, 1839.191 766.761, 1829.905 761.972 C 1819.951 756.838, 1812.705 741.836, 1806.123 712.734 C 1800.453 687.666, 1799.068 666.052, 1798.318 591 C 1797.557 514.851, 1799.405 453.098, 1804.047 399.500 C 1808.605 346.887, 1818.366 259.434, 1824.083 220 C 1829.047 185.764, 1829.231 184.087, 1828.819 176.802 C 1828.486 170.916, 1828.040 169.451, 1826.100 167.880 C 1822.684 165.113, 1817.597 165.426, 1815.137 168.553 C 1810.954 173.871, 1809.124 180.782, 1786.963 275 C 1736.369 490.104, 1715.671 558.566, 1694.581 580.576 C 1691.108 584.201, 1689.694 585, 1686.748 585 C 1682.158 585, 1677.459 581.173, 1675.925 576.186 C 1675.251 573.995, 1674.459 558.300, 1673.972 537.500 C 1672.962 494.321, 1671.930 488, 1665.894 488 C 1660.038 488, 1653.030 498.118, 1653.010 506.602 C 1652.997 511.755, 1650.088 516.215, 1643.476 521.215 C 1636.942 526.156, 1606.434 544.317, 1592.500 551.561 C 1579.544 558.295, 1579.295 558.121, 1583.383 545.182 C 1587.798 531.205, 1589.265 520.797, 1588.764 507 C 1587.887 482.858, 1580.783 473.283, 1562.956 472.218 C 1552.680 471.604, 1546.900 474.086, 1539.457 482.311 C 1525.275 497.982, 1515.219 528.763, 1501.913 597.230 C 1497.990 617.414, 1495.371 628.729, 1494.716 628.324 C 1494.023 627.896, 1493.899 618.323, 1494.337 599.094 C 1495.409 552.105, 1499.742 486.761, 1504.953 439 C 1509.486 397.456, 1509.592 395.023, 1507.014 391.745 C 1502.834 386.430, 1494.572 389.752, 1492.227 397.691 C 1489.110 408.243, 1483.558 449.321, 1480.019 488 C 1478.837 500.925, 1477.690 512.413, 1477.471 513.528 C 1476.842 516.732, 1438.867 542.528, 1419 553.246 C 1390.191 568.788, 1365.198 574.030, 1354.298 566.816 C 1349.132 563.397, 1345.263 555.997, 1346.622 552.133 C 1347.177 550.556, 1351.709 546.337, 1358.021 541.522 C 1389.674 517.376, 1403.669 494.854, 1396.248 480 C 1394.234 475.967, 1387.364 472, 1382.393 472 C 1379.127 472, 1370.594 476.067, 1356.500 484.340 C 1352.100 486.923, 1346.925 489.476, 1345 490.013 C 1343.075 490.550, 1333.773 490.991, 1324.330 490.994 C 1298.232 491.003, 1255.516 494.358, 1221.581 499.064 C 1213.925 500.126, 1207.523 500.857, 1207.355 500.688 C 1207.186 500.520, 1209.228 495.233, 1211.892 488.941 C 1220.425 468.785, 1231.532 432.367, 1241.449 392.027 C 1250.261 356.182, 1252.003 341.053, 1251.989 300.500 C 1251.968 240.275, 1245.748 208.976, 1225.555 167.490 C 1206.409 128.153, 1182.600 103.903, 1142.500 82.895 C 1117.480 69.788, 1087.932 59.867, 1059.301 54.962 C 1050.180 53.399, 1039.664 52.725, 1013 51.995 C 994.025 51.475, 978.050 51.114, 977.500 51.193 C 976.950 51.272, 967.275 51.659, 956 52.054 M 2408.975 129.026 C 2404.531 133.784, 2400.889 152.703, 2393.482 209.500 C 2386.284 264.698, 2385.022 271.976, 2382.560 272.474 C 2381.427 272.704, 2357.775 274.738, 2330 276.994 C 2251.560 283.366, 2234.786 285.313, 2226.246 289.037 C 2221.404 291.148, 2219.418 294.741, 2220.794 298.901 C 2222.696 304.654, 2230.823 305.027, 2266.500 300.999 C 2275.850 299.944, 2292.950 298.166, 2304.500 297.050 C 2316.050 295.933, 2327.525 294.802, 2330 294.537 C 2347.470 292.664, 2379.248 291.912, 2380.667 293.337 C 2382.035 294.712, 2381.248 316.469, 2378.581 351 C 2377.200 368.875, 2375.355 395.200, 2374.480 409.500 C 2372.217 446.500, 2371.677 448.685, 2358.103 475.794 C 2339.445 513.055, 2322.353 539.242, 2298.726 566.765 C 2284.933 582.832, 2275.227 588.891, 2269.963 584.718 C 2266.561 582.021, 2263.822 576.684, 2262.295 569.778 C 2260.018 559.476, 2260.038 526.929, 2262.329 514.250 C 2264.387 502.857, 2264.417 499.707, 2262.501 496.002 C 2260.682 492.484, 2255.020 487.999, 2252.406 488.004 C 2249.453 488.010, 2244.054 491.728, 2243.009 494.475 C 2239.460 503.812, 2239.131 553.260, 2242.534 566 C 2248.021 586.546, 2261.014 600.022, 2274.122 598.762 C 2283.990 597.814, 2297.211 588.151, 2309.918 572.600 C 2323.200 556.345, 2348.569 514.040, 2361.420 486.714 C 2365.226 478.621, 2368.655 472, 2369.041 472 C 2370.592 472, 2371.120 491.543, 2372.016 582 C 2372.908 672.011, 2373.629 698.094, 2376.040 727.500 C 2380.191 778.128, 2388.766 821.846, 2397.362 836.204 C 2402.470 844.738, 2406.996 845.589, 2410.730 838.720 C 2412.094 836.211, 2412.483 833.071, 2412.490 824.500 C 2412.500 813.578, 2412.470 813.439, 2408.288 805 C 2400.625 789.536, 2396.584 759.962, 2392.778 691.500 C 2391.051 660.427, 2391.054 518.402, 2392.783 480 C 2395.661 416.070, 2396.677 406.603, 2403.564 379.500 C 2406.499 367.950, 2410.520 350.175, 2412.499 340 C 2418.707 308.075, 2422.232 292.064, 2423.385 290.540 C 2424.440 289.148, 2427.107 288.780, 2452.500 286.523 C 2455.250 286.279, 2462 285.820, 2467.500 285.503 C 2473 285.186, 2479.750 284.742, 2482.500 284.515 C 2485.250 284.288, 2494.250 283.820, 2502.500 283.475 C 2510.750 283.129, 2519.525 282.655, 2522 282.421 C 2524.475 282.187, 2545.400 281.709, 2568.500 281.359 C 2654.535 280.056, 2711.279 285.389, 2744.478 297.900 C 2757.267 302.719, 2759 302.924, 2759 299.619 C 2759 292.028, 2736.024 281.042, 2708.558 275.501 C 2668.919 267.504, 2598.616 263.899, 2521.567 265.911 C 2468.875 267.288, 2438.225 268.713, 2431.171 270.115 C 2428.240 270.698, 2425.637 270.970, 2425.387 270.720 C 2425.136 270.470, 2425.450 256.875, 2426.083 240.509 C 2427.545 202.753, 2426.855 156.771, 2424.651 144.939 C 2422.724 134.596, 2420.773 129.655, 2417.792 127.567 C 2414.488 125.252, 2412.137 125.641, 2408.975 129.026 M 2215.243 178.250 C 2209.547 185.360, 2199.863 217.566, 2187.503 270.500 C 2171.116 340.683, 2139.178 449.875, 2129.371 469.250 C 2126.555 474.813, 2124.819 475.184, 2119.294 471.404 C 2115.791 469.007, 2114.847 468.838, 2106.983 469.201 C 2100.077 469.519, 2097.239 470.173, 2091.983 472.657 C 2082.974 476.914, 2077.498 482.145, 2066.118 497.357 C 2048.782 520.535, 2032.849 536.927, 2014.500 550.462 C 1999.532 561.503, 1985.899 568.003, 1977.727 567.996 C 1963.056 567.983, 1958.414 550.616, 1961.041 505.561 C 1962.503 480.480, 1962.169 478, 1957.337 478 C 1952.530 478, 1946.193 481.994, 1939.458 489.268 L 1932.876 496.377 1927.946 491.235 C 1924.642 487.790, 1921.911 485.886, 1919.667 485.465 C 1902.344 482.216, 1876.484 513.150, 1866.831 548.670 C 1864.035 558.961, 1863.651 577.952, 1866.148 582.502 C 1870.149 589.794, 1875.451 591.144, 1881.708 586.466 C 1892.049 578.734, 1906.645 561.358, 1922.002 538.500 C 1926.806 531.350, 1931.691 524.647, 1932.858 523.604 C 1934.968 521.718, 1934.988 521.728, 1936.476 525.289 C 1937.299 527.258, 1938.612 534.636, 1939.393 541.685 C 1940.950 555.728, 1943.073 562.524, 1948.417 570.573 C 1954.626 579.924, 1961.989 584.015, 1972.779 584.110 C 1985.500 584.221, 1999.270 576.550, 2019.925 557.846 C 2036.730 542.627, 2044.406 536.007, 2045.250 536.003 C 2046.475 535.998, 2046.112 540.430, 2044.292 547.688 C 2042.992 552.873, 2042.581 558.917, 2042.571 573 C 2042.556 593.362, 2043.186 596.919, 2048.138 604.395 C 2054.859 614.542, 2064.718 617.285, 2074.294 611.674 C 2085.069 605.359, 2097.823 588.662, 2108.030 567.508 C 2121.443 539.711, 2147.163 464.615, 2163.004 407 C 2166.406 394.625, 2169.584 383.825, 2170.065 383 C 2171.585 380.393, 2171.097 388.477, 2168.555 408 C 2167.231 418.175, 2164.747 437.300, 2163.036 450.500 C 2155.330 509.951, 2153.508 544.377, 2154.329 615 C 2155.181 688.195, 2156.495 704.115, 2163.657 728 C 2169.774 748.400, 2174.482 756.644, 2183.397 762.563 C 2192.648 768.706, 2197.098 768.588, 2201.656 762.081 C 2204.946 757.383, 2202.415 747.736, 2198.622 750.517 C 2191.269 755.907, 2190.426 755.882, 2187.217 750.173 C 2171.227 721.722, 2166.176 595.242, 2176.569 483.500 C 2180.037 446.210, 2194.233 327.101, 2198.082 303 C 2199.180 296.125, 2201.196 286.956, 2202.563 282.624 C 2206.185 271.141, 2215.388 233.220, 2219.461 213 C 2224.389 188.533, 2224.069 177, 2218.462 177 C 2217.243 177, 2215.794 177.563, 2215.243 178.250 M 2415.591 206.750 C 2414.637 209.822, 2409.988 249.121, 2409.339 259.603 C 2408.899 266.718, 2409.053 269.914, 2409.859 270.413 C 2410.546 270.837, 2411.384 270.120, 2411.955 268.619 C 2413.934 263.412, 2416.146 242.794, 2416.714 224.250 C 2417.259 206.458, 2416.989 202.250, 2415.591 206.750 M 2406.571 291.571 C 2405.707 292.436, 2405 294.045, 2405 295.148 C 2405 296.251, 2404.303 304.882, 2403.451 314.327 C 2402.599 323.772, 2402.036 335.325, 2402.201 340 L 2402.500 348.500 2403.808 343 C 2407.218 328.659, 2411.973 295.684, 2411.198 291.750 C 2410.770 289.576, 2408.648 289.494, 2406.571 291.571 M 1671.746 402.750 C 1667.218 407.389, 1665.300 412.672, 1663.845 424.516 C 1661.865 440.627, 1665.458 454.607, 1670.764 451.434 C 1675.070 448.860, 1683.375 424.502, 1684.668 410.655 C 1685.238 404.546, 1685.086 403.720, 1682.973 401.471 C 1679.600 397.881, 1676.110 398.278, 1671.746 402.750 M 2259.163 402.683 C 2251.019 410.827, 2247.629 434.592, 2252.909 446.526 C 2255.912 453.316, 2258.122 452.670, 2262.411 443.750 C 2267.394 433.387, 2273.968 413.238, 2273.985 408.276 C 2273.998 404.667, 2273.599 403.846, 2271.250 402.646 C 2269.738 401.873, 2267.038 400.926, 2265.252 400.541 C 2262.511 399.951, 2261.561 400.285, 2259.163 402.683 M 2533.523 485.500 C 2527.988 491.275, 2522.890 496, 2522.194 496 C 2521.498 496, 2520.106 494.081, 2519.101 491.736 C 2516.643 486.001, 2514.702 484.615, 2509.129 484.615 C 2502.450 484.615, 2496.026 488.084, 2487.944 496.055 C 2467.584 516.134, 2451.047 555.459, 2454.986 574.431 C 2456.625 582.326, 2462 588.903, 2466.866 588.968 C 2474.907 589.076, 2498.181 562.571, 2518.422 530.255 C 2523.329 522.421, 2527.451 516.121, 2527.582 516.255 C 2527.714 516.390, 2528.346 522.800, 2528.987 530.500 C 2530.991 554.556, 2534.744 566.408, 2543.313 575.742 C 2551.666 584.841, 2563.495 587.423, 2575.052 582.668 C 2581.917 579.844, 2596.040 570.709, 2606 562.652 C 2610.125 559.315, 2620.925 549.140, 2630 540.042 C 2645.818 524.184, 2653.002 515.669, 2651.680 514.346 C 2650.767 513.433, 2648.238 515.295, 2628.486 531.424 C 2607.752 548.355, 2591.788 559.394, 2577.328 566.799 L 2567.156 572.008 2560.566 564.315 C 2556.444 559.504, 2553.564 555.101, 2552.876 552.561 C 2552.117 549.757, 2551.997 539.835, 2552.487 520.500 C 2553.219 491.649, 2552.539 482.111, 2549.405 477.250 C 2546.714 473.077, 2544.156 474.406, 2533.523 485.500 M 1551.433 481.891 C 1541.472 486.415, 1532.591 505.829, 1523.152 543.713 C 1517.687 565.647, 1515.364 579.329, 1516.402 583.466 C 1516.998 585.840, 1517.440 586.108, 1519.794 585.528 C 1521.282 585.162, 1526.669 582.893, 1531.765 580.487 C 1544.657 574.400, 1551.752 567.516, 1557.512 555.506 C 1562.673 544.746, 1564.665 536.317, 1566.082 519.251 C 1567.745 499.222, 1565.971 485.696, 1561.186 481.932 C 1558.156 479.548, 1556.606 479.542, 1551.433 481.891 M 2102.615 489.481 C 2091.930 493.266, 2082.203 510.871, 2074.519 540.337 C 2068.237 564.420, 2066.292 588.476, 2069.998 596.231 C 2071.720 599.832, 2074.592 600.674, 2077.200 598.340 C 2079.645 596.152, 2093.350 568.374, 2102.037 548 C 2114.330 519.168, 2119.197 500.473, 2115.976 494.455 C 2113.305 489.465, 2108.114 487.532, 2102.615 489.481 M 1375.725 491.133 C 1371.970 493.934, 1360.890 508.255, 1355.989 516.641 C 1352.176 523.166, 1350.796 529, 1353.065 529 C 1356.180 529, 1372.941 508.234, 1378.621 497.337 C 1382.975 488.984, 1381.847 486.567, 1375.725 491.133 M 1916.461 498.878 C 1908.340 502.568, 1898.071 517.875, 1888.096 541.158 C 1881.642 556.226, 1877.845 571.168, 1880.114 572.570 C 1882.303 573.923, 1895.684 556.238, 1913.019 529.079 C 1927.665 506.134, 1930.150 500.221, 1926.066 498.035 C 1923.337 496.575, 1921.100 496.771, 1916.461 498.878 M 2507.500 498.567 C 2505.850 499.422, 2502.979 501.557, 2501.120 503.311 C 2490.686 513.155, 2473.907 548.025, 2472.326 563.153 C 2471.805 568.135, 2471.972 569.052, 2473.503 569.640 C 2475.762 570.506, 2478.227 567.623, 2489.865 550.500 C 2505.128 528.045, 2518 505.425, 2518 501.060 C 2518 497.212, 2512.593 495.928, 2507.500 498.567 M 1153.500 521.131 C 1150.750 521.655, 1137.925 524.566, 1125 527.599 C 1037.321 548.175, 961.379 572.866, 894.235 602.625 C 879.155 609.309, 865.499 616.384, 864.473 618.044 C 863.286 619.964, 862.066 642.784, 861.028 682.500 C 860.438 705.050, 859.723 724.948, 859.439 726.718 C 858.298 733.816, 851.878 735.271, 846.564 729.637 C 842.705 725.545, 840.232 717.771, 835.511 694.887 C 829.848 667.435, 829.844 663.894, 835.475 662.849 C 839.113 662.174, 839.970 658.356, 839.985 642.750 C 839.993 634.638, 839.738 628, 839.419 628 C 838.301 628, 812.399 643.354, 801 650.773 C 758.992 678.116, 724.656 710.861, 712.333 735.331 C 707.190 745.544, 704.924 755.459, 704.285 770.541 C 703.638 785.812, 703.982 786.856, 712.242 794.668 C 725.921 807.604, 743.336 811.984, 781.144 811.994 C 804.197 812, 816.536 811.066, 835 807.915 C 894.836 797.705, 963.398 765.096, 1018.500 720.641 C 1072.285 677.248, 1116.209 622.503, 1156.215 549 C 1167.197 528.821, 1168.919 524.685, 1167.365 522.206 C 1166.092 520.174, 1160.709 519.757, 1153.500 521.131 M 891 1061.058 L 891 1106.145 905.750 1105.550 C 929.842 1104.578, 939 1103.210, 939 1100.583 C 939 1098.623, 932.281 1097.188, 916.750 1095.829 L 903 1094.626 903 1080.445 L 903 1066.263 906.750 1065.772 C 908.813 1065.502, 914.061 1065.193, 918.413 1065.084 C 927.183 1064.865, 935.937 1063.463, 937.348 1062.052 C 938.755 1060.645, 937.333 1058.077, 934.562 1057.024 C 933.193 1056.503, 926.136 1055.764, 918.879 1055.381 C 901.954 1054.487, 902 1054.525, 902 1041.565 C 902 1028.671, 902.567 1027.443, 908.652 1027.153 C 916.604 1026.774, 931.236 1025.004, 935.208 1023.939 C 947.080 1020.758, 935.156 1017.824, 905.250 1016.569 L 891 1015.971 891 1061.058 M 1078 1016.654 C 1063.725 1019.252, 1057.599 1026.262, 1057.599 1040 C 1057.599 1051.164, 1060.318 1055.223, 1071.500 1060.747 C 1074.800 1062.377, 1080.708 1064.672, 1084.630 1065.848 C 1095.405 1069.077, 1096.404 1070.211, 1096.835 1079.702 C 1097.448 1093.211, 1093.496 1098.157, 1081.895 1098.403 C 1077.839 1098.488, 1076.266 1097.798, 1068.714 1092.616 C 1059.114 1086.030, 1057 1085.841, 1057 1091.569 C 1057 1099.551, 1067.284 1105.002, 1082.498 1105.082 C 1099.509 1105.172, 1107.669 1098.281, 1108.774 1082.891 C 1109.849 1067.916, 1105.910 1063.702, 1081.682 1053.915 C 1072.409 1050.169, 1068.538 1047.161, 1067.002 1042.507 C 1066.051 1039.626, 1066.186 1038.368, 1067.848 1034.611 C 1070.554 1028.493, 1074.352 1026.609, 1084.067 1026.562 C 1090.405 1026.532, 1092.491 1026.971, 1096.909 1029.263 C 1103.668 1032.770, 1107 1032.886, 1107 1029.616 C 1107 1022.751, 1088.916 1014.668, 1078 1016.654 M 1395.198 1016.878 C 1392.565 1018.505, 1391.890 1029.444, 1392.210 1065.284 C 1392.388 1085.203, 1392.922 1102.312, 1393.395 1103.304 C 1393.969 1104.508, 1395.126 1105.007, 1396.870 1104.804 C 1401.233 1104.297, 1402.234 1100.492, 1402.785 1082.311 L 1403.280 1066 1422.140 1066 C 1432.513 1066, 1441.012 1066.338, 1441.026 1066.750 C 1441.429 1078.343, 1443.219 1099.132, 1444.023 1101.569 C 1444.613 1103.359, 1445.851 1105.112, 1446.772 1105.466 C 1451.461 1107.265, 1452.515 1097.972, 1451.588 1063.015 C 1450.678 1028.742, 1449.237 1017, 1445.940 1017 C 1443.794 1017, 1443 1022.825, 1443 1038.565 L 1443 1055 1422 1055 L 1401 1055 1401 1039.625 C 1401 1031.169, 1400.716 1022.828, 1400.368 1021.089 C 1399.694 1017.721, 1397.166 1015.661, 1395.198 1016.878 M 1573 1061.081 L 1573 1106.161 1587.250 1105.562 C 1609.945 1104.608, 1622 1102.982, 1622 1100.876 C 1622 1098.919, 1615.895 1097.781, 1599.648 1096.706 L 1582.796 1095.592 1583.498 1081.546 C 1583.884 1073.821, 1584.505 1067.172, 1584.878 1066.772 C 1585.251 1066.371, 1589.369 1065.800, 1594.028 1065.502 C 1609.241 1064.529, 1614.363 1063.875, 1617.707 1062.478 C 1626.953 1058.615, 1616.142 1055, 1595.339 1055 L 1582.777 1055 1583.507 1041.750 C 1583.909 1034.463, 1584.638 1028.246, 1585.126 1027.936 C 1585.615 1027.627, 1588.149 1027.272, 1590.757 1027.148 C 1598.646 1026.773, 1613.264 1024.996, 1617.250 1023.928 C 1622.353 1022.560, 1621.993 1020.487, 1616.407 1019.081 C 1612.838 1018.182, 1585.408 1016.169, 1574.750 1016.024 C 1573.109 1016.001, 1573 1018.804, 1573 1061.081 M 1746.773 1016.942 C 1735.503 1017.757, 1732.693 1018.881, 1733.202 1022.372 C 1733.598 1025.091, 1736.514 1025.780, 1748.134 1025.900 L 1757.768 1026 1758.178 1062.750 C 1758.509 1092.428, 1758.870 1100.077, 1760.057 1102.500 C 1760.866 1104.150, 1762.190 1105.500, 1763 1105.500 C 1763.810 1105.500, 1765.139 1104.150, 1765.954 1102.500 C 1767.157 1100.063, 1767.508 1092.598, 1767.826 1062.750 L 1768.218 1026 1778.386 1026 C 1785.971 1026, 1789.120 1025.604, 1790.777 1024.443 C 1793.957 1022.216, 1793.608 1019.408, 1789.994 1018.148 C 1785.892 1016.718, 1759.896 1015.992, 1746.773 1016.942 M 1910.500 1016.623 C 1899.102 1018.107, 1896.579 1021.605, 1904.469 1024.987 C 1907.731 1026.385, 1909.148 1027.658, 1909.719 1029.701 C 1910.728 1033.316, 1910.741 1088.637, 1909.734 1092.238 C 1909.194 1094.169, 1907.587 1095.643, 1904.284 1097.238 C 1901.708 1098.482, 1899.426 1100.069, 1899.212 1100.764 C 1898.657 1102.570, 1904.418 1104.687, 1912.105 1105.502 C 1926.789 1107.058, 1939.596 1100.447, 1927.687 1097.458 C 1921.835 1095.989, 1921.530 1094.392, 1921.193 1063.364 C 1920.825 1029.444, 1921.079 1027.958, 1927.788 1024.751 C 1930.380 1023.513, 1932.500 1022.050, 1932.500 1021.500 C 1932.500 1018.625, 1918.670 1015.559, 1910.500 1016.623 M 1219.183 1018.056 C 1217.417 1018.764, 1216.941 1019.631, 1217.183 1021.703 C 1217.589 1025.181, 1219.709 1025.772, 1232.250 1025.900 L 1242 1026 1242.020 1058.750 C 1242.040 1091.960, 1242.841 1103.649, 1245.196 1105.142 C 1250.130 1108.267, 1251.044 1102.186, 1251.719 1061.750 L 1252.317 1026 1262.224 1026 C 1272.257 1026, 1276 1025.061, 1276 1022.542 C 1276 1019.228, 1259.953 1017.010, 1236.500 1017.081 C 1228.250 1017.106, 1220.457 1017.545, 1219.183 1018.056 M 2051.685 1018.017 C 2044.158 1020.276, 2038.766 1027.313, 2034.841 1040 C 2031.525 1050.721, 2031.460 1072.196, 2034.714 1082.537 C 2037.479 1091.326, 2043.622 1100.111, 2048.710 1102.554 C 2054.160 1105.170, 2068.047 1105.710, 2075.344 1103.588 C 2085.201 1100.723, 2091.452 1092.950, 2089.028 1086.575 C 2087.532 1082.640, 2084.229 1083.511, 2080.703 1088.770 C 2076.871 1094.486, 2071.742 1097, 2063.908 1097 C 2059.393 1097, 2056.828 1096.439, 2054.354 1094.910 C 2044.374 1088.742, 2040.207 1073.036, 2043.076 1052.406 C 2045.272 1036.623, 2050.035 1029.391, 2059.771 1027.055 C 2066.761 1025.378, 2071.631 1026.904, 2078.511 1032.925 C 2085.452 1038.998, 2087.717 1039.716, 2089.258 1036.332 C 2090.211 1034.241, 2090.033 1033.127, 2088.188 1029.661 C 2084.105 1021.987, 2073.552 1017.027, 2061.500 1017.119 C 2057.650 1017.148, 2053.233 1017.552, 2051.685 1018.017" stroke="none" fill="#f9f9f9" fill-rule="evenodd"/></svg>