<svg xmlns="http://www.w3.org/2000/svg" width="204" height="145" viewBox="0 0 204 145" version="1.1"><path d="M 52.588 14.166 C 34.537 27.005, 19.051 46.861, 13.343 64.484 C 9.900 75.113, 9.042 90.712, 11.396 99.900 C 15.368 115.405, 23.915 127.120, 35.571 133.036 C 41.547 136.069, 43.338 136.483, 52.002 136.831 C 63.826 137.306, 70.271 135.680, 77.933 130.287 C 85.549 124.927, 89.373 117.419, 89.853 106.880 C 90.302 97.021, 88.160 90.214, 82.769 84.366 C 77.494 78.643, 70.376 76.030, 57.500 75.092 C 52 74.691, 46.190 73.719, 44.590 72.932 C 38.038 69.708, 35.736 62.103, 37.933 50.936 C 39.582 42.553, 42.315 36.607, 47.275 30.609 C 52.558 24.221, 53.524 23.387, 64.207 15.984 C 68.995 12.665, 73.184 9.511, 73.516 8.975 C 73.883 8.380, 71.609 8, 67.687 8 C 61.411 8, 61.046 8.149, 52.588 14.166 M 155.766 12.896 C 147.422 18.868, 141.126 24.589, 134 32.673 C 125.626 42.173, 124.075 44.434, 119.497 53.821 C 113.755 65.595, 111.725 74.196, 111.773 86.544 C 111.816 97.468, 114.260 106.908, 119.428 116.114 C 122.993 122.463, 131.847 130.570, 138.747 133.804 C 143.993 136.263, 145.557 136.500, 156.500 136.500 C 168.057 136.500, 168.726 136.382, 174.620 133.301 C 187.038 126.810, 192.778 116.468, 191.720 102.486 C 191.068 93.863, 189.358 89.509, 184.519 84.153 C 179.482 78.578, 172.306 76.039, 158.726 75.028 C 149.869 74.368, 147.338 73.805, 144.497 71.863 C 139.680 68.570, 138.672 65.469, 139.193 55.553 C 140.021 39.778, 148.134 27.876, 166.457 15.557 C 171.156 12.399, 175 9.406, 175 8.907 C 175 8.408, 172.188 8.017, 168.750 8.039 C 162.906 8.075, 162.062 8.390, 155.766 12.896" stroke="none" fill="#1c1c1c" fill-rule="evenodd"/></svg>